<svg width="18" height="17" viewBox="0 0 18 17" fill="none" xmlns="http://www.w3.org/2000/svg">
<path d="M16.4113 6.7966H5.41748L9.0609 2.89663C9.6752 2.23908 9.6752 1.15072 9.0609 0.493164C8.4466 -0.164388 7.42983 -0.164388 6.81553 0.493164L0.460724 7.29543C-0.153575 7.95298 -0.153575 9.04135 0.460724 9.6989L6.81553 16.5012C7.13328 16.8413 7.53575 17 7.93822 17C8.34069 17 8.74316 16.8413 9.0609 16.5012C9.6752 15.8436 9.6752 14.7553 9.0609 14.0977L5.41748 10.1977H16.4113C17.2798 10.1977 18 9.42681 18 8.49716C18 7.56752 17.2798 6.7966 16.4113 6.7966Z" fill="#51B960"/>
</svg>
