<svg width="382" height="26" viewBox="0 0 382 26" fill="none" xmlns="http://www.w3.org/2000/svg">
<path d="M0 5C0 2.23858 2.23858 0 5 0H90H377C379.761 0 382 2.23858 382 5V21C382 23.7614 379.761 26 377 26H191H90H5C2.23858 26 0 23.7614 0 21V5Z" fill="#F8F7FA"/>
<path d="M0.25 5C0.25 2.37665 2.37665 0.25 5 0.25H90H377C379.623 0.25 381.75 2.37665 381.75 5V21C381.75 23.6234 379.623 25.75 377 25.75H191H90H5C2.37665 25.75 0.25 23.6234 0.25 21V5Z" stroke="#B14405" stroke-opacity="0.2" stroke-width="0.5"/>
</svg>
