<svg width="50" height="105" viewBox="0 0 50 105" fill="none" xmlns="http://www.w3.org/2000/svg">
<g opacity="0.25">
<path d="M25.2931 98.5927C36.5747 98.5927 45.7345 99.8832 45.7345 101.473C45.7345 103.062 36.5747 104.352 25.2931 104.352C14.0115 104.352 4.8517 103.062 4.8517 101.473C4.8517 99.8832 14.0115 98.5927 25.2931 98.5927Z" fill="#363636"/>
</g>
<path d="M18.8541 0.0382009C18.8541 0.0382009 23.0083 38.4431 22.9514 37.917C22.8945 37.3909 18.8541 0.0382009 18.8541 0.0382009Z" stroke="#C7302B"/>
<path d="M22.7237 35.8135C36.4631 34.7515 48.6385 43.319 49.8947 54.9331C51.151 66.5471 41.0157 76.8391 27.2763 77.901C13.5369 78.9629 1.36153 70.3954 0.105251 58.7814C-1.15103 47.1673 8.98431 36.8754 22.7237 35.8135Z" fill="#C7302B"/>
<path d="M20.0155 56.6099C20.0982 57.3739 19.0996 58.0767 17.787 58.1781L15.0751 58.3877C13.7625 58.4892 12.6297 57.9512 12.5471 57.1871C12.4644 56.4231 13.463 55.7204 14.7756 55.6189L17.4875 55.4093C18.8001 55.3079 19.9329 55.8458 20.0155 56.6099Z" fill="#2A2A2A"/>
<path d="M32.4665 55.6814C32.5511 56.4637 31.5541 57.1812 30.2416 57.2826L27.5297 57.4922C26.2171 57.5937 25.0827 57.0409 24.9981 56.2587C24.9135 55.4765 25.9105 54.759 27.223 54.6575L29.9349 54.4479C31.2475 54.3465 32.3819 54.8992 32.4665 55.6814Z" fill="#2A2A2A"/>
<path d="M17.8855 64.433C17.8855 64.433 21.8033 60.8216 27.9082 63.6583" stroke="white" stroke-linecap="round"/>
<path d="M18.7204 74.8283C15.8959 78.4006 17.7888 85.4726 10.247 85.5453" stroke="#C7302B" stroke-linecap="round"/>
<path d="M7.1967 82.4028L10.3448 85.7204" stroke="#C7302B" stroke-linecap="round"/>
<path d="M35.3607 73.6783C32.4819 77.2196 26.492 79.8651 26.7242 84.302" stroke="#C7302B" stroke-linecap="round"/>
<path d="M28.967 88.0736L26.6709 84.2894" stroke="#C7302B" stroke-linecap="round"/>
<path d="M32.3758 57.3012L32.4506 58.1952L32.3758 57.3012Z" fill="#363636"/>
<path d="M32.3758 57.3012L32.4506 58.1952" stroke="black" stroke-linecap="round"/>
<path d="M13.6131 58.5243L13.6619 58.5268" stroke="black" stroke-linecap="round"/>
</svg>
