<svg width="379" height="47" viewBox="0 0 379 47" fill="none" xmlns="http://www.w3.org/2000/svg">
<path d="M0 3.00542C0 1.34557 1.34557 0 3.00542 0H21.0379C22.6978 0 24.0434 1.34557 24.0434 3.00542V21.0379C24.0434 22.6978 22.6978 24.0434 21.0379 24.0434H3.00542C1.34557 24.0434 0 22.6978 0 21.0379V3.00542Z" fill="#51B960"/>
<path fill-rule="evenodd" clip-rule="evenodd" d="M20.7445 5.30246C21.1358 5.69369 21.1358 6.328 20.7445 6.71923L9.72465 17.7391C9.33342 18.1303 8.69911 18.1303 8.30788 17.7391L3.29884 12.7301C2.90761 12.3388 2.90761 11.7045 3.29884 11.3133C3.69007 10.9221 4.32438 10.9221 4.71561 11.3133L9.01626 15.6139L19.3278 5.30246C19.719 4.91123 20.3533 4.91123 20.7445 5.30246Z" fill="white"/>
<path d="M45.5702 18.8019C46.0137 18.8019 46.3957 18.7512 46.7163 18.6496C47.0368 18.5481 47.2986 18.4065 47.5017 18.2249C47.7101 18.0379 47.8623 17.8188 47.9585 17.5677C48.0547 17.3112 48.1028 17.0307 48.1028 16.7262C48.1028 16.1331 47.8917 15.6656 47.4696 15.3236C47.0475 14.9763 46.4144 14.8027 45.5702 14.8027H43.0857V18.8019H45.5702ZM43.0857 9.77763V13.6967H45.1374C45.5755 13.6967 45.9549 13.6486 46.2755 13.5524C46.6014 13.4563 46.8685 13.3227 47.0769 13.1517C47.2906 12.9807 47.4482 12.775 47.5498 12.5346C47.6513 12.2888 47.702 12.0217 47.702 11.7332C47.702 11.0546 47.499 10.5604 47.0929 10.2505C46.6869 9.93525 46.0564 9.77763 45.2015 9.77763H43.0857ZM45.2015 8.55142C45.9068 8.55142 46.5132 8.62088 47.0208 8.7598C47.5337 8.89872 47.9532 9.09641 48.2791 9.35287C48.6103 9.60933 48.8534 9.92457 49.0084 10.2986C49.1633 10.6672 49.2408 11.084 49.2408 11.5488C49.2408 11.832 49.1954 12.1045 49.1046 12.3663C49.0191 12.6228 48.8882 12.8632 48.7119 13.0876C48.5355 13.312 48.3111 13.515 48.0386 13.6967C47.7715 13.873 47.4563 14.0173 47.0929 14.1295C47.9371 14.2898 48.5703 14.5917 48.9924 15.0351C49.4198 15.4732 49.6335 16.0503 49.6335 16.7662C49.6335 17.2525 49.5427 17.6959 49.361 18.0966C49.1847 18.4974 48.9229 18.842 48.5756 19.1305C48.2337 19.419 47.8116 19.6434 47.3093 19.8037C46.8071 19.9587 46.2354 20.0361 45.5942 20.0361H41.5389V8.55142H45.2015Z" fill="#A6A6AA"/>
<path d="M58.3659 11.9175L53.8377 22.4325C53.7896 22.5393 53.7282 22.6248 53.6534 22.6889C53.5839 22.753 53.4744 22.7851 53.3248 22.7851H52.2669L53.7496 19.5633L50.3995 11.9175H51.6338C51.7566 11.9175 51.8528 11.9496 51.9223 12.0137C51.9971 12.0724 52.0478 12.1392 52.0746 12.214L54.2465 17.3273C54.332 17.5517 54.4041 17.7867 54.4629 18.0325C54.5377 17.7814 54.6178 17.5436 54.7033 17.3192L56.8111 12.214C56.8432 12.1285 56.8966 12.0591 56.9714 12.0057C57.0515 11.9469 57.1397 11.9175 57.2359 11.9175H58.3659Z" fill="#A6A6AA"/>
<path d="M69.5472 10.3467C69.4991 10.4268 69.4457 10.4883 69.3869 10.531C69.3335 10.5684 69.2667 10.5871 69.1865 10.5871C69.0957 10.5871 68.9889 10.5417 68.866 10.4508C68.7431 10.36 68.5881 10.2612 68.4011 10.1543C68.2195 10.0421 67.9977 9.9406 67.7359 9.84977C67.4795 9.75893 67.1669 9.71352 66.7982 9.71352C66.4509 9.71352 66.1437 9.76161 65.8766 9.85778C65.6148 9.94861 65.393 10.0742 65.2114 10.2345C65.035 10.3947 64.9015 10.5844 64.8106 10.8035C64.7198 11.0172 64.6744 11.2496 64.6744 11.5007C64.6744 11.8213 64.7519 12.0885 64.9068 12.3022C65.0671 12.5106 65.2755 12.6896 65.5319 12.8392C65.7938 12.9888 66.0876 13.1197 66.4135 13.2319C66.7448 13.3387 67.0814 13.4509 67.4234 13.5685C67.7707 13.686 68.1073 13.8196 68.4332 13.9692C68.7644 14.1135 69.0583 14.2978 69.3148 14.5222C69.5766 14.7466 69.785 15.0218 69.9399 15.3477C70.1002 15.6736 70.1803 16.0743 70.1803 16.5499C70.1803 17.0521 70.0949 17.5249 69.9239 17.9684C69.7529 18.4065 69.5018 18.7886 69.1705 19.1145C68.8446 19.4404 68.4412 19.6969 67.9603 19.8839C67.4848 20.0709 66.9425 20.1644 66.3334 20.1644C65.5854 20.1644 64.9068 20.0308 64.2977 19.7636C63.6886 19.4912 63.1677 19.1252 62.7349 18.6657L63.1837 17.9283C63.2265 17.8696 63.2772 17.8215 63.336 17.7841C63.4001 17.7413 63.4696 17.72 63.5444 17.72C63.6138 17.72 63.6913 17.7493 63.7768 17.8081C63.8676 17.8615 63.9691 17.931 64.0813 18.0165C64.1935 18.102 64.3218 18.1955 64.466 18.297C64.6103 18.3985 64.7732 18.492 64.9549 18.5775C65.1419 18.663 65.353 18.7351 65.588 18.7939C65.8231 18.8473 66.0876 18.874 66.3815 18.874C66.7501 18.874 67.0787 18.8233 67.3673 18.7218C67.6558 18.6203 67.8989 18.4787 68.0966 18.297C68.2996 18.11 68.4546 17.8883 68.5614 17.6318C68.6683 17.3753 68.7217 17.0895 68.7217 16.7743C68.7217 16.427 68.6416 16.1438 68.4813 15.9247C68.3263 15.7003 68.1206 15.5133 67.8642 15.3637C67.6077 15.2141 67.3138 15.0885 66.9826 14.987C66.6513 14.8802 66.3147 14.7733 65.9727 14.6665C65.6308 14.5543 65.2942 14.426 64.9629 14.2818C64.6317 14.1375 64.3378 13.9505 64.0813 13.7207C63.8249 13.491 63.6165 13.2052 63.4562 12.8632C63.3013 12.5159 63.2238 12.0885 63.2238 11.5809C63.2238 11.1748 63.3013 10.7821 63.4562 10.4028C63.6165 10.0234 63.8462 9.68681 64.1454 9.39294C64.45 9.09908 64.8213 8.86399 65.2595 8.68767C65.7029 8.51135 66.2105 8.42319 66.7822 8.42319C67.4234 8.42319 68.0057 8.52471 68.5294 8.72774C69.0583 8.93077 69.5231 9.22464 69.9239 9.60933L69.5472 10.3467Z" fill="#A6A6AA"/>
<path d="M73.4676 11.9175V20.0361H72.0411V11.9175H73.4676ZM73.7722 9.3689C73.7722 9.50782 73.7428 9.63872 73.684 9.76161C73.6306 9.87915 73.5558 9.98601 73.4596 10.0822C73.3688 10.173 73.2593 10.2451 73.131 10.2986C73.0081 10.352 72.8772 10.3787 72.7383 10.3787C72.5994 10.3787 72.4685 10.352 72.3456 10.2986C72.2281 10.2451 72.1239 10.173 72.033 10.0822C71.9422 9.98601 71.8701 9.87915 71.8167 9.76161C71.7632 9.63872 71.7365 9.50782 71.7365 9.3689C71.7365 9.22998 71.7632 9.09908 71.8167 8.97619C71.8701 8.84796 71.9422 8.73843 72.033 8.6476C72.1239 8.55142 72.2281 8.47662 72.3456 8.42319C72.4685 8.36976 72.5994 8.34305 72.7383 8.34305C72.8772 8.34305 73.0081 8.36976 73.131 8.42319C73.2593 8.47662 73.3688 8.55142 73.4596 8.6476C73.5558 8.73843 73.6306 8.84796 73.684 8.97619C73.7428 9.09908 73.7722 9.22998 73.7722 9.3689Z" fill="#A6A6AA"/>
<path d="M78.6407 16.069C78.9292 16.069 79.183 16.0289 79.4021 15.9488C79.6211 15.8686 79.8055 15.7564 79.9551 15.6122C80.1047 15.4679 80.2169 15.2969 80.2917 15.0992C80.3665 14.8962 80.4039 14.6745 80.4039 14.434C80.4039 13.9371 80.2516 13.5418 79.9471 13.2479C79.6479 12.954 79.2124 12.8071 78.6407 12.8071C78.0637 12.8071 77.6229 12.954 77.3183 13.2479C77.0191 13.5418 76.8695 13.9371 76.8695 14.434C76.8695 14.6745 76.9069 14.8962 76.9817 15.0992C77.0619 15.2969 77.1767 15.4679 77.3263 15.6122C77.4759 15.7564 77.6603 15.8686 77.8793 15.9488C78.0984 16.0289 78.3522 16.069 78.6407 16.069ZM81.2134 20.4769C81.2134 20.2792 81.1573 20.119 81.0451 19.9961C80.9328 19.8732 80.7806 19.777 80.5882 19.7075C80.4012 19.6381 80.1822 19.59 79.931 19.5633C79.6799 19.5312 79.4128 19.5072 79.1296 19.4912C78.8518 19.4751 78.5686 19.4591 78.2801 19.4431C77.9915 19.427 77.7137 19.4003 77.4466 19.3629C77.1474 19.5018 76.9016 19.6782 76.7092 19.8919C76.5222 20.1003 76.4287 20.346 76.4287 20.6292C76.4287 20.8109 76.4741 20.9792 76.565 21.1341C76.6611 21.2944 76.8054 21.4307 76.9978 21.5429C77.1901 21.6604 77.4305 21.7512 77.7191 21.8153C78.0129 21.8848 78.3575 21.9195 78.7529 21.9195C79.1376 21.9195 79.4822 21.8848 79.7868 21.8153C80.0913 21.7459 80.3478 21.647 80.5562 21.5188C80.7699 21.3906 80.9328 21.2383 81.0451 21.062C81.1573 20.8857 81.2134 20.6907 81.2134 20.4769ZM82.664 12.2381V12.767C82.664 12.9433 82.5518 13.0555 82.3274 13.1036L81.4057 13.2239C81.5874 13.5765 81.6782 13.9665 81.6782 14.394C81.6782 14.7893 81.6007 15.15 81.4458 15.4759C81.2962 15.7965 81.0878 16.0717 80.8206 16.3014C80.5535 16.5312 80.2329 16.7075 79.8589 16.8304C79.4849 16.9532 79.0788 17.0147 78.6407 17.0147C78.2614 17.0147 77.9034 16.9693 77.5668 16.8784C77.3958 16.9853 77.2649 17.1002 77.1741 17.2231C77.0832 17.3406 77.0378 17.4608 77.0378 17.5837C77.0378 17.7761 77.1153 17.923 77.2702 18.0245C77.4305 18.1207 77.6389 18.1901 77.8954 18.2329C78.1518 18.2756 78.443 18.3023 78.769 18.313C79.1002 18.3237 79.4368 18.3424 79.7788 18.3691C80.1261 18.3905 80.4627 18.4306 80.7886 18.4893C81.1199 18.5481 81.4137 18.6443 81.6702 18.7779C81.9266 18.9114 82.1323 19.0958 82.2873 19.3309C82.4476 19.566 82.5277 19.8705 82.5277 20.2445C82.5277 20.5918 82.4396 20.9284 82.2633 21.2543C82.0923 21.5803 81.8438 21.8688 81.5179 22.1199C81.192 22.3764 80.7913 22.5794 80.3157 22.729C79.8456 22.8839 79.3139 22.9614 78.7209 22.9614C78.1278 22.9614 77.6095 22.9026 77.1661 22.7851C76.7226 22.6676 76.3539 22.5099 76.0601 22.3122C75.7662 22.1146 75.5445 21.8848 75.3949 21.623C75.2506 21.3665 75.1785 21.0967 75.1785 20.8135C75.1785 20.4128 75.304 20.0735 75.5552 19.7957C75.8063 19.5179 76.1509 19.2961 76.589 19.1305C76.3486 19.0236 76.1562 18.8821 76.012 18.7057C75.8731 18.5241 75.8036 18.281 75.8036 17.9764C75.8036 17.8589 75.825 17.7387 75.8677 17.6158C75.9105 17.4875 75.9746 17.362 76.0601 17.2391C76.1509 17.1109 76.2604 16.9906 76.3887 16.8784C76.5169 16.7662 76.6665 16.6674 76.8375 16.5819C76.4367 16.3575 76.1242 16.061 75.8998 15.6923C75.6754 15.3183 75.5632 14.8855 75.5632 14.394C75.5632 13.9986 75.638 13.6406 75.7876 13.32C75.9425 12.9941 76.1562 12.7189 76.4287 12.4945C76.7012 12.2648 77.0245 12.0885 77.3985 11.9656C77.7778 11.8427 78.1919 11.7812 78.6407 11.7812C78.9934 11.7812 79.3219 11.8213 79.6265 11.9015C79.931 11.9763 80.2089 12.0885 80.46 12.2381H82.664Z" fill="#A6A6AA"/>
<path d="M85.4856 13.0956C85.6619 12.8979 85.8489 12.7189 86.0466 12.5587C86.2443 12.3984 86.4526 12.2621 86.6717 12.1499C86.8961 12.0324 87.1312 11.9442 87.377 11.8854C87.6281 11.8213 87.8979 11.7893 88.1864 11.7893C88.6299 11.7893 89.0199 11.8641 89.3565 12.0137C89.6985 12.1579 89.9817 12.3663 90.2061 12.6388C90.4358 12.9059 90.6095 13.2292 90.727 13.6085C90.8446 13.9879 90.9033 14.4073 90.9033 14.8668V20.0361H89.4687V14.8668C89.4687 14.2524 89.3272 13.7768 89.044 13.4402C88.7661 13.0983 88.3414 12.9273 87.7697 12.9273C87.3476 12.9273 86.9522 13.0288 86.5835 13.2319C86.2202 13.4349 85.8836 13.7101 85.5737 14.0574V20.0361H84.1391V11.9175H84.9967C85.1997 11.9175 85.3253 12.0163 85.3734 12.214L85.4856 13.0956Z" fill="#A6A6AA"/>
<path d="M94.5839 11.9175V20.0361H93.1573V11.9175H94.5839ZM94.8884 9.3689C94.8884 9.50782 94.859 9.63872 94.8002 9.76161C94.7468 9.87915 94.672 9.98601 94.5758 10.0822C94.485 10.173 94.3755 10.2451 94.2472 10.2986C94.1244 10.352 93.9934 10.3787 93.8545 10.3787C93.7156 10.3787 93.5847 10.352 93.4618 10.2986C93.3443 10.2451 93.2401 10.173 93.1493 10.0822C93.0584 9.98601 92.9863 9.87915 92.9329 9.76161C92.8794 9.63872 92.8527 9.50782 92.8527 9.3689C92.8527 9.22998 92.8794 9.09908 92.9329 8.97619C92.9863 8.84796 93.0584 8.73843 93.1493 8.6476C93.2401 8.55142 93.3443 8.47662 93.4618 8.42319C93.5847 8.36976 93.7156 8.34305 93.8545 8.34305C93.9934 8.34305 94.1244 8.36976 94.2472 8.42319C94.3755 8.47662 94.485 8.55142 94.5758 8.6476C94.672 8.73843 94.7468 8.84796 94.8002 8.97619C94.859 9.09908 94.8884 9.22998 94.8884 9.3689Z" fill="#A6A6AA"/>
<path d="M98.2743 13.0956C98.4506 12.8979 98.6376 12.7189 98.8353 12.5587C99.033 12.3984 99.2413 12.2621 99.4604 12.1499C99.6848 12.0324 99.9199 11.9442 100.166 11.8854C100.417 11.8213 100.687 11.7893 100.975 11.7893C101.419 11.7893 101.809 11.8641 102.145 12.0137C102.487 12.1579 102.77 12.3663 102.995 12.6388C103.225 12.9059 103.398 13.2292 103.516 13.6085C103.633 13.9879 103.692 14.4073 103.692 14.8668V20.0361H102.257V14.8668C102.257 14.2524 102.116 13.7768 101.833 13.4402C101.555 13.0983 101.13 12.9273 100.558 12.9273C100.136 12.9273 99.7409 13.0288 99.3722 13.2319C99.0089 13.4349 98.6723 13.7101 98.3624 14.0574V20.0361H96.9278V11.9175H97.7854C97.9884 11.9175 98.114 12.0163 98.1621 12.214L98.2743 13.0956Z" fill="#A6A6AA"/>
<path d="M108.695 16.069C108.983 16.069 109.237 16.0289 109.456 15.9488C109.675 15.8686 109.86 15.7564 110.009 15.6122C110.159 15.4679 110.271 15.2969 110.346 15.0992C110.421 14.8962 110.458 14.6745 110.458 14.434C110.458 13.9371 110.306 13.5418 110.001 13.2479C109.702 12.954 109.267 12.8071 108.695 12.8071C108.118 12.8071 107.677 12.954 107.373 13.2479C107.073 13.5418 106.924 13.9371 106.924 14.434C106.924 14.6745 106.961 14.8962 107.036 15.0992C107.116 15.2969 107.231 15.4679 107.381 15.6122C107.53 15.7564 107.714 15.8686 107.934 15.9488C108.153 16.0289 108.406 16.069 108.695 16.069ZM111.268 20.4769C111.268 20.2792 111.211 20.119 111.099 19.9961C110.987 19.8732 110.835 19.777 110.642 19.7075C110.455 19.6381 110.236 19.59 109.985 19.5633C109.734 19.5312 109.467 19.5072 109.184 19.4912C108.906 19.4751 108.623 19.4591 108.334 19.4431C108.046 19.427 107.768 19.4003 107.501 19.3629C107.202 19.5018 106.956 19.6782 106.763 19.8919C106.576 20.1003 106.483 20.346 106.483 20.6292C106.483 20.8109 106.528 20.9792 106.619 21.1341C106.715 21.2944 106.86 21.4307 107.052 21.5429C107.244 21.6604 107.485 21.7512 107.773 21.8153C108.067 21.8848 108.412 21.9195 108.807 21.9195C109.192 21.9195 109.536 21.8848 109.841 21.8153C110.146 21.7459 110.402 21.647 110.61 21.5188C110.824 21.3906 110.987 21.2383 111.099 21.062C111.211 20.8857 111.268 20.6907 111.268 20.4769ZM112.718 12.2381V12.767C112.718 12.9433 112.606 13.0555 112.382 13.1036L111.46 13.2239C111.642 13.5765 111.732 13.9665 111.732 14.394C111.732 14.7893 111.655 15.15 111.5 15.4759C111.35 15.7965 111.142 16.0717 110.875 16.3014C110.608 16.5312 110.287 16.7075 109.913 16.8304C109.539 16.9532 109.133 17.0147 108.695 17.0147C108.316 17.0147 107.958 16.9693 107.621 16.8784C107.45 16.9853 107.319 17.1002 107.228 17.2231C107.137 17.3406 107.092 17.4608 107.092 17.5837C107.092 17.7761 107.17 17.923 107.324 18.0245C107.485 18.1207 107.693 18.1901 107.95 18.2329C108.206 18.2756 108.497 18.3023 108.823 18.313C109.154 18.3237 109.491 18.3424 109.833 18.3691C110.18 18.3905 110.517 18.4306 110.843 18.4893C111.174 18.5481 111.468 18.6443 111.724 18.7779C111.981 18.9114 112.187 19.0958 112.342 19.3309C112.502 19.566 112.582 19.8705 112.582 20.2445C112.582 20.5918 112.494 20.9284 112.317 21.2543C112.146 21.5803 111.898 21.8688 111.572 22.1199C111.246 22.3764 110.845 22.5794 110.37 22.729C109.9 22.8839 109.368 22.9614 108.775 22.9614C108.182 22.9614 107.664 22.9026 107.22 22.7851C106.777 22.6676 106.408 22.5099 106.114 22.3122C105.82 22.1146 105.599 21.8848 105.449 21.623C105.305 21.3665 105.233 21.0967 105.233 20.8135C105.233 20.4128 105.358 20.0735 105.609 19.7957C105.86 19.5179 106.205 19.2961 106.643 19.1305C106.403 19.0236 106.21 18.8821 106.066 18.7057C105.927 18.5241 105.858 18.281 105.858 17.9764C105.858 17.8589 105.879 17.7387 105.922 17.6158C105.965 17.4875 106.029 17.362 106.114 17.2391C106.205 17.1109 106.315 16.9906 106.443 16.8784C106.571 16.7662 106.721 16.6674 106.892 16.5819C106.491 16.3575 106.178 16.061 105.954 15.6923C105.73 15.3183 105.617 14.8855 105.617 14.394C105.617 13.9986 105.692 13.6406 105.842 13.32C105.997 12.9941 106.21 12.7189 106.483 12.4945C106.755 12.2648 107.079 12.0885 107.453 11.9656C107.832 11.8427 108.246 11.7812 108.695 11.7812C109.048 11.7812 109.376 11.8213 109.681 11.9015C109.985 11.9763 110.263 12.0885 110.514 12.2381H112.718Z" fill="#A6A6AA"/>
<path d="M123.063 18.8019C123.539 18.8019 123.963 18.7218 124.337 18.5615C124.711 18.4012 125.027 18.1768 125.283 17.8883C125.545 17.5997 125.743 17.2551 125.876 16.8544C126.015 16.4537 126.085 16.0129 126.085 15.532V8.55142H127.631V15.532C127.631 16.1945 127.524 16.809 127.311 17.3753C127.102 17.9417 126.8 18.4332 126.405 18.85C126.015 19.2614 125.537 19.5847 124.971 19.8197C124.404 20.0548 123.768 20.1724 123.063 20.1724C122.358 20.1724 121.722 20.0548 121.156 19.8197C120.589 19.5847 120.108 19.2614 119.713 18.85C119.318 18.4332 119.013 17.9417 118.799 17.3753C118.591 16.809 118.487 16.1945 118.487 15.532V8.55142H120.034V15.524C120.034 16.0049 120.1 16.4457 120.234 16.8464C120.373 17.2471 120.571 17.5917 120.827 17.8802C121.089 18.1688 121.407 18.3958 121.781 18.5615C122.16 18.7218 122.588 18.8019 123.063 18.8019Z" fill="#A6A6AA"/>
<path d="M131.281 18.0806C131.543 18.4332 131.829 18.6817 132.139 18.826C132.449 18.9702 132.796 19.0423 133.181 19.0423C133.939 19.0423 134.522 18.7725 134.928 18.2329C135.334 17.6932 135.537 16.9239 135.537 15.9247C135.537 15.3958 135.489 14.9416 135.393 14.5623C135.302 14.1829 135.168 13.873 134.992 13.6326C134.816 13.3868 134.599 13.2078 134.343 13.0956C134.086 12.9834 133.795 12.9273 133.469 12.9273C133.004 12.9273 132.596 13.0342 132.243 13.2479C131.896 13.4616 131.575 13.7635 131.281 14.1535V18.0806ZM131.209 13.1758C131.551 12.7537 131.946 12.4144 132.395 12.1579C132.844 11.9015 133.357 11.7732 133.934 11.7732C134.404 11.7732 134.829 11.8641 135.208 12.0457C135.588 12.222 135.911 12.4865 136.178 12.8392C136.445 13.1865 136.651 13.6192 136.795 14.1375C136.939 14.6558 137.011 15.2515 137.011 15.9247C137.011 16.5231 136.931 17.0815 136.771 17.5997C136.611 18.1127 136.378 18.5588 136.074 18.9382C135.775 19.3122 135.406 19.6087 134.968 19.8278C134.535 20.0415 134.046 20.1483 133.501 20.1483C133.004 20.1483 132.577 20.0655 132.219 19.8999C131.866 19.7289 131.554 19.4938 131.281 19.1946V22.7851H129.847V11.9175H130.704C130.907 11.9175 131.033 12.0163 131.081 12.214L131.209 13.1758Z" fill="#A6A6AA"/>
<path d="M138.743 21.9756C138.701 21.9382 138.671 21.9035 138.655 21.8714C138.639 21.8394 138.631 21.7993 138.631 21.7512C138.631 21.7138 138.642 21.6764 138.663 21.639C138.69 21.6016 138.719 21.5669 138.751 21.5348C138.805 21.4761 138.872 21.3986 138.952 21.3024C139.037 21.2062 139.123 21.0914 139.208 20.9578C139.294 20.8296 139.371 20.6853 139.441 20.525C139.515 20.3701 139.569 20.2044 139.601 20.0281C139.585 20.0335 139.566 20.0361 139.545 20.0361C139.529 20.0361 139.513 20.0361 139.497 20.0361C139.219 20.0361 138.992 19.9453 138.816 19.7636C138.645 19.5766 138.559 19.3389 138.559 19.0504C138.559 18.7992 138.645 18.5855 138.816 18.4092C138.992 18.2329 139.224 18.1447 139.513 18.1447C139.673 18.1447 139.815 18.1741 139.938 18.2329C140.06 18.2917 140.162 18.3745 140.242 18.4813C140.328 18.5829 140.392 18.7031 140.434 18.842C140.477 18.9756 140.499 19.1225 140.499 19.2828C140.499 19.5232 140.464 19.7743 140.394 20.0361C140.33 20.2926 140.231 20.5464 140.098 20.7975C139.97 21.054 139.812 21.3024 139.625 21.5429C139.438 21.7833 139.224 22.005 138.984 22.2081L138.743 21.9756Z" fill="#A6A6AA"/>
<path d="M150.586 15.4599V20.0361H149.032V15.4599L144.824 8.55142H146.187C146.325 8.55142 146.435 8.58615 146.515 8.65561C146.595 8.71973 146.665 8.80521 146.724 8.91207L149.352 13.3761C149.448 13.5631 149.537 13.7394 149.617 13.9051C149.697 14.0654 149.766 14.2283 149.825 14.394C149.884 14.2283 149.951 14.0654 150.025 13.9051C150.1 13.7394 150.183 13.5631 150.274 13.3761L152.895 8.91207C152.943 8.82124 153.01 8.73843 153.095 8.66363C153.18 8.58882 153.29 8.55142 153.424 8.55142H154.794L150.586 15.4599Z" fill="#A6A6AA"/>
<path d="M157.61 11.7893C158.203 11.7893 158.737 11.8881 159.212 12.0858C159.688 12.2835 160.094 12.564 160.431 12.9273C160.767 13.2906 161.024 13.7314 161.2 14.2497C161.382 14.7626 161.472 15.337 161.472 15.9728C161.472 16.614 161.382 17.191 161.2 17.7039C161.024 18.2169 160.767 18.655 160.431 19.0183C160.094 19.3816 159.688 19.6621 159.212 19.8598C158.737 20.0522 158.203 20.1483 157.61 20.1483C157.011 20.1483 156.471 20.0522 155.991 19.8598C155.515 19.6621 155.109 19.3816 154.772 19.0183C154.436 18.655 154.177 18.2169 153.995 17.7039C153.819 17.191 153.731 16.614 153.731 15.9728C153.731 15.337 153.819 14.7626 153.995 14.2497C154.177 13.7314 154.436 13.2906 154.772 12.9273C155.109 12.564 155.515 12.2835 155.991 12.0858C156.471 11.8881 157.011 11.7893 157.61 11.7893ZM157.61 19.0343C158.411 19.0343 159.009 18.7672 159.405 18.2329C159.8 17.6932 159.998 16.9426 159.998 15.9808C159.998 15.0137 159.8 14.2604 159.405 13.7207C159.009 13.1811 158.411 12.9113 157.61 12.9113C157.203 12.9113 156.848 12.9807 156.544 13.1197C156.244 13.2586 155.993 13.4589 155.79 13.7207C155.593 13.9826 155.443 14.3058 155.341 14.6905C155.245 15.0698 155.197 15.5 155.197 15.9808C155.197 16.9426 155.395 17.6932 155.79 18.2329C156.191 18.7672 156.797 19.0343 157.61 19.0343Z" fill="#A6A6AA"/>
<path d="M169.958 11.9175V20.0361H169.108C168.905 20.0361 168.777 19.9373 168.724 19.7396L168.611 18.866C168.259 19.2561 167.863 19.5713 167.425 19.8117C166.987 20.0468 166.485 20.1644 165.919 20.1644C165.475 20.1644 165.082 20.0922 164.741 19.948C164.404 19.7984 164.121 19.59 163.891 19.3229C163.661 19.0557 163.488 18.7325 163.37 18.3531C163.258 17.9738 163.202 17.5543 163.202 17.0948V11.9175H164.628V17.0948C164.628 17.7093 164.767 18.1848 165.045 18.5214C165.328 18.858 165.758 19.0263 166.335 19.0263C166.757 19.0263 167.15 18.9275 167.514 18.7298C167.882 18.5267 168.221 18.2489 168.531 17.8963V11.9175H169.958Z" fill="#A6A6AA"/>
<path d="M180.721 16.3815C180.064 16.4029 179.503 16.4563 179.038 16.5418C178.578 16.622 178.202 16.7288 177.908 16.8624C177.619 16.996 177.408 17.1536 177.275 17.3353C177.147 17.5169 177.082 17.72 177.082 17.9444C177.082 18.1581 177.117 18.3424 177.187 18.4974C177.256 18.6523 177.35 18.7805 177.467 18.8821C177.59 18.9782 177.732 19.0504 177.892 19.0984C178.057 19.1412 178.234 19.1626 178.421 19.1626C178.672 19.1626 178.902 19.1385 179.11 19.0904C179.318 19.037 179.513 18.9622 179.695 18.866C179.882 18.7699 180.058 18.655 180.224 18.5214C180.395 18.3878 180.561 18.2356 180.721 18.0646V16.3815ZM176.113 13.0636C176.561 12.6308 177.045 12.3075 177.563 12.0938C178.082 11.8801 178.656 11.7732 179.286 11.7732C179.741 11.7732 180.144 11.848 180.497 11.9976C180.849 12.1472 181.146 12.3556 181.386 12.6228C181.627 12.8899 181.808 13.2132 181.931 13.5925C182.054 13.9719 182.115 14.3886 182.115 14.8428V20.0361H181.482C181.343 20.0361 181.237 20.0148 181.162 19.972C181.087 19.9239 181.028 19.8331 180.985 19.6995L180.825 18.9301C180.611 19.1278 180.403 19.3042 180.2 19.4591C179.997 19.6087 179.783 19.7369 179.559 19.8438C179.334 19.9453 179.094 20.0228 178.838 20.0762C178.586 20.135 178.306 20.1644 177.996 20.1644C177.681 20.1644 177.384 20.1216 177.106 20.0361C176.829 19.9453 176.586 19.8117 176.377 19.6354C176.174 19.4591 176.011 19.2374 175.888 18.9702C175.771 18.6977 175.712 18.3771 175.712 18.0085C175.712 17.6879 175.8 17.3807 175.976 17.0868C176.153 16.7876 176.439 16.5231 176.834 16.2934C177.229 16.0636 177.745 15.8766 178.381 15.7324C179.017 15.5828 179.797 15.4973 180.721 15.4759V14.8428C180.721 14.2123 180.585 13.7368 180.312 13.4162C180.04 13.0903 179.642 12.9273 179.118 12.9273C178.765 12.9273 178.469 12.9727 178.228 13.0636C177.993 13.149 177.788 13.2479 177.611 13.3601C177.44 13.467 177.291 13.5658 177.163 13.6566C177.04 13.7421 176.917 13.7849 176.794 13.7849C176.698 13.7849 176.615 13.7608 176.545 13.7127C176.476 13.6593 176.417 13.5952 176.369 13.5204L176.113 13.0636Z" fill="#A6A6AA"/>
<path d="M187.118 16.069C187.406 16.069 187.66 16.0289 187.879 15.9488C188.098 15.8686 188.282 15.7564 188.432 15.6122C188.582 15.4679 188.694 15.2969 188.769 15.0992C188.843 14.8962 188.881 14.6745 188.881 14.434C188.881 13.9371 188.729 13.5418 188.424 13.2479C188.125 12.954 187.689 12.8071 187.118 12.8071C186.541 12.8071 186.1 12.954 185.795 13.2479C185.496 13.5418 185.346 13.9371 185.346 14.434C185.346 14.6745 185.384 14.8962 185.459 15.0992C185.539 15.2969 185.654 15.4679 185.803 15.6122C185.953 15.7564 186.137 15.8686 186.356 15.9488C186.575 16.0289 186.829 16.069 187.118 16.069ZM189.69 20.4769C189.69 20.2792 189.634 20.119 189.522 19.9961C189.41 19.8732 189.257 19.777 189.065 19.7075C188.878 19.6381 188.659 19.59 188.408 19.5633C188.157 19.5312 187.89 19.5072 187.607 19.4912C187.329 19.4751 187.045 19.4591 186.757 19.4431C186.468 19.427 186.191 19.4003 185.923 19.3629C185.624 19.5018 185.378 19.6782 185.186 19.8919C184.999 20.1003 184.906 20.346 184.906 20.6292C184.906 20.8109 184.951 20.9792 185.042 21.1341C185.138 21.2944 185.282 21.4307 185.475 21.5429C185.667 21.6604 185.907 21.7512 186.196 21.8153C186.49 21.8848 186.834 21.9195 187.23 21.9195C187.615 21.9195 187.959 21.8848 188.264 21.8153C188.568 21.7459 188.825 21.647 189.033 21.5188C189.247 21.3906 189.41 21.2383 189.522 21.062C189.634 20.8857 189.69 20.6907 189.69 20.4769ZM191.141 12.2381V12.767C191.141 12.9433 191.029 13.0555 190.804 13.1036L189.883 13.2239C190.064 13.5765 190.155 13.9665 190.155 14.394C190.155 14.7893 190.078 15.15 189.923 15.4759C189.773 15.7965 189.565 16.0717 189.298 16.3014C189.03 16.5312 188.71 16.7075 188.336 16.8304C187.962 16.9532 187.556 17.0147 187.118 17.0147C186.738 17.0147 186.38 16.9693 186.044 16.8784C185.873 16.9853 185.742 17.1002 185.651 17.2231C185.56 17.3406 185.515 17.4608 185.515 17.5837C185.515 17.7761 185.592 17.923 185.747 18.0245C185.907 18.1207 186.116 18.1901 186.372 18.2329C186.629 18.2756 186.92 18.3023 187.246 18.313C187.577 18.3237 187.914 18.3424 188.256 18.3691C188.603 18.3905 188.94 18.4306 189.265 18.4893C189.597 18.5481 189.891 18.6443 190.147 18.7779C190.404 18.9114 190.609 19.0958 190.764 19.3309C190.924 19.566 191.005 19.8705 191.005 20.2445C191.005 20.5918 190.916 20.9284 190.74 21.2543C190.569 21.5803 190.321 21.8688 189.995 22.1199C189.669 22.3764 189.268 22.5794 188.793 22.729C188.322 22.8839 187.791 22.9614 187.198 22.9614C186.605 22.9614 186.086 22.9026 185.643 22.7851C185.199 22.6676 184.831 22.5099 184.537 22.3122C184.243 22.1146 184.021 21.8848 183.872 21.623C183.728 21.3665 183.655 21.0967 183.655 20.8135C183.655 20.4128 183.781 20.0735 184.032 19.7957C184.283 19.5179 184.628 19.2961 185.066 19.1305C184.825 19.0236 184.633 18.8821 184.489 18.7057C184.35 18.5241 184.281 18.281 184.281 17.9764C184.281 17.8589 184.302 17.7387 184.345 17.6158C184.387 17.4875 184.451 17.362 184.537 17.2391C184.628 17.1109 184.737 16.9906 184.866 16.8784C184.994 16.7662 185.143 16.6674 185.314 16.5819C184.914 16.3575 184.601 16.061 184.377 15.6923C184.152 15.3183 184.04 14.8855 184.04 14.394C184.04 13.9986 184.115 13.6406 184.264 13.32C184.419 12.9941 184.633 12.7189 184.906 12.4945C185.178 12.2648 185.501 12.0885 185.875 11.9656C186.255 11.8427 186.669 11.7812 187.118 11.7812C187.47 11.7812 187.799 11.8213 188.103 11.9015C188.408 11.9763 188.686 12.0885 188.937 12.2381H191.141Z" fill="#A6A6AA"/>
<path d="M193.97 13.5444C194.227 12.9888 194.542 12.556 194.916 12.2461C195.29 11.9309 195.747 11.7732 196.287 11.7732C196.458 11.7732 196.621 11.7919 196.776 11.8293C196.936 11.8667 197.077 11.9255 197.2 12.0057L197.096 13.0716C197.064 13.2052 196.984 13.2719 196.856 13.2719C196.781 13.2719 196.671 13.2559 196.527 13.2239C196.383 13.1918 196.22 13.1758 196.038 13.1758C195.782 13.1758 195.552 13.2132 195.349 13.288C195.151 13.3628 194.972 13.475 194.812 13.6246C194.657 13.7688 194.515 13.9505 194.387 14.1696C194.264 14.3833 194.152 14.6291 194.051 14.9069V20.0361H192.616V11.9175H193.434C193.588 11.9175 193.695 11.9469 193.754 12.0057C193.813 12.0644 193.853 12.1659 193.874 12.3102L193.97 13.5444Z" fill="#A6A6AA"/>
<path d="M203.56 15.0912C203.56 14.76 203.512 14.4581 203.416 14.1856C203.325 13.9078 203.188 13.67 203.007 13.4723C202.83 13.2693 202.614 13.1143 202.358 13.0075C202.101 12.8953 201.81 12.8392 201.484 12.8392C200.8 12.8392 200.258 13.0395 199.857 13.4402C199.462 13.8356 199.216 14.3859 199.12 15.0912H203.56ZM204.714 18.8981C204.538 19.1118 204.327 19.2988 204.081 19.4591C203.835 19.614 203.57 19.7423 203.287 19.8438C203.009 19.9453 202.721 20.0201 202.422 20.0682C202.123 20.1216 201.826 20.1483 201.532 20.1483C200.971 20.1483 200.453 20.0548 199.977 19.8678C199.507 19.6755 199.098 19.3977 198.751 19.0343C198.409 18.6657 198.142 18.2115 197.95 17.6719C197.757 17.1322 197.661 16.5124 197.661 15.8125C197.661 15.2462 197.747 14.7172 197.918 14.2257C198.094 13.7341 198.345 13.3093 198.671 12.9514C198.997 12.588 199.395 12.3049 199.865 12.1018C200.335 11.8935 200.864 11.7893 201.452 11.7893C201.938 11.7893 202.387 11.8721 202.798 12.0377C203.215 12.198 203.573 12.4331 203.872 12.743C204.177 13.0475 204.415 13.4269 204.586 13.881C204.757 14.3298 204.842 14.8428 204.842 15.4198C204.842 15.6442 204.818 15.7938 204.77 15.8686C204.722 15.9434 204.631 15.9808 204.497 15.9808H199.072C199.088 16.4938 199.157 16.9399 199.28 17.3192C199.408 17.6986 199.585 18.0165 199.809 18.273C200.033 18.5241 200.301 18.7138 200.61 18.842C200.92 18.9649 201.268 19.0263 201.652 19.0263C202.01 19.0263 202.318 18.9862 202.574 18.9061C202.836 18.8206 203.06 18.7298 203.247 18.6336C203.434 18.5374 203.589 18.4493 203.712 18.3691C203.84 18.2836 203.95 18.2409 204.041 18.2409C204.158 18.2409 204.249 18.2863 204.313 18.3771L204.714 18.8981Z" fill="#A6A6AA"/>
<path d="M212.028 15.0912C212.028 14.76 211.98 14.4581 211.884 14.1856C211.793 13.9078 211.657 13.67 211.475 13.4723C211.299 13.2693 211.082 13.1143 210.826 13.0075C210.57 12.8953 210.278 12.8392 209.952 12.8392C209.269 12.8392 208.726 13.0395 208.326 13.4402C207.93 13.8356 207.684 14.3859 207.588 15.0912H212.028ZM213.182 18.8981C213.006 19.1118 212.795 19.2988 212.549 19.4591C212.303 19.614 212.039 19.7423 211.756 19.8438C211.478 19.9453 211.189 20.0201 210.89 20.0682C210.591 20.1216 210.294 20.1483 210.001 20.1483C209.44 20.1483 208.921 20.0548 208.446 19.8678C207.976 19.6755 207.567 19.3977 207.22 19.0343C206.878 18.6657 206.61 18.2115 206.418 17.6719C206.226 17.1322 206.13 16.5124 206.13 15.8125C206.13 15.2462 206.215 14.7172 206.386 14.2257C206.562 13.7341 206.813 13.3093 207.139 12.9514C207.465 12.588 207.863 12.3049 208.334 12.1018C208.804 11.8935 209.333 11.7893 209.92 11.7893C210.407 11.7893 210.855 11.8721 211.267 12.0377C211.684 12.198 212.042 12.4331 212.341 12.743C212.645 13.0475 212.883 13.4269 213.054 13.881C213.225 14.3298 213.31 14.8428 213.31 15.4198C213.31 15.6442 213.286 15.7938 213.238 15.8686C213.19 15.9434 213.099 15.9808 212.966 15.9808H207.54C207.556 16.4938 207.626 16.9399 207.748 17.3192C207.877 17.6986 208.053 18.0165 208.277 18.273C208.502 18.5241 208.769 18.7138 209.079 18.842C209.389 18.9649 209.736 19.0263 210.121 19.0263C210.479 19.0263 210.786 18.9862 211.042 18.9061C211.304 18.8206 211.529 18.7298 211.716 18.6336C211.903 18.5374 212.058 18.4493 212.18 18.3691C212.309 18.2836 212.418 18.2409 212.509 18.2409C212.627 18.2409 212.717 18.2863 212.782 18.3771L213.182 18.8981Z" fill="#A6A6AA"/>
<path d="M221.656 20.1644C221.015 20.1644 220.521 19.9854 220.174 19.6274C219.832 19.2694 219.661 18.7538 219.661 18.0806V13.1116H218.683C218.598 13.1116 218.525 13.0876 218.467 13.0395C218.408 12.9861 218.379 12.9059 218.379 12.7991V12.2301L219.709 12.0618L220.038 9.55323C220.054 9.47309 220.088 9.40897 220.142 9.36088C220.2 9.30745 220.275 9.28074 220.366 9.28074H221.087V12.0778H223.436V13.1116H221.087V17.9844C221.087 18.3264 221.17 18.5802 221.336 18.7458C221.501 18.9114 221.715 18.9943 221.977 18.9943C222.127 18.9943 222.255 18.9756 222.362 18.9382C222.474 18.8954 222.57 18.85 222.65 18.8019C222.73 18.7538 222.797 18.7111 222.851 18.6737C222.909 18.6309 222.96 18.6096 223.003 18.6096C223.078 18.6096 223.144 18.655 223.203 18.7458L223.62 19.427C223.374 19.6568 223.078 19.8384 222.73 19.972C222.383 20.1003 222.025 20.1644 221.656 20.1644Z" fill="#A6A6AA"/>
<path d="M228.284 11.7893C228.877 11.7893 229.411 11.8881 229.887 12.0858C230.362 12.2835 230.768 12.564 231.105 12.9273C231.442 13.2906 231.698 13.7314 231.874 14.2497C232.056 14.7626 232.147 15.337 232.147 15.9728C232.147 16.614 232.056 17.191 231.874 17.7039C231.698 18.2169 231.442 18.655 231.105 19.0183C230.768 19.3816 230.362 19.6621 229.887 19.8598C229.411 20.0522 228.877 20.1483 228.284 20.1483C227.685 20.1483 227.146 20.0522 226.665 19.8598C226.189 19.6621 225.783 19.3816 225.447 19.0183C225.11 18.655 224.851 18.2169 224.669 17.7039C224.493 17.191 224.405 16.614 224.405 15.9728C224.405 15.337 224.493 14.7626 224.669 14.2497C224.851 13.7314 225.11 13.2906 225.447 12.9273C225.783 12.564 226.189 12.2835 226.665 12.0858C227.146 11.8881 227.685 11.7893 228.284 11.7893ZM228.284 19.0343C229.085 19.0343 229.684 18.7672 230.079 18.2329C230.474 17.6932 230.672 16.9426 230.672 15.9808C230.672 15.0137 230.474 14.2604 230.079 13.7207C229.684 13.1811 229.085 12.9113 228.284 12.9113C227.878 12.9113 227.522 12.9807 227.218 13.1197C226.919 13.2586 226.668 13.4589 226.465 13.7207C226.267 13.9826 226.117 14.3058 226.016 14.6905C225.92 15.0698 225.872 15.5 225.872 15.9808C225.872 16.9426 226.069 17.6932 226.465 18.2329C226.865 18.7672 227.472 19.0343 228.284 19.0343Z" fill="#A6A6AA"/>
<path d="M240.55 20.1644C239.909 20.1644 239.414 19.9854 239.067 19.6274C238.725 19.2694 238.554 18.7538 238.554 18.0806V13.1116H237.577C237.491 13.1116 237.419 13.0876 237.36 13.0395C237.301 12.9861 237.272 12.9059 237.272 12.7991V12.2301L238.602 12.0618L238.931 9.55323C238.947 9.47309 238.982 9.40897 239.035 9.36088C239.094 9.30745 239.169 9.28074 239.26 9.28074H239.981V12.0778H242.329V13.1116H239.981V17.9844C239.981 18.3264 240.064 18.5802 240.229 18.7458C240.395 18.9114 240.609 18.9943 240.87 18.9943C241.02 18.9943 241.148 18.9756 241.255 18.9382C241.367 18.8954 241.464 18.85 241.544 18.8019C241.624 18.7538 241.691 18.7111 241.744 18.6737C241.803 18.6309 241.854 18.6096 241.896 18.6096C241.971 18.6096 242.038 18.655 242.097 18.7458L242.513 19.427C242.268 19.6568 241.971 19.8384 241.624 19.972C241.277 20.1003 240.919 20.1644 240.55 20.1644Z" fill="#A6A6AA"/>
<path d="M245.237 12.9994C245.584 12.6308 245.969 12.3369 246.391 12.1179C246.813 11.8988 247.299 11.7893 247.849 11.7893C248.293 11.7893 248.683 11.8641 249.02 12.0137C249.361 12.1579 249.645 12.3663 249.869 12.6388C250.099 12.9059 250.272 13.2292 250.39 13.6085C250.508 13.9879 250.566 14.4073 250.566 14.8668V20.0361H249.132V14.8668C249.132 14.2524 248.99 13.7768 248.707 13.4402C248.429 13.0983 248.004 12.9273 247.433 12.9273C247.011 12.9273 246.615 13.0288 246.247 13.2319C245.883 13.4349 245.547 13.7101 245.237 14.0574V20.0361H243.802V8.23085H245.237V12.9994Z" fill="#A6A6AA"/>
<path d="M258.174 15.0912C258.174 14.76 258.126 14.4581 258.03 14.1856C257.939 13.9078 257.803 13.67 257.621 13.4723C257.445 13.2693 257.228 13.1143 256.972 13.0075C256.715 12.8953 256.424 12.8392 256.098 12.8392C255.414 12.8392 254.872 13.0395 254.471 13.4402C254.076 13.8356 253.83 14.3859 253.734 15.0912H258.174ZM259.328 18.8981C259.152 19.1118 258.941 19.2988 258.695 19.4591C258.449 19.614 258.185 19.7423 257.901 19.8438C257.624 19.9453 257.335 20.0201 257.036 20.0682C256.737 20.1216 256.44 20.1483 256.146 20.1483C255.585 20.1483 255.067 20.0548 254.591 19.8678C254.121 19.6755 253.713 19.3977 253.365 19.0343C253.023 18.6657 252.756 18.2115 252.564 17.6719C252.371 17.1322 252.275 16.5124 252.275 15.8125C252.275 15.2462 252.361 14.7172 252.532 14.2257C252.708 13.7341 252.959 13.3093 253.285 12.9514C253.611 12.588 254.009 12.3049 254.479 12.1018C254.949 11.8935 255.478 11.7893 256.066 11.7893C256.552 11.7893 257.001 11.8721 257.413 12.0377C257.829 12.198 258.187 12.4331 258.486 12.743C258.791 13.0475 259.029 13.4269 259.2 13.881C259.371 14.3298 259.456 14.8428 259.456 15.4198C259.456 15.6442 259.432 15.7938 259.384 15.8686C259.336 15.9434 259.245 15.9808 259.112 15.9808H253.686C253.702 16.4938 253.771 16.9399 253.894 17.3192C254.022 17.6986 254.199 18.0165 254.423 18.273C254.648 18.5241 254.915 18.7138 255.225 18.842C255.534 18.9649 255.882 19.0263 256.266 19.0263C256.624 19.0263 256.932 18.9862 257.188 18.9061C257.45 18.8206 257.674 18.7298 257.861 18.6336C258.048 18.5374 258.203 18.4493 258.326 18.3691C258.454 18.2836 258.564 18.2409 258.655 18.2409C258.772 18.2409 258.863 18.2863 258.927 18.3771L259.328 18.8981Z" fill="#A6A6AA"/>
<path d="M273.412 9.85778H269.694V20.0361H268.147V9.85778H264.42V8.55142H273.412V9.85778Z" fill="#A6A6AA"/>
<path d="M278.257 15.0912C278.257 14.76 278.209 14.4581 278.113 14.1856C278.022 13.9078 277.886 13.67 277.704 13.4723C277.528 13.2693 277.311 13.1143 277.055 13.0075C276.798 12.8953 276.507 12.8392 276.181 12.8392C275.497 12.8392 274.955 13.0395 274.554 13.4402C274.159 13.8356 273.913 14.3859 273.817 15.0912H278.257ZM279.411 18.8981C279.235 19.1118 279.024 19.2988 278.778 19.4591C278.532 19.614 278.268 19.7423 277.985 19.8438C277.707 19.9453 277.418 20.0201 277.119 20.0682C276.82 20.1216 276.523 20.1483 276.229 20.1483C275.668 20.1483 275.15 20.0548 274.675 19.8678C274.204 19.6755 273.796 19.3977 273.448 19.0343C273.106 18.6657 272.839 18.2115 272.647 17.6719C272.455 17.1322 272.358 16.5124 272.358 15.8125C272.358 15.2462 272.444 14.7172 272.615 14.2257C272.791 13.7341 273.042 13.3093 273.368 12.9514C273.694 12.588 274.092 12.3049 274.562 12.1018C275.033 11.8935 275.561 11.7893 276.149 11.7893C276.635 11.7893 277.084 11.8721 277.496 12.0377C277.912 12.198 278.27 12.4331 278.57 12.743C278.874 13.0475 279.112 13.4269 279.283 13.881C279.454 14.3298 279.539 14.8428 279.539 15.4198C279.539 15.6442 279.515 15.7938 279.467 15.8686C279.419 15.9434 279.328 15.9808 279.195 15.9808H273.769C273.785 16.4938 273.854 16.9399 273.977 17.3192C274.106 17.6986 274.282 18.0165 274.506 18.273C274.731 18.5241 274.998 18.7138 275.308 18.842C275.618 18.9649 275.965 19.0263 276.35 19.0263C276.708 19.0263 277.015 18.9862 277.271 18.9061C277.533 18.8206 277.757 18.7298 277.944 18.6336C278.131 18.5374 278.286 18.4493 278.409 18.3691C278.538 18.2836 278.647 18.2409 278.738 18.2409C278.855 18.2409 278.946 18.2863 279.01 18.3771L279.411 18.8981Z" fill="#A6A6AA"/>
<path d="M282.646 13.5444C282.903 12.9888 283.218 12.556 283.592 12.2461C283.966 11.9309 284.423 11.7732 284.962 11.7732C285.133 11.7732 285.296 11.7919 285.451 11.8293C285.611 11.8667 285.753 11.9255 285.876 12.0057L285.772 13.0716C285.74 13.2052 285.659 13.2719 285.531 13.2719C285.456 13.2719 285.347 13.2559 285.203 13.2239C285.058 13.1918 284.895 13.1758 284.714 13.1758C284.457 13.1758 284.228 13.2132 284.025 13.288C283.827 13.3628 283.648 13.475 283.488 13.6246C283.333 13.7688 283.191 13.9505 283.063 14.1696C282.94 14.3833 282.828 14.6291 282.726 14.9069V20.0361H281.292V11.9175H282.109C282.264 11.9175 282.371 11.9469 282.43 12.0057C282.488 12.0644 282.529 12.1659 282.55 12.3102L282.646 13.5444Z" fill="#A6A6AA"/>
<path d="M287.13 20.0361V11.9175H287.988C288.191 11.9175 288.316 12.0163 288.364 12.214L288.469 13.0475C288.768 12.6789 289.104 12.377 289.478 12.1419C289.852 11.9068 290.285 11.7893 290.777 11.7893C291.322 11.7893 291.763 11.9415 292.099 12.2461C292.441 12.5506 292.687 12.962 292.837 13.4803C292.954 13.1865 293.104 12.9327 293.285 12.7189C293.472 12.5052 293.681 12.3289 293.91 12.19C294.14 12.0511 294.383 11.9496 294.64 11.8854C294.902 11.8213 295.166 11.7893 295.433 11.7893C295.861 11.7893 296.24 11.8587 296.571 11.9976C296.908 12.1312 297.191 12.3289 297.421 12.5907C297.656 12.8525 297.835 13.1758 297.958 13.5605C298.081 13.9398 298.142 14.3753 298.142 14.8668V20.0361H296.708V14.8668C296.708 14.231 296.569 13.7501 296.291 13.4242C296.013 13.0929 295.612 12.9273 295.089 12.9273C294.854 12.9273 294.629 12.9701 294.415 13.0555C294.207 13.1357 294.023 13.2559 293.862 13.4162C293.702 13.5765 293.574 13.7795 293.478 14.0253C293.387 14.2657 293.341 14.5462 293.341 14.8668V20.0361H291.907V14.8668C291.907 14.215 291.776 13.7288 291.514 13.4082C291.252 13.0876 290.87 12.9273 290.368 12.9273C290.015 12.9273 289.69 13.0235 289.39 13.2158C289.091 13.4028 288.816 13.6593 288.565 13.9852V20.0361H287.13Z" fill="#A6A6AA"/>
<path d="M305.039 13.2559C304.975 13.3735 304.876 13.4322 304.742 13.4322C304.662 13.4322 304.571 13.4028 304.47 13.3441C304.368 13.2853 304.243 13.2212 304.093 13.1517C303.949 13.0769 303.775 13.0101 303.572 12.9514C303.369 12.8872 303.129 12.8552 302.851 12.8552C302.61 12.8552 302.394 12.8872 302.202 12.9514C302.009 13.0101 301.844 13.0929 301.705 13.1998C301.571 13.3067 301.467 13.4322 301.392 13.5765C301.323 13.7154 301.288 13.8677 301.288 14.0333C301.288 14.2417 301.347 14.4153 301.464 14.5543C301.587 14.6932 301.748 14.8134 301.945 14.9149C302.143 15.0164 302.367 15.1072 302.618 15.1874C302.87 15.2622 303.126 15.345 303.388 15.4358C303.655 15.5213 303.914 15.6175 304.165 15.7244C304.416 15.8312 304.641 15.9648 304.838 16.1251C305.036 16.2854 305.194 16.4831 305.311 16.7182C305.434 16.9479 305.496 17.2257 305.496 17.5517C305.496 17.9257 305.429 18.273 305.295 18.5935C305.162 18.9088 304.964 19.1839 304.702 19.419C304.44 19.6488 304.12 19.8304 303.74 19.964C303.361 20.0976 302.923 20.1644 302.426 20.1644C301.86 20.1644 301.347 20.0735 300.887 19.8919C300.428 19.7049 300.038 19.4671 299.717 19.1786L300.054 18.6336C300.097 18.5642 300.147 18.5107 300.206 18.4733C300.265 18.4359 300.34 18.4172 300.43 18.4172C300.527 18.4172 300.628 18.4546 300.735 18.5294C300.842 18.6042 300.97 18.687 301.12 18.7779C301.275 18.8687 301.462 18.9515 301.681 19.0263C301.9 19.1011 302.172 19.1385 302.498 19.1385C302.776 19.1385 303.019 19.1038 303.228 19.0343C303.436 18.9595 303.61 18.8607 303.748 18.7378C303.887 18.6149 303.989 18.4733 304.053 18.313C304.123 18.1527 304.157 17.9818 304.157 17.8001C304.157 17.5757 304.096 17.3914 303.973 17.2471C303.855 17.0975 303.698 16.9719 303.5 16.8704C303.302 16.7636 303.075 16.6727 302.819 16.5979C302.568 16.5178 302.309 16.435 302.041 16.3495C301.78 16.264 301.52 16.1678 301.264 16.061C301.013 15.9488 300.788 15.8098 300.591 15.6442C300.393 15.4786 300.233 15.2756 300.11 15.0351C299.992 14.7893 299.934 14.4928 299.934 14.1455C299.934 13.8356 299.998 13.5391 300.126 13.2559C300.254 12.9674 300.441 12.7163 300.687 12.5026C300.933 12.2835 301.235 12.1098 301.593 11.9816C301.951 11.8534 302.359 11.7893 302.819 11.7893C303.353 11.7893 303.831 11.8748 304.253 12.0457C304.681 12.2114 305.05 12.4411 305.359 12.735L305.039 13.2559Z" fill="#A6A6AA"/>
<path d="M314.768 11.7893C315.361 11.7893 315.895 11.8881 316.371 12.0858C316.846 12.2835 317.252 12.564 317.589 12.9273C317.926 13.2906 318.182 13.7314 318.358 14.2497C318.54 14.7626 318.631 15.337 318.631 15.9728C318.631 16.614 318.54 17.191 318.358 17.7039C318.182 18.2169 317.926 18.655 317.589 19.0183C317.252 19.3816 316.846 19.6621 316.371 19.8598C315.895 20.0522 315.361 20.1483 314.768 20.1483C314.17 20.1483 313.63 20.0522 313.149 19.8598C312.674 19.6621 312.267 19.3816 311.931 19.0183C311.594 18.655 311.335 18.2169 311.153 17.7039C310.977 17.191 310.889 16.614 310.889 15.9728C310.889 15.337 310.977 14.7626 311.153 14.2497C311.335 13.7314 311.594 13.2906 311.931 12.9273C312.267 12.564 312.674 12.2835 313.149 12.0858C313.63 11.8881 314.17 11.7893 314.768 11.7893ZM314.768 19.0343C315.569 19.0343 316.168 18.7672 316.563 18.2329C316.959 17.6932 317.156 16.9426 317.156 15.9808C317.156 15.0137 316.959 14.2604 316.563 13.7207C316.168 13.1811 315.569 12.9113 314.768 12.9113C314.362 12.9113 314.007 12.9807 313.702 13.1197C313.403 13.2586 313.152 13.4589 312.949 13.7207C312.751 13.9826 312.601 14.3058 312.5 14.6905C312.404 15.0698 312.356 15.5 312.356 15.9808C312.356 16.9426 312.553 17.6932 312.949 18.2329C313.349 18.7672 313.956 19.0343 314.768 19.0343Z" fill="#A6A6AA"/>
<path d="M320.797 20.0361V13.1357L319.9 13.0315C319.787 13.0048 319.694 12.9647 319.619 12.9113C319.55 12.8525 319.515 12.7697 319.515 12.6628V12.0778H320.797V11.2924C320.797 10.8275 320.861 10.4161 320.989 10.0581C321.123 9.69482 321.31 9.39027 321.55 9.14449C321.796 8.89337 322.09 8.7037 322.432 8.57547C322.774 8.44724 323.159 8.38312 323.586 8.38312C323.949 8.38312 324.283 8.43655 324.588 8.54341L324.556 9.2567C324.545 9.38493 324.473 9.45439 324.339 9.46507C324.211 9.47576 324.038 9.4811 323.819 9.4811C323.573 9.4811 323.348 9.51316 323.145 9.57727C322.948 9.64139 322.777 9.74558 322.632 9.88984C322.488 10.0341 322.376 10.2238 322.296 10.4589C322.221 10.694 322.184 10.9851 322.184 11.3324V12.0778H324.524V13.1116H322.232V20.0361H320.797Z" fill="#A6A6AA"/>
<path d="M335.903 10.3467C335.855 10.4268 335.801 10.4883 335.742 10.531C335.689 10.5684 335.622 10.5871 335.542 10.5871C335.451 10.5871 335.344 10.5417 335.221 10.4508C335.098 10.36 334.944 10.2612 334.757 10.1543C334.575 10.0421 334.353 9.9406 334.091 9.84977C333.835 9.75893 333.522 9.71352 333.154 9.71352C332.806 9.71352 332.499 9.76161 332.232 9.85778C331.97 9.94861 331.748 10.0742 331.567 10.2345C331.39 10.3947 331.257 10.5844 331.166 10.8035C331.075 11.0172 331.03 11.2496 331.03 11.5007C331.03 11.8213 331.107 12.0885 331.262 12.3022C331.423 12.5106 331.631 12.6896 331.887 12.8392C332.149 12.9888 332.443 13.1197 332.769 13.2319C333.1 13.3387 333.437 13.4509 333.779 13.5685C334.126 13.686 334.463 13.8196 334.789 13.9692C335.12 14.1135 335.414 14.2978 335.67 14.5222C335.932 14.7466 336.14 15.0218 336.295 15.3477C336.456 15.6736 336.536 16.0743 336.536 16.5499C336.536 17.0521 336.45 17.5249 336.279 17.9684C336.108 18.4065 335.857 18.7886 335.526 19.1145C335.2 19.4404 334.797 19.6969 334.316 19.8839C333.84 20.0709 333.298 20.1644 332.689 20.1644C331.941 20.1644 331.262 20.0308 330.653 19.7636C330.044 19.4912 329.523 19.1252 329.09 18.6657L329.539 17.9283C329.582 17.8696 329.633 17.8215 329.691 17.7841C329.756 17.7413 329.825 17.72 329.9 17.72C329.969 17.72 330.047 17.7493 330.132 17.8081C330.223 17.8615 330.325 17.931 330.437 18.0165C330.549 18.102 330.677 18.1955 330.821 18.297C330.966 18.3985 331.129 18.492 331.31 18.5775C331.497 18.663 331.708 18.7351 331.943 18.7939C332.179 18.8473 332.443 18.874 332.737 18.874C333.106 18.874 333.434 18.8233 333.723 18.7218C334.011 18.6203 334.254 18.4787 334.452 18.297C334.655 18.11 334.81 17.8883 334.917 17.6318C335.024 17.3753 335.077 17.0895 335.077 16.7743C335.077 16.427 334.997 16.1438 334.837 15.9247C334.682 15.7003 334.476 15.5133 334.22 15.3637C333.963 15.2141 333.669 15.0885 333.338 14.987C333.007 14.8802 332.67 14.7733 332.328 14.6665C331.986 14.5543 331.65 14.426 331.318 14.2818C330.987 14.1375 330.693 13.9505 330.437 13.7207C330.18 13.491 329.972 13.2052 329.812 12.8632C329.657 12.5159 329.579 12.0885 329.579 11.5809C329.579 11.1748 329.657 10.7821 329.812 10.4028C329.972 10.0234 330.202 9.68681 330.501 9.39294C330.805 9.09908 331.177 8.86399 331.615 8.68767C332.058 8.51135 332.566 8.42319 333.138 8.42319C333.779 8.42319 334.361 8.52471 334.885 8.72774C335.414 8.93077 335.879 9.22464 336.279 9.60933L335.903 10.3467Z" fill="#A6A6AA"/>
<path d="M343.781 15.0912C343.781 14.76 343.733 14.4581 343.637 14.1856C343.546 13.9078 343.41 13.67 343.228 13.4723C343.052 13.2693 342.836 13.1143 342.579 13.0075C342.323 12.8953 342.032 12.8392 341.706 12.8392C341.022 12.8392 340.479 13.0395 340.079 13.4402C339.683 13.8356 339.438 14.3859 339.341 15.0912H343.781ZM344.936 18.8981C344.759 19.1118 344.548 19.2988 344.302 19.4591C344.057 19.614 343.792 19.7423 343.509 19.8438C343.231 19.9453 342.943 20.0201 342.643 20.0682C342.344 20.1216 342.048 20.1483 341.754 20.1483C341.193 20.1483 340.675 20.0548 340.199 19.8678C339.729 19.6755 339.32 19.3977 338.973 19.0343C338.631 18.6657 338.364 18.2115 338.171 17.6719C337.979 17.1322 337.883 16.5124 337.883 15.8125C337.883 15.2462 337.968 14.7172 338.139 14.2257C338.316 13.7341 338.567 13.3093 338.893 12.9514C339.219 12.588 339.617 12.3049 340.087 12.1018C340.557 11.8935 341.086 11.7893 341.674 11.7893C342.16 11.7893 342.609 11.8721 343.02 12.0377C343.437 12.198 343.795 12.4331 344.094 12.743C344.399 13.0475 344.636 13.4269 344.807 13.881C344.978 14.3298 345.064 14.8428 345.064 15.4198C345.064 15.6442 345.04 15.7938 344.992 15.8686C344.944 15.9434 344.853 15.9808 344.719 15.9808H339.293C339.309 16.4938 339.379 16.9399 339.502 17.3192C339.63 17.6986 339.806 18.0165 340.031 18.273C340.255 18.5241 340.522 18.7138 340.832 18.842C341.142 18.9649 341.489 19.0263 341.874 19.0263C342.232 19.0263 342.539 18.9862 342.796 18.9061C343.057 18.8206 343.282 18.7298 343.469 18.6336C343.656 18.5374 343.811 18.4493 343.934 18.3691C344.062 18.2836 344.171 18.2409 344.262 18.2409C344.38 18.2409 344.471 18.2863 344.535 18.3771L344.936 18.8981Z" fill="#A6A6AA"/>
<path d="M348.17 13.5444C348.427 12.9888 348.742 12.556 349.116 12.2461C349.49 11.9309 349.947 11.7732 350.487 11.7732C350.658 11.7732 350.821 11.7919 350.976 11.8293C351.136 11.8667 351.277 11.9255 351.4 12.0057L351.296 13.0716C351.264 13.2052 351.184 13.2719 351.056 13.2719C350.981 13.2719 350.871 13.2559 350.727 13.2239C350.583 13.1918 350.42 13.1758 350.238 13.1758C349.982 13.1758 349.752 13.2132 349.549 13.288C349.351 13.3628 349.172 13.475 349.012 13.6246C348.857 13.7688 348.715 13.9505 348.587 14.1696C348.464 14.3833 348.352 14.6291 348.251 14.9069V20.0361H346.816V11.9175H347.634C347.788 11.9175 347.895 11.9469 347.954 12.0057C348.013 12.0644 348.053 12.1659 348.074 12.3102L348.17 13.5444Z" fill="#A6A6AA"/>
<path d="M359.611 11.9175L356.301 20.0361H355.019L351.709 11.9175H352.871C352.989 11.9175 353.085 11.9469 353.16 12.0057C353.234 12.0644 353.285 12.1339 353.312 12.214L355.372 17.4395C355.436 17.6371 355.492 17.8295 355.54 18.0165C355.588 18.2035 355.633 18.3905 355.676 18.5775C355.719 18.3905 355.764 18.2035 355.812 18.0165C355.86 17.8295 355.919 17.6371 355.989 17.4395L358.072 12.214C358.105 12.1285 358.158 12.0591 358.233 12.0057C358.308 11.9469 358.396 11.9175 358.497 11.9175H359.611Z" fill="#A6A6AA"/>
<path d="M362.426 11.9175V20.0361H361V11.9175H362.426ZM362.731 9.3689C362.731 9.50782 362.701 9.63872 362.643 9.76161C362.589 9.87915 362.514 9.98601 362.418 10.0822C362.327 10.173 362.218 10.2451 362.09 10.2986C361.967 10.352 361.836 10.3787 361.697 10.3787C361.558 10.3787 361.427 10.352 361.304 10.2986C361.187 10.2451 361.083 10.173 360.992 10.0822C360.901 9.98601 360.829 9.87915 360.775 9.76161C360.722 9.63872 360.695 9.50782 360.695 9.3689C360.695 9.22998 360.722 9.09908 360.775 8.97619C360.829 8.84796 360.901 8.73843 360.992 8.6476C361.083 8.55142 361.187 8.47662 361.304 8.42319C361.427 8.36976 361.558 8.34305 361.697 8.34305C361.836 8.34305 361.967 8.36976 362.09 8.42319C362.218 8.47662 362.327 8.55142 362.418 8.6476C362.514 8.73843 362.589 8.84796 362.643 8.97619C362.701 9.09908 362.731 9.22998 362.731 9.3689Z" fill="#A6A6AA"/>
<path d="M370.42 13.3601C370.378 13.4189 370.335 13.4643 370.292 13.4963C370.25 13.5284 370.191 13.5444 370.116 13.5444C370.036 13.5444 369.948 13.5124 369.851 13.4483C369.755 13.3788 369.635 13.304 369.491 13.2239C369.352 13.1437 369.178 13.0716 368.97 13.0075C368.767 12.938 368.516 12.9033 368.217 12.9033C367.816 12.9033 367.463 12.9754 367.159 13.1197C366.854 13.2586 366.598 13.4616 366.389 13.7288C366.186 13.9959 366.031 14.3192 365.924 14.6985C365.823 15.0779 365.772 15.5026 365.772 15.9728C365.772 16.4644 365.828 16.9025 365.94 17.2872C366.053 17.6665 366.21 17.9871 366.413 18.2489C366.622 18.5054 366.87 18.7031 367.159 18.842C367.452 18.9756 367.781 19.0423 368.144 19.0423C368.492 19.0423 368.778 19.0023 369.002 18.9221C369.226 18.8366 369.411 18.7431 369.555 18.6416C369.705 18.5401 369.827 18.4493 369.924 18.3691C370.025 18.2836 370.124 18.2409 370.22 18.2409C370.338 18.2409 370.429 18.2863 370.493 18.3771L370.893 18.8981C370.717 19.1171 370.517 19.3042 370.292 19.4591C370.068 19.614 369.825 19.7449 369.563 19.8518C369.306 19.9533 369.037 20.0281 368.753 20.0762C368.47 20.1243 368.182 20.1483 367.888 20.1483C367.38 20.1483 366.908 20.0548 366.469 19.8678C366.037 19.6808 365.66 19.411 365.339 19.0584C365.019 18.7004 364.768 18.2623 364.586 17.744C364.404 17.2257 364.313 16.6353 364.313 15.9728C364.313 15.3691 364.396 14.8107 364.562 14.2978C364.733 13.7849 364.979 13.3441 365.299 12.9754C365.625 12.6014 366.023 12.3102 366.493 12.1018C366.969 11.8935 367.514 11.7893 368.128 11.7893C368.7 11.7893 369.202 11.8828 369.635 12.0698C370.073 12.2514 370.461 12.5106 370.797 12.8472L370.42 13.3601Z" fill="#A6A6AA"/>
<path d="M377.718 15.0912C377.718 14.76 377.67 14.4581 377.573 14.1856C377.483 13.9078 377.346 13.67 377.165 13.4723C376.988 13.2693 376.772 13.1143 376.515 13.0075C376.259 12.8953 375.968 12.8392 375.642 12.8392C374.958 12.8392 374.416 13.0395 374.015 13.4402C373.62 13.8356 373.374 14.3859 373.278 15.0912H377.718ZM378.872 18.8981C378.695 19.1118 378.484 19.2988 378.239 19.4591C377.993 19.614 377.728 19.7423 377.445 19.8438C377.167 19.9453 376.879 20.0201 376.58 20.0682C376.28 20.1216 375.984 20.1483 375.69 20.1483C375.129 20.1483 374.611 20.0548 374.135 19.8678C373.665 19.6755 373.256 19.3977 372.909 19.0343C372.567 18.6657 372.3 18.2115 372.108 17.6719C371.915 17.1322 371.819 16.5124 371.819 15.8125C371.819 15.2462 371.905 14.7172 372.075 14.2257C372.252 13.7341 372.503 13.3093 372.829 12.9514C373.155 12.588 373.553 12.3049 374.023 12.1018C374.493 11.8935 375.022 11.7893 375.61 11.7893C376.096 11.7893 376.545 11.8721 376.956 12.0377C377.373 12.198 377.731 12.4331 378.03 12.743C378.335 13.0475 378.573 13.4269 378.743 13.881C378.914 14.3298 379 14.8428 379 15.4198C379 15.6442 378.976 15.7938 378.928 15.8686C378.88 15.9434 378.789 15.9808 378.655 15.9808H373.23C373.246 16.4938 373.315 16.9399 373.438 17.3192C373.566 17.6986 373.743 18.0165 373.967 18.273C374.191 18.5241 374.458 18.7138 374.768 18.842C375.078 18.9649 375.426 19.0263 375.81 19.0263C376.168 19.0263 376.475 18.9862 376.732 18.9061C376.994 18.8206 377.218 18.7298 377.405 18.6336C377.592 18.5374 377.747 18.4493 377.87 18.3691C377.998 18.2836 378.108 18.2409 378.199 18.2409C378.316 18.2409 378.407 18.2863 378.471 18.3771L378.872 18.8981Z" fill="#A6A6AA"/>
<path d="M45.6023 40.4249C44.9451 40.4463 44.3841 40.4997 43.9192 40.5852C43.4597 40.6654 43.083 40.7722 42.7892 40.9058C42.5007 41.0394 42.2896 41.197 42.156 41.3786C42.0278 41.5603 41.9637 41.7633 41.9637 41.9877C41.9637 42.2014 41.9984 42.3858 42.0679 42.5407C42.1373 42.6957 42.2308 42.8239 42.3484 42.9254C42.4713 43.0216 42.6129 43.0937 42.7731 43.1418C42.9388 43.1846 43.1151 43.2059 43.3021 43.2059C43.5532 43.2059 43.783 43.1819 43.9913 43.1338C44.1997 43.0804 44.3947 43.0056 44.5764 42.9094C44.7634 42.8132 44.9397 42.6983 45.1054 42.5648C45.2763 42.4312 45.442 42.2789 45.6023 42.108V40.4249ZM40.9939 37.1069C41.4427 36.6742 41.9263 36.3509 42.4446 36.1372C42.9628 35.9235 43.5372 35.8166 44.1677 35.8166C44.6218 35.8166 45.0252 35.8914 45.3778 36.041C45.7305 36.1906 46.027 36.399 46.2675 36.6661C46.5079 36.9333 46.6895 37.2565 46.8124 37.6359C46.9353 38.0152 46.9968 38.432 46.9968 38.8861V44.0795H46.3636C46.2247 44.0795 46.1178 44.0581 46.043 44.0154C45.9682 43.9673 45.9095 43.8765 45.8667 43.7429L45.7064 42.9735C45.4927 43.1712 45.2843 43.3475 45.0813 43.5025C44.8783 43.6521 44.6646 43.7803 44.4402 43.8872C44.2158 43.9887 43.9753 44.0661 43.7189 44.1196C43.4677 44.1784 43.1872 44.2077 42.8773 44.2077C42.5621 44.2077 42.2656 44.165 41.9877 44.0795C41.7099 43.9887 41.4668 43.8551 41.2584 43.6788C41.0554 43.5025 40.8924 43.2807 40.7695 43.0136C40.652 42.7411 40.5932 42.4205 40.5932 42.0518C40.5932 41.7313 40.6814 41.4241 40.8577 41.1302C41.034 40.831 41.3199 40.5665 41.7152 40.3368C42.1106 40.107 42.6262 39.92 43.262 39.7757C43.8978 39.6261 44.6779 39.5406 45.6023 39.5193V38.8861C45.6023 38.2557 45.466 37.7801 45.1935 37.4596C44.921 37.1336 44.523 36.9707 43.9994 36.9707C43.6467 36.9707 43.3502 37.0161 43.1098 37.1069C42.8747 37.1924 42.669 37.2913 42.4926 37.4035C42.3217 37.5103 42.1721 37.6092 42.0438 37.7C41.9209 37.7855 41.7981 37.8282 41.6752 37.8282C41.579 37.8282 41.4962 37.8042 41.4267 37.7561C41.3573 37.7027 41.2985 37.6386 41.2504 37.5638L40.9939 37.1069Z" fill="#A6A6AA"/>
<path d="M50.5162 37.139C50.6926 36.9413 50.8796 36.7623 51.0773 36.602C51.2749 36.4417 51.4833 36.3055 51.7024 36.1933C51.9268 36.0757 52.1619 35.9876 52.4077 35.9288C52.6588 35.8647 52.9286 35.8326 53.2171 35.8326C53.6606 35.8326 54.0506 35.9074 54.3872 36.057C54.7292 36.2013 55.0124 36.4097 55.2368 36.6822C55.4665 36.9493 55.6402 37.2726 55.7577 37.6519C55.8752 38.0313 55.934 38.4507 55.934 38.9102V44.0795H54.4994V38.9102C54.4994 38.2957 54.3578 37.8202 54.0747 37.4836C53.7968 37.1417 53.3721 36.9707 52.8004 36.9707C52.3783 36.9707 51.9829 37.0722 51.6142 37.2752C51.2509 37.4783 50.9143 37.7534 50.6044 38.1007V44.0795H49.1698V35.9609H50.0274C50.2304 35.9609 50.356 36.0597 50.404 36.2574L50.5162 37.139Z" fill="#A6A6AA"/>
<path d="M63.3973 37.8923C63.1302 37.5344 62.8417 37.2859 62.5318 37.147C62.2219 37.0027 61.8746 36.9306 61.4899 36.9306C60.7366 36.9306 60.1568 37.2004 59.7508 37.7401C59.3447 38.2797 59.1417 39.0491 59.1417 40.0482C59.1417 40.5772 59.1871 41.0313 59.2779 41.4107C59.3688 41.7847 59.5023 42.0946 59.6786 42.3404C59.855 42.5808 60.0714 42.7571 60.3278 42.8693C60.5843 42.9815 60.8755 43.0376 61.2014 43.0376C61.6716 43.0376 62.0803 42.9308 62.4276 42.717C62.7802 42.5033 63.1035 42.2014 63.3973 41.8114V37.8923ZM64.8239 32.2742V44.0795H63.9744C63.7714 44.0795 63.6431 43.9807 63.5897 43.783L63.4615 42.7972C63.1142 43.2139 62.7188 43.5506 62.2753 43.807C61.8319 44.0635 61.3189 44.1917 60.7365 44.1917C60.2717 44.1917 59.8496 44.1035 59.4703 43.9272C59.0909 43.7456 58.7677 43.4811 58.5005 43.1338C58.2334 42.7865 58.0277 42.3537 57.8834 41.8355C57.7391 41.3172 57.667 40.7214 57.667 40.0482C57.667 39.4498 57.7472 38.8942 57.9074 38.3812C58.0677 37.863 58.2975 37.4141 58.5967 37.0348C58.8959 36.6554 59.2619 36.3589 59.6947 36.1452C60.1328 35.9261 60.6243 35.8166 61.1693 35.8166C61.6662 35.8166 62.091 35.9021 62.4436 36.0731C62.8016 36.2387 63.1195 36.4711 63.3973 36.7703V32.2742H64.8239Z" fill="#A6A6AA"/>
<path d="M74.905 38.5495C75.3484 38.5495 75.7385 38.4908 76.0751 38.3732C76.417 38.2557 76.7029 38.0927 76.9326 37.8843C77.1677 37.6706 77.344 37.4168 77.4616 37.123C77.5791 36.8291 77.6379 36.5058 77.6379 36.1532C77.6379 35.4212 77.4108 34.8495 76.9567 34.4381C76.5079 34.0267 75.824 33.821 74.905 33.821H73.0617V38.5495H74.905ZM74.905 32.5948C75.6316 32.5948 76.2621 32.6803 76.7964 32.8513C77.336 33.0169 77.7822 33.2546 78.1348 33.5645C78.4874 33.8744 78.7492 34.2484 78.9202 34.6866C79.0965 35.1247 79.1847 35.6136 79.1847 36.1532C79.1847 36.6875 79.0912 37.1764 78.9042 37.6199C78.7172 38.0633 78.442 38.4453 78.0787 38.7659C77.7207 39.0865 77.2746 39.3376 76.7403 39.5193C76.2113 39.6956 75.5996 39.7838 74.905 39.7838H73.0617V44.0795H71.5149V32.5948H74.905Z" fill="#A6A6AA"/>
<path d="M82.0029 37.5878C82.2594 37.0321 82.5746 36.5993 82.9486 36.2895C83.3226 35.9742 83.7794 35.8166 84.3191 35.8166C84.4901 35.8166 84.653 35.8353 84.808 35.8727C84.9683 35.9101 85.1098 35.9689 85.2327 36.049L85.1285 37.1149C85.0965 37.2485 85.0163 37.3153 84.8881 37.3153C84.8133 37.3153 84.7038 37.2993 84.5595 37.2672C84.4153 37.2352 84.2523 37.2191 84.0706 37.2191C83.8142 37.2191 83.5844 37.2565 83.3814 37.3313C83.1837 37.4061 83.0047 37.5183 82.8444 37.6679C82.6895 37.8122 82.5479 37.9939 82.4197 38.2129C82.2968 38.4266 82.1846 38.6724 82.083 38.9503V44.0795H80.6485V35.9609H81.4659C81.6209 35.9609 81.7277 35.9902 81.7865 36.049C81.8453 36.1078 81.8854 36.2093 81.9067 36.3536L82.0029 37.5878Z" fill="#A6A6AA"/>
<path d="M87.9938 35.9609V44.0795H86.5673V35.9609H87.9938ZM88.2984 33.4123C88.2984 33.5512 88.269 33.6821 88.2102 33.805C88.1568 33.9225 88.082 34.0294 87.9858 34.1256C87.895 34.2164 87.7855 34.2885 87.6572 34.3419C87.5343 34.3954 87.4034 34.4221 87.2645 34.4221C87.1256 34.4221 86.9947 34.3954 86.8718 34.3419C86.7543 34.2885 86.6501 34.2164 86.5592 34.1256C86.4684 34.0294 86.3963 33.9225 86.3429 33.805C86.2894 33.6821 86.2627 33.5512 86.2627 33.4123C86.2627 33.2733 86.2894 33.1424 86.3429 33.0196C86.3963 32.8913 86.4684 32.7818 86.5592 32.691C86.6501 32.5948 86.7543 32.52 86.8718 32.4666C86.9947 32.4131 87.1256 32.3864 87.2645 32.3864C87.4034 32.3864 87.5343 32.4131 87.6572 32.4666C87.7855 32.52 87.895 32.5948 87.9858 32.691C88.082 32.7818 88.1568 32.8913 88.2102 33.0196C88.269 33.1424 88.2984 33.2733 88.2984 33.4123Z" fill="#A6A6AA"/>
<path d="M97.2944 35.9609L93.9844 44.0795H92.7021L89.3921 35.9609H90.5542C90.6718 35.9609 90.7679 35.9902 90.8427 36.049C90.9175 36.1078 90.9683 36.1773 90.995 36.2574L93.0547 41.4828C93.1188 41.6805 93.1749 41.8729 93.223 42.0599C93.2711 42.2469 93.3165 42.4339 93.3593 42.6209C93.402 42.4339 93.4474 42.2469 93.4955 42.0599C93.5436 41.8729 93.6024 41.6805 93.6718 41.4828L95.7556 36.2574C95.7876 36.1719 95.8411 36.1025 95.9159 36.049C95.9907 35.9902 96.0788 35.9609 96.1804 35.9609H97.2944Z" fill="#A6A6AA"/>
<path d="M102.83 40.4249C102.173 40.4463 101.612 40.4997 101.147 40.5852C100.688 40.6654 100.311 40.7722 100.017 40.9058C99.7289 41.0394 99.5178 41.197 99.3843 41.3786C99.256 41.5603 99.1919 41.7633 99.1919 41.9877C99.1919 42.2014 99.2266 42.3858 99.2961 42.5407C99.3656 42.6957 99.4591 42.8239 99.5766 42.9254C99.6995 43.0216 99.8411 43.0937 100.001 43.1418C100.167 43.1846 100.343 43.2059 100.53 43.2059C100.781 43.2059 101.011 43.1819 101.22 43.1338C101.428 43.0804 101.623 43.0056 101.805 42.9094C101.992 42.8132 102.168 42.6983 102.334 42.5648C102.505 42.4312 102.67 42.2789 102.83 42.108V40.4249ZM98.2222 37.1069C98.671 36.6742 99.1545 36.3509 99.6728 36.1372C100.191 35.9235 100.765 35.8166 101.396 35.8166C101.85 35.8166 102.253 35.8914 102.606 36.041C102.959 36.1906 103.255 36.399 103.496 36.6661C103.736 36.9333 103.918 37.2565 104.041 37.6359C104.164 38.0152 104.225 38.432 104.225 38.8861V44.0795H103.592C103.453 44.0795 103.346 44.0581 103.271 44.0154C103.196 43.9673 103.138 43.8765 103.095 43.7429L102.935 42.9735C102.721 43.1712 102.513 43.3475 102.31 43.5025C102.106 43.6521 101.893 43.7803 101.668 43.8872C101.444 43.9887 101.204 44.0661 100.947 44.1196C100.696 44.1784 100.415 44.2077 100.106 44.2077C99.7903 44.2077 99.4938 44.165 99.216 44.0795C98.9381 43.9887 98.695 43.8551 98.4866 43.6788C98.2836 43.5025 98.1206 43.2807 97.9978 43.0136C97.8802 42.7411 97.8214 42.4205 97.8214 42.0518C97.8214 41.7313 97.9096 41.4241 98.0859 41.1302C98.2622 40.831 98.5481 40.5665 98.9435 40.3368C99.3388 40.107 99.8544 39.92 100.49 39.7757C101.126 39.6261 101.906 39.5406 102.83 39.5193V38.8861C102.83 38.2557 102.694 37.7801 102.422 37.4596C102.149 37.1336 101.751 36.9707 101.228 36.9707C100.875 36.9707 100.578 37.0161 100.338 37.1069C100.103 37.1924 99.8972 37.2913 99.7209 37.4035C99.5499 37.5103 99.4003 37.6092 99.2721 37.7C99.1492 37.7855 99.0263 37.8282 98.9034 37.8282C98.8072 37.8282 98.7244 37.8042 98.6549 37.7561C98.5855 37.7027 98.5267 37.6386 98.4786 37.5638L98.2222 37.1069Z" fill="#A6A6AA"/>
<path d="M112.048 37.4035C112.005 37.4622 111.963 37.5077 111.92 37.5397C111.877 37.5718 111.818 37.5878 111.744 37.5878C111.664 37.5878 111.575 37.5557 111.479 37.4916C111.383 37.4222 111.263 37.3474 111.119 37.2672C110.98 37.1871 110.806 37.1149 110.598 37.0508C110.395 36.9814 110.143 36.9466 109.844 36.9466C109.444 36.9466 109.091 37.0188 108.786 37.163C108.482 37.3019 108.225 37.505 108.017 37.7721C107.814 38.0393 107.659 38.3625 107.552 38.7419C107.451 39.1212 107.4 39.546 107.4 40.0162C107.4 40.5077 107.456 40.9459 107.568 41.3305C107.68 41.7099 107.838 42.0305 108.041 42.2923C108.249 42.5487 108.498 42.7464 108.786 42.8853C109.08 43.0189 109.409 43.0857 109.772 43.0857C110.119 43.0857 110.405 43.0456 110.63 42.9655C110.854 42.88 111.038 42.7865 111.183 42.685C111.332 42.5835 111.455 42.4926 111.551 42.4125C111.653 42.327 111.752 42.2843 111.848 42.2843C111.965 42.2843 112.056 42.3297 112.12 42.4205L112.521 42.9415C112.345 43.1605 112.144 43.3475 111.92 43.5025C111.696 43.6574 111.452 43.7883 111.191 43.8952C110.934 43.9967 110.664 44.0715 110.381 44.1196C110.098 44.1677 109.81 44.1917 109.516 44.1917C109.008 44.1917 108.535 44.0982 108.097 43.9112C107.664 43.7242 107.288 43.4544 106.967 43.1017C106.646 42.7438 106.395 42.3056 106.214 41.7874C106.032 41.2691 105.941 40.6787 105.941 40.0162C105.941 39.4124 106.024 38.8541 106.19 38.3412C106.361 37.8282 106.606 37.3874 106.927 37.0188C107.253 36.6448 107.651 36.3536 108.121 36.1452C108.597 35.9368 109.142 35.8326 109.756 35.8326C110.328 35.8326 110.83 35.9261 111.263 36.1131C111.701 36.2948 112.088 36.5539 112.425 36.8905L112.048 37.4035Z" fill="#A6A6AA"/>
<path d="M121.057 35.9609L116.529 46.4758C116.481 46.5827 116.419 46.6682 116.345 46.7323C116.275 46.7964 116.166 46.8285 116.016 46.8285H114.958L116.441 43.6067L113.091 35.9609H114.325C114.448 35.9609 114.544 35.9929 114.613 36.057C114.688 36.1158 114.739 36.1826 114.766 36.2574L116.938 41.3706C117.023 41.595 117.095 41.8301 117.154 42.0759C117.229 41.8248 117.309 41.587 117.394 41.3626L119.502 36.2574C119.534 36.1719 119.588 36.1025 119.663 36.049C119.743 35.9902 119.831 35.9609 119.927 35.9609H121.057Z" fill="#A6A6AA"/>
<path d="M129.754 38.5495C130.197 38.5495 130.587 38.4908 130.924 38.3732C131.266 38.2557 131.552 38.0927 131.782 37.8843C132.017 37.6706 132.193 37.4168 132.311 37.123C132.428 36.8291 132.487 36.5058 132.487 36.1532C132.487 35.4212 132.26 34.8495 131.806 34.4381C131.357 34.0267 130.673 33.821 129.754 33.821H127.911V38.5495H129.754ZM129.754 32.5948C130.481 32.5948 131.111 32.6803 131.645 32.8513C132.185 33.0169 132.631 33.2546 132.984 33.5645C133.336 33.8744 133.598 34.2484 133.769 34.6866C133.945 35.1247 134.034 35.6136 134.034 36.1532C134.034 36.6875 133.94 37.1764 133.753 37.6199C133.566 38.0633 133.291 38.4453 132.928 38.7659C132.57 39.0865 132.124 39.3376 131.589 39.5193C131.06 39.6956 130.448 39.7838 129.754 39.7838H127.911V44.0795H126.364V32.5948H129.754Z" fill="#A6A6AA"/>
<path d="M138.653 35.8326C139.247 35.8326 139.781 35.9315 140.256 36.1292C140.732 36.3269 141.138 36.6074 141.475 36.9707C141.811 37.334 142.068 37.7748 142.244 38.2931C142.426 38.806 142.516 39.3804 142.516 40.0162C142.516 40.6573 142.426 41.2344 142.244 41.7473C142.068 42.2602 141.811 42.6983 141.475 43.0617C141.138 43.425 140.732 43.7055 140.256 43.9032C139.781 44.0955 139.247 44.1917 138.653 44.1917C138.055 44.1917 137.515 44.0955 137.035 43.9032C136.559 43.7055 136.153 43.425 135.816 43.0617C135.48 42.6983 135.221 42.2602 135.039 41.7473C134.863 41.2344 134.774 40.6573 134.774 40.0162C134.774 39.3804 134.863 38.806 135.039 38.2931C135.221 37.7748 135.48 37.334 135.816 36.9707C136.153 36.6074 136.559 36.3269 137.035 36.1292C137.515 35.9315 138.055 35.8326 138.653 35.8326ZM138.653 43.0777C139.455 43.0777 140.053 42.8106 140.449 42.2763C140.844 41.7366 141.042 40.9859 141.042 40.0242C141.042 39.0571 140.844 38.3038 140.449 37.7641C140.053 37.2245 139.455 36.9547 138.653 36.9547C138.247 36.9547 137.892 37.0241 137.588 37.163C137.288 37.3019 137.037 37.5023 136.834 37.7641C136.636 38.0259 136.487 38.3492 136.385 38.7339C136.289 39.1132 136.241 39.5433 136.241 40.0242C136.241 40.9859 136.439 41.7366 136.834 42.2763C137.235 42.8106 137.841 43.0777 138.653 43.0777Z" fill="#A6A6AA"/>
<path d="M145.8 32.2742V44.0795H144.374V32.2742H145.8Z" fill="#A6A6AA"/>
<path d="M149.621 35.9609V44.0795H148.194V35.9609H149.621ZM149.925 33.4123C149.925 33.5512 149.896 33.6821 149.837 33.805C149.784 33.9225 149.709 34.0294 149.613 34.1256C149.522 34.2164 149.412 34.2885 149.284 34.3419C149.161 34.3954 149.03 34.4221 148.891 34.4221C148.752 34.4221 148.621 34.3954 148.499 34.3419C148.381 34.2885 148.277 34.2164 148.186 34.1256C148.095 34.0294 148.023 33.9225 147.97 33.805C147.916 33.6821 147.89 33.5512 147.89 33.4123C147.89 33.2733 147.916 33.1424 147.97 33.0196C148.023 32.8913 148.095 32.7818 148.186 32.691C148.277 32.5948 148.381 32.52 148.499 32.4666C148.621 32.4131 148.752 32.3864 148.891 32.3864C149.03 32.3864 149.161 32.4131 149.284 32.4666C149.412 32.52 149.522 32.5948 149.613 32.691C149.709 32.7818 149.784 32.8913 149.837 33.0196C149.896 33.1424 149.925 33.2733 149.925 33.4123Z" fill="#A6A6AA"/>
<path d="M157.615 37.4035C157.572 37.4622 157.529 37.5077 157.487 37.5397C157.444 37.5718 157.385 37.5878 157.31 37.5878C157.23 37.5878 157.142 37.5557 157.046 37.4916C156.95 37.4222 156.829 37.3474 156.685 37.2672C156.546 37.1871 156.373 37.1149 156.164 37.0508C155.961 36.9814 155.71 36.9466 155.411 36.9466C155.01 36.9466 154.657 37.0188 154.353 37.163C154.048 37.3019 153.792 37.505 153.584 37.7721C153.38 38.0393 153.226 38.3625 153.119 38.7419C153.017 39.1212 152.966 39.546 152.966 40.0162C152.966 40.5077 153.023 40.9459 153.135 41.3305C153.247 41.7099 153.405 42.0305 153.608 42.2923C153.816 42.5487 154.064 42.7464 154.353 42.8853C154.647 43.0189 154.975 43.0857 155.339 43.0857C155.686 43.0857 155.972 43.0456 156.196 42.9655C156.421 42.88 156.605 42.7865 156.749 42.685C156.899 42.5835 157.022 42.4926 157.118 42.4125C157.219 42.327 157.318 42.2843 157.414 42.2843C157.532 42.2843 157.623 42.3297 157.687 42.4205L158.088 42.9415C157.911 43.1605 157.711 43.3475 157.487 43.5025C157.262 43.6574 157.019 43.7883 156.757 43.8952C156.501 43.9967 156.231 44.0715 155.948 44.1196C155.665 44.1677 155.376 44.1917 155.082 44.1917C154.575 44.1917 154.102 44.0982 153.664 43.9112C153.231 43.7242 152.854 43.4544 152.534 43.1017C152.213 42.7438 151.962 42.3056 151.78 41.7874C151.599 41.2691 151.508 40.6787 151.508 40.0162C151.508 39.4124 151.591 38.8541 151.756 38.3412C151.927 37.8282 152.173 37.3874 152.494 37.0188C152.819 36.6448 153.218 36.3536 153.688 36.1452C154.163 35.9368 154.708 35.8326 155.323 35.8326C155.894 35.8326 156.397 35.9261 156.829 36.1131C157.267 36.2948 157.655 36.5539 157.991 36.8905L157.615 37.4035Z" fill="#A6A6AA"/>
<path d="M166.624 35.9609L162.095 46.4758C162.047 46.5827 161.986 46.6682 161.911 46.7323C161.842 46.7964 161.732 46.8285 161.583 46.8285H160.525L162.007 43.6067L158.657 35.9609H159.892C160.014 35.9609 160.111 35.9929 160.18 36.057C160.255 36.1158 160.306 36.1826 160.332 36.2574L162.504 41.3706C162.59 41.595 162.662 41.8301 162.721 42.0759C162.795 41.8248 162.876 41.587 162.961 41.3626L165.069 36.2574C165.101 36.1719 165.154 36.1025 165.229 36.049C165.309 35.9902 165.397 35.9609 165.494 35.9609H166.624Z" fill="#A6A6AA"/>
<path d="M167.644 43.1979C167.644 43.059 167.668 42.9281 167.716 42.8052C167.769 42.6823 167.839 42.5755 167.924 42.4846C168.015 42.3938 168.122 42.3217 168.245 42.2682C168.367 42.2148 168.498 42.1881 168.637 42.1881C168.776 42.1881 168.907 42.2148 169.03 42.2682C169.153 42.3217 169.26 42.3938 169.351 42.4846C169.441 42.5755 169.514 42.6823 169.567 42.8052C169.62 42.9281 169.647 43.059 169.647 43.1979C169.647 43.3422 169.62 43.4758 169.567 43.5986C169.514 43.7162 169.441 43.8204 169.351 43.9112C169.26 44.002 169.153 44.0715 169.03 44.1196C168.907 44.173 168.776 44.1997 168.637 44.1997C168.498 44.1997 168.367 44.173 168.245 44.1196C168.122 44.0715 168.015 44.002 167.924 43.9112C167.839 43.8204 167.769 43.7162 167.716 43.5986C167.668 43.4758 167.644 43.3422 167.644 43.1979Z" fill="#A6A6AA"/>
</svg>
