<svg width="15" height="15" viewBox="0 0 15 15" fill="none" xmlns="http://www.w3.org/2000/svg">
<path fill-rule="evenodd" clip-rule="evenodd" d="M10.9633 12.0239C9.80851 12.9476 8.34376 13.5 6.75 13.5C3.02208 13.5 0 10.4779 0 6.75C0 3.02208 3.02208 0 6.75 0C10.4779 0 13.5 3.02208 13.5 6.75C13.5 8.34376 12.9476 9.80851 12.0239 10.9633L14.7803 13.7197C15.0732 14.0126 15.0732 14.4874 14.7803 14.7803C14.4874 15.0732 14.0126 15.0732 13.7197 14.7803L10.9633 12.0239ZM1.5 6.75C1.5 3.8505 3.85051 1.5 6.75 1.5C9.6495 1.5 12 3.8505 12 6.75C12 8.16445 11.4406 9.44826 10.5311 10.3923C10.5054 10.412 10.4807 10.4337 10.4572 10.4572C10.4337 10.4807 10.412 10.5054 10.3923 10.5311C9.44826 11.4406 8.16445 12 6.75 12C3.85051 12 1.5 9.6495 1.5 6.75Z" fill="#3A3A3A"/>
</svg>
