<svg width="10" height="10" viewBox="0 0 10 10" fill="none" xmlns="http://www.w3.org/2000/svg">
<g clip-path="url(#clip0_20401_5924)">
<path d="M8.33333 3.75H4.58333C4.1231 3.75 3.75 4.1231 3.75 4.58333V8.33333C3.75 8.79357 4.1231 9.16667 4.58333 9.16667H8.33333C8.79357 9.16667 9.16667 8.79357 9.16667 8.33333V4.58333C9.16667 4.1231 8.79357 3.75 8.33333 3.75Z" stroke="#A6A6AA" stroke-width="2" stroke-linecap="round" stroke-linejoin="round"/>
<path d="M2.0835 6.24998H1.66683C1.44582 6.24998 1.23385 6.16218 1.07757 6.0059C0.921293 5.84962 0.833496 5.63766 0.833496 5.41665V1.66665C0.833496 1.44563 0.921293 1.23367 1.07757 1.07739C1.23385 0.92111 1.44582 0.833313 1.66683 0.833313H5.41683C5.63784 0.833313 5.8498 0.92111 6.00608 1.07739C6.16237 1.23367 6.25016 1.44563 6.25016 1.66665V2.08331" stroke="#A6A6AA" stroke-width="2" stroke-linecap="round" stroke-linejoin="round"/>
</g>
<defs>
<clipPath id="clip0_20401_5924">
<rect width="10" height="10" fill="white"/>
</clipPath>
</defs>
</svg>
