<svg width="18" height="17" viewBox="0 0 18 17" fill="none" xmlns="http://www.w3.org/2000/svg">
<path d="M13 2.5H15C15.5304 2.5 16.0391 2.65804 16.4142 2.93934C16.7893 3.22064 17 3.60218 17 4V14.5C17 14.8978 16.7893 15.2794 16.4142 15.5607C16.0391 15.842 15.5304 16 15 16H3C2.46957 16 1.96086 15.842 1.58579 15.5607C1.21071 15.2794 1 14.8978 1 14.5V4C1 3.60218 1.21071 3.22064 1.58579 2.93934C1.96086 2.65804 2.46957 2.5 3 2.5H5" stroke="#A6A6AA" stroke-width="2" stroke-linecap="round" stroke-linejoin="round"/>
<path d="M12 1H6C5.44772 1 5 1.33579 5 1.75V3.25C5 3.66421 5.44772 4 6 4H12C12.5523 4 13 3.66421 13 3.25V1.75C13 1.33579 12.5523 1 12 1Z" stroke="#A6A6AA" stroke-width="2" stroke-linecap="round" stroke-linejoin="round"/>
<path d="M13 8.5L7.5 12.25L5 10.5455" stroke="#A6A6AA" stroke-width="2" stroke-linecap="round" stroke-linejoin="round"/>
</svg>
