<svg width="21" height="21" viewBox="0 0 21 21" fill="none" xmlns="http://www.w3.org/2000/svg">
<path d="M12.9828 4.01381C13.9629 4.20504 14.8637 4.68438 15.5698 5.39049C16.2759 6.09659 16.7552 6.99734 16.9464 7.97745L12.9828 4.01381ZM12.9828 0C15.0191 0.226215 16.9179 1.13809 18.3676 2.58591C19.8172 4.03372 20.7315 5.93142 20.9602 7.96742L12.9828 0ZM19.9568 15.975V18.9853C19.9579 19.2648 19.9007 19.5414 19.7887 19.7975C19.6768 20.0535 19.5126 20.2834 19.3066 20.4723C19.1007 20.6612 18.8576 20.8051 18.5928 20.8946C18.3281 20.9841 18.0476 21.0174 17.7693 20.9922C14.6815 20.6567 11.7154 19.6016 9.10946 17.9116C6.68495 16.371 4.62938 14.3154 3.08875 11.8909C1.39289 9.27312 0.337521 6.29265 0.00814474 3.19098C-0.0169311 2.91349 0.0160468 2.63382 0.104978 2.36978C0.19391 2.10573 0.336847 1.8631 0.524688 1.65732C0.71253 1.45155 0.94116 1.28714 1.19602 1.17456C1.45089 1.06199 1.7264 1.00372 2.00502 1.00345H5.01538C5.50236 0.99866 5.97447 1.17111 6.34371 1.48866C6.71295 1.8062 6.95412 2.24718 7.02228 2.72939C7.14934 3.69277 7.38498 4.63869 7.7247 5.5491C7.85971 5.90826 7.88893 6.29859 7.8089 6.67385C7.72886 7.0491 7.54294 7.39355 7.27314 7.66638L5.99876 8.94077C7.42723 11.453 9.50729 13.533 12.0195 14.9615L13.2939 13.6871C13.5667 13.4173 13.9111 13.2314 14.2864 13.1514C14.6617 13.0713 15.052 13.1005 15.4111 13.2355C16.3216 13.5753 17.2675 13.8109 18.2309 13.938C18.7183 14.0067 19.1635 14.2523 19.4817 14.6278C19.7999 15.0034 19.969 15.4829 19.9568 15.975Z" fill="#28A745"/>
</svg>
