<svg width="20" height="20" viewBox="0 0 20 20" fill="none" xmlns="http://www.w3.org/2000/svg">
<path d="M17 6H8C6.89543 6 6 6.89543 6 8V17C6 18.1046 6.89543 19 8 19H17C18.1046 19 19 18.1046 19 17V8C19 6.89543 18.1046 6 17 6Z" fill="#28A745" stroke="#28A745" stroke-opacity="0.5" stroke-width="2" stroke-linecap="round" stroke-linejoin="round"/>
<path d="M4 14H3C2.46957 14 1.96086 13.7893 1.58579 13.4142C1.21071 13.0391 1 12.5304 1 12V3C1 2.46957 1.21071 1.96086 1.58579 1.58579C1.96086 1.21071 2.46957 1 3 1H12C12.5304 1 13.0391 1.21071 13.4142 1.58579C13.7893 1.96086 14 2.46957 14 3V4" stroke="#28A745" stroke-width="2" stroke-linecap="round" stroke-linejoin="round"/>
</svg>
