<svg width="42" height="110" viewBox="0 0 42 110" fill="none" xmlns="http://www.w3.org/2000/svg">
<g opacity="0.25">
<path d="M21.0968 103.929C30.507 103.929 38.1473 105.289 38.1473 106.964C38.1473 108.64 30.507 110 21.0968 110C11.6867 110 4.04633 108.64 4.04633 106.964C4.04633 105.289 11.6867 103.929 21.0968 103.929Z" fill="#363636"/>
</g>
<path d="M15.7264 0.0481999C15.7264 0.0481999 19.1915 40.5284 19.1441 39.9739C19.0966 39.4193 15.7264 0.0481999 15.7264 0.0481999Z" stroke="#C7302B"/>
<path d="M18.9542 37.7564C30.4144 36.6371 40.5701 45.6676 41.6179 57.9092C42.6658 70.1509 34.2118 80.999 22.7515 82.1183C11.2913 83.2376 1.13562 74.2071 0.0877392 61.9655C-0.960141 49.7238 7.49391 38.8758 18.9542 37.7564Z" fill="#C7302B"/>
<path d="M16.6948 59.6763C16.7637 60.4816 15.9308 61.2223 14.8359 61.3292L12.5739 61.5501C11.4791 61.6571 10.5342 61.09 10.4653 60.2847C10.3963 59.4794 11.2293 58.7387 12.3241 58.6317L14.5861 58.4108C15.681 58.3039 16.6259 58.8709 16.6948 59.6763Z" fill="#2A2A2A"/>
<path d="M27.0804 58.6988C27.151 59.5233 26.3194 60.2795 25.2245 60.3865L22.9625 60.6074C21.8677 60.7143 20.9215 60.1317 20.8509 59.3072C20.7803 58.4827 21.6119 57.7265 22.7067 57.6195L24.9688 57.3986C26.0636 57.2917 27.0098 57.8743 27.0804 58.6988Z" fill="#2A2A2A"/>
<path d="M14.9181 67.9221C14.9181 67.9221 18.1859 64.1156 23.2781 67.1056" stroke="white" stroke-linecap="round"/>
<path d="M15.6153 78.8806C13.2593 82.646 14.8382 90.1001 8.54746 90.1767" stroke="#C7302B" stroke-linecap="round"/>
<path d="M6.00277 86.8634L8.62865 90.3603" stroke="#C7302B" stroke-linecap="round"/>
<path d="M29.4949 77.6677C27.0936 81.4003 22.0973 84.1888 22.2911 88.8654" stroke="#C7302B" stroke-linecap="round"/>
<path d="M24.162 92.8396L22.2468 88.8508" stroke="#C7302B" stroke-linecap="round"/>
<path d="M27.0056 60.4045L27.068 61.3468L27.0056 60.4045Z" fill="#363636"/>
<path d="M27.0056 60.4045L27.068 61.3468" stroke="black" stroke-linecap="round"/>
<path d="M11.3551 61.6962L11.3958 61.6988" stroke="black" stroke-linecap="round"/>
</svg>
