<svg width="18" height="32" viewBox="0 0 18 32" fill="none" xmlns="http://www.w3.org/2000/svg">
<path fill-rule="evenodd" clip-rule="evenodd" d="M0.97595 13.2247C1.51495 13.2247 1.9519 13.7023 1.9519 14.2915C1.9519 14.327 1.95032 14.3621 1.94722 14.3966V17.3339H1.94215V17.3425C1.94215 17.3518 1.94242 17.3611 1.94284 17.3704C1.94314 17.377 1.94352 17.3837 1.94393 17.3904L1.9447 17.4026C1.94586 17.4209 1.94703 17.4393 1.94722 17.4577V17.8588H1.96557C2.25566 21.6527 5.09612 24.6098 8.57703 24.7416H8.97132C12.4533 24.6119 15.2954 21.654 15.5843 17.8588H15.6078V14.3043L15.6153 14.3042L15.6152 14.2915C15.6152 13.7023 16.0522 13.2247 16.5912 13.2247C17.1302 13.2247 17.5671 13.7023 17.5671 14.2915C17.5671 14.3223 17.5659 14.3528 17.5636 14.383V17.0011H17.5519H17.5515C17.5545 21.9018 14.2035 26.0303 9.75169 26.6106V29.8536H13.4291V29.8673C13.442 29.8667 13.455 29.8664 13.4681 29.8664C14.0071 29.8664 14.444 30.3441 14.444 30.9332C14.444 31.5224 14.0071 32 13.4681 32C13.455 32 13.442 31.9997 13.4291 31.9992V32H4.13412V31.9993C4.12246 31.9998 4.11075 32 4.09899 32C3.55998 32 3.12304 31.5224 3.12304 30.9332C3.12304 30.3441 3.55998 29.8664 4.09899 29.8664C4.10518 29.8664 4.11136 29.8665 4.11752 29.8666C4.12307 29.8667 4.1286 29.8669 4.13412 29.8671V29.8536H7.81931V26.6106C3.35797 26.0439 -0.00542525 21.9105 7.82865e-06 17.0011C7.82865e-06 16.9756 0.00197282 16.9513 0.00389084 16.9276L0.00390258 16.9274C0.00473242 16.9172 0.00555442 16.907 0.00620029 16.8969C0.00680309 16.8875 0.00725324 16.8782 0.00742547 16.8688V14.4237C0.00252474 14.3804 0 14.3363 0 14.2915C0 13.7023 0.436948 13.2247 0.97595 13.2247ZM14.0459 15.2047C14.0459 15.849 14.0459 16.5275 14.0146 17.1718C13.9907 17.7528 13.9095 18.3294 13.7726 18.8914C13.4671 20.0712 12.8156 21.1086 11.9183 21.8443C10.0778 23.4316 7.48147 23.4316 5.64098 21.8443C4.74133 21.1109 4.08906 20.0726 3.7859 18.8914C3.64836 18.3295 3.56733 17.7529 3.54426 17.1718C3.51029 16.5275 3.51342 15.849 3.51342 15.2047V9.81103C3.51342 9.17096 3.51654 6.34186 3.51342 5.86395C3.52884 5.2794 3.62087 4.70029 3.78668 4.1443C4.41165 1.69452 6.45332 0 8.78003 0C11.1067 0 13.1484 1.69452 13.7734 4.1443C13.9201 4.70527 14.0117 5.28174 14.0466 5.86395C14.0818 6.50828 14.0466 9.17096 14.0466 9.81103V15.2047H14.0459ZM12.094 16.2117C12.094 16.6213 12.0861 16.7579 12.0627 17.1675C12.0493 17.5395 11.9982 17.9087 11.9105 18.2684C11.7235 19.0237 11.3165 19.6918 10.751 20.1716C9.59247 21.1559 7.97069 21.1559 6.81211 20.1716C6.24448 19.6932 5.83586 19.0247 5.64878 18.2684C5.56295 17.9083 5.51193 17.5393 5.49653 17.1675C5.47701 16.7579 5.47311 16.6213 5.47311 16.2117C5.47311 10.5364 5.44969 6.32905 5.48092 5.87673C5.5035 5.5046 5.55973 5.13583 5.64878 4.77582C5.83586 4.01952 6.24448 3.35104 6.81211 2.87268C7.97069 1.88839 9.59247 1.88839 10.751 2.87268C11.3165 3.35245 11.7235 4.02055 11.9105 4.77582C12.0096 5.13418 12.0725 5.50336 12.0979 5.87673C12.1252 6.36318 12.094 10.5194 12.094 16.2117Z" fill="#50555C"/>
</svg>
