<svg width="154" height="201" viewBox="0 0 154 201" fill="none" xmlns="http://www.w3.org/2000/svg">
<path d="M108.559 122.843C119.728 128.299 126.639 135.831 126.639 144.144C126.639 160.779 98.9656 174.285 64.8817 174.285C50.4806 174.285 37.2233 171.874 26.7151 167.834" stroke="#FFAFA4" stroke-opacity="0.64" stroke-width="2" stroke-linecap="round" stroke-linejoin="round" stroke-dasharray="26.88 26.88"/>
<g filter="url(#filter0_f_19961_3664)">
<path d="M108.559 122.843C119.728 128.299 126.639 135.831 126.639 144.144C126.639 160.779 98.9656 174.285 64.8817 174.285C50.4806 174.285 37.2233 171.874 26.7151 167.834" stroke="#FFAFA4" stroke-opacity="0.64" stroke-width="2" stroke-linecap="round" stroke-linejoin="round" stroke-dasharray="26.88 26.88"/>
</g>
<path d="M38.4534 161.572C28.1771 157.71 21.5508 151.645 21.5508 144.832C21.5508 133.178 40.9387 123.715 64.8177 123.715C72.9914 123.715 80.6388 124.824 87.1627 126.75" stroke="#FFAFA4" stroke-opacity="0.64" stroke-width="2" stroke-linecap="round" stroke-linejoin="round" stroke-dasharray="18.83 18.83"/>
<g filter="url(#filter1_f_19961_3664)">
<path d="M38.4534 161.572C28.1771 157.71 21.5508 151.645 21.5508 144.832C21.5508 133.178 40.9387 123.715 64.8177 123.715C72.9914 123.715 80.6388 124.824 87.1627 126.75" stroke="#FFAFA4" stroke-opacity="0.64" stroke-width="2" stroke-linecap="round" stroke-linejoin="round" stroke-dasharray="18.83 18.83"/>
</g>
<path d="M72.2223 133.354C72.2223 144.484 63.9887 153.219 63.9887 153.219C63.9887 153.219 55.7551 144.484 55.7551 133.354C55.7551 128.209 59.4412 124.039 63.9887 124.039C68.5356 124.039 72.2223 128.209 72.2223 133.354Z" fill="#FFC805"/>
<path d="M83.8353 98.851L101.558 107.321V96.5995C101.558 95.0966 101.24 93.7758 100.627 92.7293L92.9719 79.6656C91.3241 76.854 87.7584 76.3552 83.8353 78.387V98.851Z" fill="#35BB78"/>
<path d="M43.7566 98.851L26.0341 107.321V96.5995C26.0341 95.0966 26.3519 93.7758 26.9651 92.7293L34.62 79.6656C36.2675 76.854 39.8335 76.3552 43.7566 78.387V98.851Z" fill="#35BB78"/>
<path d="M72.2342 120.598H55.3568V122.734H55.3598C55.3592 122.754 55.3568 122.774 55.3568 122.794C55.3568 125.229 59.1347 127.203 63.7952 127.203C68.4559 127.203 72.2342 125.229 72.2342 122.794C72.2342 122.774 72.2315 122.754 72.2312 122.734H72.2342V120.598Z" fill="#35BB78"/>
<path d="M83.9511 101.662H43.6406V112.407H43.6478C43.6466 112.455 43.6406 112.503 43.6406 112.552C43.6406 118.367 52.6647 123.081 63.7959 123.081C74.9274 123.081 83.9511 118.367 83.9511 112.552C83.9511 112.503 83.9451 112.455 83.9442 112.407H83.9511V101.662Z" fill="#35BB78"/>
<path d="M95.3088 68.0281C97.351 52.7035 93.3947 37.1141 83.6243 24.4108C83.2143 23.8773 82.7959 23.3487 82.3694 22.8247L63.7958 0L45.2219 22.8247C44.7952 23.3487 44.3771 23.8773 43.9668 24.4108C34.1964 37.1141 30.2401 52.7035 32.2826 68.0281L37.0259 103.616H37.0355C37.0337 103.681 37.0259 103.745 37.0259 103.809C37.0259 111.533 49.0112 117.794 63.7958 117.794C78.5804 117.794 90.5651 111.533 90.5651 103.809C90.5651 103.745 90.5577 103.681 90.5556 103.616H90.5651L95.3088 68.0281Z" fill="#E0FFF0"/>
<path d="M59.7625 61.6524C58.8171 40.4916 60.1357 19.0353 63.6581 0.168843L45.2215 22.8247C44.795 23.3487 44.3767 23.8776 43.9667 24.4107C34.1963 37.1141 30.2403 52.7035 32.2824 68.0284L37.0258 103.617H37.0354C37.0336 103.681 37.0258 103.745 37.0258 103.81C37.0258 111.265 48.1947 117.356 62.2683 117.77L59.7625 61.6524Z" fill="#E0FFF0"/>
<path d="M59.7411 77.4825C59.7411 80.8018 58.4641 83.153 56.3884 84.291C56.3259 84.3253 54.3938 85.425 54.3301 85.4572C52.1703 86.5404 53.5514 84.0821 50.2714 82.3833C43.6699 78.9642 38.3185 70.684 38.3185 63.8886C38.3185 60.5283 34.8557 60.5012 36.9766 59.3793C37.0358 59.3479 39.3842 58.1897 39.4443 58.1602C41.5984 57.1137 44.542 57.3065 47.7881 58.9879C54.3896 62.407 59.7411 70.6872 59.7411 77.4825Z" fill="#35BB78"/>
<path d="M57.3823 78.7347C57.3823 85.5301 52.0308 88.2673 45.4296 84.8482C38.8278 81.4293 33.4763 73.1486 33.4763 66.3532C33.4763 59.5577 38.8278 56.8207 45.4296 60.2398C52.0308 63.659 57.3823 71.9394 57.3823 78.7347Z" fill="#35BB78"/>
<path d="M55.1354 77.5709C55.1354 83.0891 50.7897 85.3115 45.429 82.5353C40.0686 79.7589 35.7226 73.035 35.7226 67.5167C35.7226 61.9985 40.0686 59.7759 45.429 62.5523C50.7897 65.3287 55.1354 72.0529 55.1354 77.5709Z" fill="#00FFE2"/>
<path d="M47.3383 81.8172C41.9776 79.0408 37.6316 72.3166 37.6316 66.7986C37.6316 64.255 38.5567 62.4138 40.0775 61.4374C37.4539 61.867 35.7226 64.0351 35.7226 67.5168C35.7226 73.035 40.0683 79.7589 45.429 82.5354C48.3184 84.0321 50.9118 84.0737 52.6898 82.9322C51.1554 83.1834 49.3165 82.8417 47.3383 81.8172Z" fill="#35BB78"/>
<path d="M45.7799 59.9679C42.6154 58.3292 39.3409 58.4387 37.8245 59.0819C39.8176 58.5818 42.6352 58.8841 45.3142 60.2718C51.9157 63.6909 57.2672 71.9711 57.2672 78.7667C57.2672 82.3047 55.4701 84.81 53.1478 85.8519C55.5844 85.0436 57.7328 82.5004 57.7328 78.4628C57.7328 71.6674 52.3814 63.387 45.7799 59.9679Z" fill="#E04820"/>
<path d="M43.9531 113.549L29.8466 137.781L26.9934 136.271V126.01C26.9934 124.572 27.2974 122.994 27.8843 121.384L35.2097 101.295C36.7865 96.9711 40.1988 92.9589 43.9531 91.0145L46.694 92.5012L43.9531 113.549Z" fill="#35BB78"/>
<path d="M46.8067 115.059L29.8473 137.781V127.521C29.8473 126.083 30.1514 124.504 30.7379 122.895L38.0637 102.805C39.6402 98.4816 43.0524 94.4692 46.8067 92.5247V115.059Z" fill="#35BB78"/>
<path d="M30.0967 127.8C30.0967 126.362 30.4007 124.784 30.9876 123.174L38.313 103.085C39.8195 98.9537 43.0025 95.1117 46.5575 93.0813V92.4695C42.8035 94.4137 39.3913 98.4256 37.8144 102.749L30.4887 122.839C29.9021 124.448 29.5981 126.027 29.5981 127.465V137.725L30.0967 137.057V127.8Z" fill="#E04820"/>
<path d="M83.6398 113.549L97.7459 137.781L100.599 136.27V126.01C100.599 124.572 100.295 122.994 99.7082 121.384L92.3828 101.295C90.806 96.971 87.3938 92.9588 83.6398 91.0146L80.8985 92.5013L83.6398 113.549Z" fill="#35BB78"/>
<path d="M80.7858 115.059L97.7452 137.781V127.521C97.7452 126.083 97.4412 124.504 96.8543 122.895L89.5289 102.805C87.9521 98.4814 84.5398 94.4695 80.7858 92.5253V115.059Z" fill="#35BB78"/>
<path d="M97.2282 122.895L89.9024 102.805C88.3262 98.4816 84.914 94.4695 81.1597 92.5253V92.6549C84.5561 94.7374 87.5634 98.4486 89.0148 102.428L96.3402 122.517C96.9268 124.127 97.2312 125.705 97.2312 127.144V136.591L98.1191 137.781V127.521C98.1191 126.083 97.815 124.504 97.2282 122.895Z" fill="#E04820"/>
<path d="M82.3696 22.8247L63.7957 0L45.2218 22.8247C45.1176 22.9527 45.0195 23.0835 44.9171 23.2118C48.1303 26.9899 55.3717 29.6259 63.7957 29.6259C72.2197 29.6259 79.461 26.9899 82.6749 23.2118C82.5719 23.0835 82.4737 22.9527 82.3696 22.8247Z" fill="#35BB78"/>
<path d="M45.2173 22.8306C45.1152 22.9567 45.0183 23.0856 44.9171 23.2118C47.6458 26.4199 53.2831 28.7977 60.0779 29.4441C60.7384 19.2903 61.9322 9.41764 63.6589 0.168843L45.2221 22.8247C45.2203 22.8265 45.2188 22.8287 45.2173 22.8306Z" fill="#35BB78"/>
<defs>
<filter id="filter0_f_19961_3664" x="-9.92655e-05" y="96.1282" width="153.354" height="104.872" filterUnits="userSpaceOnUse" color-interpolation-filters="sRGB">
<feFlood flood-opacity="0" result="BackgroundImageFix"/>
<feBlend mode="normal" in="SourceGraphic" in2="BackgroundImageFix" result="shape"/>
<feGaussianBlur stdDeviation="12.8462" result="effect1_foregroundBlur_19961_3664"/>
</filter>
<filter id="filter1_f_19961_3664" x="2.53484" y="104.699" width="103.644" height="75.8892" filterUnits="userSpaceOnUse" color-interpolation-filters="sRGB">
<feFlood flood-opacity="0" result="BackgroundImageFix"/>
<feBlend mode="normal" in="SourceGraphic" in2="BackgroundImageFix" result="shape"/>
<feGaussianBlur stdDeviation="9" result="effect1_foregroundBlur_19961_3664"/>
</filter>
</defs>
</svg>
