<svg width="26" height="20" viewBox="0 0 26 20" fill="none" xmlns="http://www.w3.org/2000/svg">
<path d="M0 6.66676V2.66667C0 1.2 1.2 0 2.66667 0H22.6667C24.1333 0 25.3333 1.2 25.3333 2.66667L25.3333 6.66656H17.3333C16.6 6.66656 16 6.06657 16 5.33323C16 4.5999 16.6 3.9999 17.3333 3.9999H18V2.66656H17.3333C15.8667 2.66656 14.6667 3.86656 14.6667 5.33323C14.6667 6.7999 15.8667 7.9999 17.3333 7.9999H19.3333V11.9999H17.3333C15.4667 11.9999 14 13.4666 14 15.3332C14 17.1999 15.4667 18.6666 17.3333 18.6666H18.6667V17.3332H17.3333C16.2 17.3332 15.3333 16.4666 15.3333 15.3332C15.3333 14.1999 16.2 13.3332 17.3333 13.3332H25.3333L25.3333 17.3333C25.3333 18.8 24.1333 20 22.6667 20H2.66667C1.2 20 0 18.8 0 17.3333V13.3334H8C9.13333 13.3334 10 14.2001 10 15.3334C10 16.4668 9.13333 17.3334 8 17.3334H6.66667V18.6668H8C9.86667 18.6668 11.3333 17.2001 11.3333 15.3334C11.3333 13.4668 9.86667 12.0001 8 12.0001H6V8.0001H8C9.46667 8.0001 10.6667 6.8001 10.6667 5.33343C10.6667 3.86676 9.46667 2.66676 8 2.66676H6V4.00009H8C8.73333 4.00009 9.33333 4.60009 9.33333 5.33343C9.33333 6.06676 8.73333 6.66676 8 6.66676H0Z" fill="#F8F7FA"/>
<path d="M0 8.0001V12.0001H4.66667V8.0001H0Z" fill="#F8F7FA"/>
<path d="M20.6667 7.9999H25.3333V11.9999H20.6667V7.9999Z" fill="#F8F7FA"/>
</svg>
