<svg width="34" height="28" viewBox="0 0 34 28" fill="none" xmlns="http://www.w3.org/2000/svg">
<path d="M33 24.1111C33 24.8773 32.6935 25.6121 32.1479 26.1539C31.6024 26.6956 30.8624 27 30.0909 27H3.90909C3.13755 27 2.39761 26.6956 1.85205 26.1539C1.30649 25.6121 1 24.8773 1 24.1111V8.22222C1 7.45604 1.30649 6.72124 1.85205 6.17947C2.39761 5.6377 3.13755 5.33333 3.90909 5.33333H9.72727L12.6364 1H21.3636L24.2727 5.33333H30.0909C30.8624 5.33333 31.6024 5.6377 32.1479 6.17947C32.6935 6.72124 33 7.45604 33 8.22222V24.1111Z" stroke="#3A3A3A" stroke-width="2" stroke-linecap="round" stroke-linejoin="round"/>
<path d="M17.0003 21.2216C20.2136 21.2216 22.8185 18.6348 22.8185 15.4438C22.8185 12.2528 20.2136 9.66602 17.0003 9.66602C13.787 9.66602 11.1821 12.2528 11.1821 15.4438C11.1821 18.6348 13.787 21.2216 17.0003 21.2216Z" stroke="#3A3A3A" stroke-width="2" stroke-linecap="round" stroke-linejoin="round"/>
</svg>
