<svg width="22" height="21" viewBox="0 0 22 21" fill="none" xmlns="http://www.w3.org/2000/svg">
<path d="M21.1378 13.327H16.2471V18.3819C16.2471 18.4838 16.2471 18.5772 16.2471 18.6748C16.2471 18.7597 16.2471 18.8403 16.244 18.9252C16.2419 19.1072 16.2275 19.2888 16.2009 19.4685C16.1721 19.6469 16.1197 19.8199 16.0456 19.982C15.9697 20.1439 15.8706 20.2915 15.752 20.4192C15.6329 20.5468 15.4969 20.6541 15.3485 20.7375C15.1983 20.8174 15.0388 20.8745 14.8744 20.9073C14.7095 20.9355 14.543 20.9511 14.3762 20.954C14.2985 20.954 14.2232 20.9582 14.1471 20.9582H7.85571C7.77804 20.9582 7.70309 20.954 7.62659 20.954C7.45972 20.9511 7.29324 20.9355 7.12836 20.9073C6.9641 20.8745 6.80471 20.8174 6.6546 20.7375C6.50627 20.6541 6.37026 20.5468 6.25113 20.4192C6.13247 20.2916 6.03334 20.144 5.95755 19.982C5.88343 19.8199 5.83111 19.6469 5.80221 19.4685C5.7755 19.2888 5.76096 19.1072 5.75872 18.9252C5.75872 18.8403 5.75562 18.7597 5.75562 18.6748C5.75562 18.5772 5.75562 18.4838 5.75562 18.3819V13.327H0.787701C0.285201 13.327 -0.359428 12.1429 0.244038 11.485C0.757023 10.929 8.81954 2.14336 10.5068 0.314076C10.6308 0.147541 10.806 0.0359225 10.9996 0H11.0128C11.1804 0.00993127 11.336 0.0980405 11.44 0.241923C13.1273 2.0712 21.2174 10.929 21.7308 11.485C22.3346 12.1429 21.829 13.327 21.1378 13.327Z" fill="black"/>
</svg>
