<svg width="24" height="14" viewBox="0 0 24 14" fill="none" xmlns="http://www.w3.org/2000/svg">
<path fill-rule="evenodd" clip-rule="evenodd" d="M21.9377 0H20.5766C19.8249 0 19.2155 0.587619 19.2155 1.31248V12.6874C19.2155 13.4122 19.8249 13.9998 20.5766 13.9998H21.9377C22.6894 13.9998 23.2988 13.4122 23.2988 12.6874V1.31248C23.2988 0.587619 22.6894 0 21.9377 0ZM14.1714 3.06262H15.5325C16.2842 3.06262 16.8936 3.65024 16.8936 4.37511V12.6875C16.8936 13.4124 16.2842 14 15.5325 14H14.1714C13.4197 14 12.8103 13.4124 12.8103 12.6875V4.37511C12.8103 3.65024 13.4197 3.06262 14.1714 3.06262ZM9.12736 6.12484H7.76626C7.01455 6.12484 6.40516 6.71246 6.40516 7.43733V12.6873C6.40516 13.4121 7.01455 13.9998 7.76626 13.9998H9.12736C9.87907 13.9998 10.4885 13.4121 10.4885 12.6873V7.43733C10.4885 6.71246 9.87907 6.12484 9.12736 6.12484ZM2.72219 8.74976H1.3611C0.609383 8.74976 0 9.33738 0 10.0622V12.6872C0 13.4121 0.609383 13.9997 1.3611 13.9997H2.72219C3.4739 13.9997 4.08329 13.4121 4.08329 12.6872V10.0622C4.08329 9.33738 3.4739 8.74976 2.72219 8.74976Z" fill="black"/>
</svg>
