<svg width="110" height="126" viewBox="0 0 110 126" fill="none" xmlns="http://www.w3.org/2000/svg">
<path d="M72.9839 69.742C79.2839 72.8391 83.1823 77.1153 83.1823 81.835C83.1823 91.2793 67.5724 98.9474 48.3467 98.9474C40.2234 98.9474 32.7454 97.5784 26.818 95.2849" stroke="#FFAFA4" stroke-opacity="0.64" stroke-width="2" stroke-linecap="round" stroke-linejoin="round" stroke-dasharray="26.88 26.88"/>
<g filter="url(#filter0_f_20358_6525)">
<path d="M72.9839 69.742C79.2839 72.8391 83.1823 77.1153 83.1823 81.835C83.1823 91.2793 67.5724 98.9474 48.3467 98.9474C40.2234 98.9474 32.7454 97.5784 26.818 95.2849" stroke="#FFAFA4" stroke-opacity="0.64" stroke-width="2" stroke-linecap="round" stroke-linejoin="round" stroke-dasharray="26.88 26.88"/>
</g>
<path d="M33.4392 91.7313C27.6427 89.5385 23.9049 86.0955 23.9049 82.2273C23.9049 75.6107 34.8411 70.2385 48.3106 70.2385C52.9211 70.2385 57.2348 70.868 60.9147 71.9613" stroke="#FFAFA4" stroke-opacity="0.64" stroke-width="2" stroke-linecap="round" stroke-linejoin="round" stroke-dasharray="18.83 18.83"/>
<g filter="url(#filter1_f_20358_6525)">
<path d="M33.4392 91.7313C27.6427 89.5385 23.9049 86.0955 23.9049 82.2273C23.9049 75.6107 34.8411 70.2385 48.3106 70.2385C52.9211 70.2385 57.2348 70.868 60.9147 71.9613" stroke="#FFAFA4" stroke-opacity="0.64" stroke-width="2" stroke-linecap="round" stroke-linejoin="round" stroke-dasharray="18.83 18.83"/>
</g>
<path d="M52.4872 75.7096C52.4872 82.0287 47.8428 86.9878 47.8428 86.9878C47.8428 86.9878 43.1985 82.0287 43.1985 75.7096C43.1985 72.7887 45.2777 70.421 47.8428 70.421C50.4077 70.421 52.4872 72.7887 52.4872 75.7096Z" fill="#FFC805"/>
<path d="M59.0377 56.1215L69.0344 60.9301V54.8432C69.0344 53.9899 68.8552 53.24 68.5093 52.6459L64.1914 45.2292C63.2619 43.6329 61.2506 43.3497 59.0377 44.5032V56.1215Z" fill="#35BB78"/>
<path d="M36.4306 56.1215L26.4339 60.9301V54.8432C26.4339 53.9899 26.6131 53.24 26.959 52.6459L31.2769 45.2292C32.2062 43.6329 34.2177 43.3497 36.4306 44.5032V56.1215Z" fill="#35BB78"/>
<path d="M52.4941 68.4675H42.9741V69.6801H42.9758C42.9754 69.6915 42.9741 69.703 42.9741 69.7147C42.9741 71.0968 45.1051 72.2175 47.7339 72.2175C50.3629 72.2175 52.4941 71.0968 52.4941 69.7147C52.4941 69.703 52.4926 69.6915 52.4924 69.6801H52.4941V68.4675Z" fill="#35BB78"/>
<path d="M59.103 57.717H36.365V63.8171H36.3691C36.3684 63.8446 36.365 63.8719 36.365 63.8995C36.365 67.2009 41.4553 69.8771 47.734 69.8771C54.013 69.8771 59.103 67.2009 59.103 63.8995C59.103 63.8719 59.0996 63.8446 59.0991 63.8171H59.103V57.717Z" fill="#35BB78"/>
<path d="M65.5098 38.6222C66.6617 29.9218 64.4301 21.0711 58.9189 13.8589C58.6876 13.5561 58.4516 13.256 58.2111 12.9584L47.7342 0L37.2572 12.9584C37.0165 13.256 36.7807 13.5561 36.5493 13.8589C31.038 21.0711 28.8064 29.9218 29.9585 38.6222L32.6341 58.8269H32.6395C32.6385 58.8637 32.6341 58.8999 32.6341 58.9365C32.6341 63.3215 39.3947 66.876 47.7342 66.876C56.0738 66.876 62.834 63.3215 62.834 58.9365C62.834 58.8999 62.8298 58.8637 62.8286 58.8269H62.834L65.5098 38.6222Z" fill="#E0FFF0"/>
<path d="M45.4592 35.0027C44.9259 22.9889 45.6697 10.8074 47.6565 0.0961526L37.257 12.9587C37.0165 13.2562 36.7805 13.5565 36.5492 13.8592C31.038 21.0714 28.8065 29.9221 29.9585 38.6226L32.6341 58.8274H32.6395C32.6384 58.8639 32.6341 58.9004 32.6341 58.937C32.6341 63.1697 38.9341 66.6279 46.8726 66.8626L45.4592 35.0027Z" fill="#E0FFF0"/>
<path d="M45.4471 43.9889C45.4471 45.8734 44.7268 47.2082 43.556 47.8543C43.5207 47.8738 42.4309 48.4981 42.3949 48.5164C41.1766 49.1314 41.9557 47.7357 40.1056 46.7713C36.3818 44.8301 33.3632 40.1291 33.3632 36.2711C33.3632 34.3633 31.41 34.3479 32.6063 33.711C32.6397 33.6932 33.9644 33.0356 33.9983 33.0189C35.2134 32.4248 36.8737 32.5342 38.7048 33.4888C42.4285 35.4299 45.4471 40.1309 45.4471 43.9889Z" fill="#35BB78"/>
<path d="M44.1164 44.7003C44.1164 48.5583 41.0977 50.1123 37.3742 48.1712C33.6503 46.2301 30.6317 41.5289 30.6317 37.6709C30.6317 33.8128 33.6503 32.2589 37.3742 34.2001C41.0977 36.1412 44.1164 40.8424 44.1164 44.7003Z" fill="#35BB78"/>
<path d="M42.849 44.0403C42.849 47.1732 40.3978 48.4349 37.3739 46.8587C34.3503 45.2825 31.8989 41.465 31.8989 38.3321C31.8989 35.1992 34.3503 33.9373 37.3739 35.5136C40.3978 37.0899 42.849 40.9075 42.849 44.0403Z" fill="#00FFE2"/>
<path d="M38.4509 46.4512C35.4271 44.8749 32.9757 41.0573 32.9757 37.9246C32.9757 36.4804 33.4975 35.4352 34.3553 34.8808C32.8754 35.1247 31.8989 36.3556 31.8989 38.3323C31.8989 41.4652 34.3501 45.2826 37.3739 46.8589C39.0038 47.7086 40.4667 47.7323 41.4695 47.0842C40.6041 47.2268 39.5667 47.0328 38.4509 46.4512Z" fill="#35BB78"/>
<path d="M37.572 34.0461C35.787 33.1158 33.9399 33.178 33.0846 33.5432C34.2088 33.2592 35.7981 33.4308 37.3093 34.2187C41.033 36.1598 44.0516 40.8608 44.0516 44.7189C44.0516 46.7276 43.0379 48.15 41.728 48.7415C43.1024 48.2826 44.3143 46.8387 44.3143 44.5464C44.3143 40.6884 41.2957 35.9873 37.572 34.0461Z" fill="#E04820"/>
<path d="M36.5417 64.466L28.5846 78.2234L26.9752 77.3658V71.5407C26.9752 70.7242 27.1467 69.828 27.4777 68.9143L31.6098 57.5088C32.4993 55.054 34.424 52.7761 36.5417 51.6722L38.0878 52.5163L36.5417 64.466Z" fill="#35BB78"/>
<path d="M38.1508 65.3235L28.5845 78.2235V72.3984C28.5845 71.5818 28.756 70.6856 29.0869 69.772L33.2191 58.3665C34.1084 55.9117 36.0331 53.6337 38.1508 52.5297V65.3235Z" fill="#35BB78"/>
<path d="M28.7252 72.5581C28.7252 71.7414 28.8967 70.8454 29.2278 69.9315L33.3598 58.5261C34.2096 56.1806 36.005 53.9994 38.0103 52.8467V52.4993C35.8928 53.6031 33.968 55.8808 33.0786 58.3356L28.9464 69.7411C28.6155 70.655 28.444 71.551 28.444 72.3677V78.1927L28.7252 77.8134V72.5581Z" fill="#E04820"/>
<path d="M58.9275 64.4659L66.8844 78.2231L68.4938 77.3656V71.5406C68.4938 70.7241 68.3223 69.8279 67.9913 68.9141L63.8592 57.5087C62.9698 55.0539 61.045 52.776 58.9275 51.6722L57.3812 52.5163L58.9275 64.4659Z" fill="#35BB78"/>
<path d="M57.3177 65.3232L66.884 78.2229V72.3981C66.884 71.5815 66.7125 70.6853 66.3815 69.7717L62.2494 58.366C61.36 55.9112 59.4352 53.6335 57.3177 52.5297V65.3232Z" fill="#35BB78"/>
<path d="M66.5924 69.7717L62.4602 58.3662C61.5711 55.9114 59.6463 53.6335 57.5287 52.5297V52.6033C59.4445 53.7856 61.1408 55.8926 61.9595 58.152L66.0916 69.5574C66.4224 70.4711 66.5941 71.3673 66.5941 72.184V77.5478L67.095 78.2232V72.3981C67.095 71.5815 66.9235 70.6852 66.5924 69.7717Z" fill="#E04820"/>
<path d="M58.2111 12.9584L47.7341 0L37.2571 12.9584C37.1983 13.0311 37.1429 13.1054 37.0852 13.1782C38.8977 15.3232 42.9823 16.8198 47.7341 16.8198C52.4858 16.8198 56.5704 15.3232 58.3833 13.1782C58.3252 13.1054 58.2698 13.0311 58.2111 12.9584Z" fill="#35BB78"/>
<path d="M37.2545 12.9621C37.197 13.0337 37.1423 13.1069 37.0852 13.1785C38.6244 14.9999 41.8042 16.3498 45.637 16.7169C46.0095 10.9522 46.6829 5.34705 47.6569 0.0961526L37.2572 12.9587C37.2562 12.9598 37.2554 12.961 37.2545 12.9621Z" fill="#35BB78"/>
<defs>
<filter id="filter0_f_20358_6525" x="-9.96479e-05" y="42.9242" width="110" height="82.8415" filterUnits="userSpaceOnUse" color-interpolation-filters="sRGB">
<feFlood flood-opacity="0" result="BackgroundImageFix"/>
<feBlend mode="normal" in="SourceGraphic" in2="BackgroundImageFix" result="shape"/>
<feGaussianBlur stdDeviation="12.8462" result="effect1_foregroundBlur_20358_6525"/>
</filter>
<filter id="filter1_f_20358_6525" x="4.81572" y="51.1492" width="75.1886" height="59.6715" filterUnits="userSpaceOnUse" color-interpolation-filters="sRGB">
<feFlood flood-opacity="0" result="BackgroundImageFix"/>
<feBlend mode="normal" in="SourceGraphic" in2="BackgroundImageFix" result="shape"/>
<feGaussianBlur stdDeviation="9" result="effect1_foregroundBlur_20358_6525"/>
</filter>
</defs>
</svg>
