<svg width="18" height="13" viewBox="0 0 18 13" fill="none" xmlns="http://www.w3.org/2000/svg">
<path d="M16.4113 4.96192H5.41748L9.0609 2.11471C9.6752 1.63466 9.6752 0.840092 9.0609 0.36004C8.4466 -0.120013 7.42983 -0.120013 6.81553 0.36004L0.460724 5.3261C-0.153575 5.80616 -0.153575 6.60073 0.460724 7.08078L6.81553 12.0468C7.13328 12.2951 7.53575 12.411 7.93822 12.411C8.34069 12.411 8.74316 12.2951 9.0609 12.0468C9.6752 11.5668 9.6752 10.7722 9.0609 10.2922L5.41748 7.44496H16.4113C17.2798 7.44496 18 6.88214 18 6.20344C18 5.52474 17.2798 4.96192 16.4113 4.96192Z" fill="#28A745"/>
</svg>
