<svg width="25" height="28" viewBox="0 0 25 28" fill="none" xmlns="http://www.w3.org/2000/svg">
<path fill-rule="evenodd" clip-rule="evenodd" d="M5 11.25V7.5C5 5.51088 5.79018 3.60322 7.1967 2.1967C8.60322 0.790176 10.5109 0 12.5 0C14.4891 0 16.3968 0.790176 17.8033 2.1967C19.2098 3.60322 20 5.51088 20 7.5V11.25H21.25C23.3211 11.25 25 12.9289 25 15V23.75C25 25.8211 23.3211 27.5 21.25 27.5H3.75C1.67893 27.5 0 25.8211 0 23.75V15C0 12.9289 1.67893 11.25 3.75 11.25H5ZM8.96447 3.96447C9.90215 3.02678 11.1739 2.5 12.5 2.5C13.8261 2.5 15.0979 3.02678 16.0355 3.96447C16.9732 4.90215 17.5 6.17392 17.5 7.5V11.25H7.5V7.5C7.5 6.17392 8.02678 4.90215 8.96447 3.96447ZM3.75 13.75C3.05964 13.75 2.5 14.3096 2.5 15V23.75C2.5 24.4404 3.05964 25 3.75 25H21.25C21.9404 25 22.5 24.4404 22.5 23.75V15C22.5 14.3096 21.9404 13.75 21.25 13.75H3.75Z" fill="#3A3A3A"/>
</svg>
