<svg width="10" height="10" viewBox="0 0 10 10" fill="none" xmlns="http://www.w3.org/2000/svg">
<path d="M5.58488 0.363509C5.475 0.140918 5.24829 0 5.00006 0C4.75183 0 4.52512 0.140918 4.41525 0.363509L3.22335 2.77815L0.557875 3.16775C0.31229 3.20365 0.108367 3.37583 0.0318153 3.61192C-0.044736 3.84802 0.0193555 4.1071 0.197151 4.28027L2.12535 6.15834L1.67029 8.81157C1.62832 9.05626 1.72892 9.30355 1.92977 9.44946C2.13063 9.59538 2.39691 9.6146 2.61664 9.49904L5.00006 8.24562L7.38348 9.49904C7.60321 9.6146 7.86949 9.59538 8.07035 9.44946C8.27121 9.30355 8.3718 9.05626 8.32984 8.81157L7.87477 6.15833L9.80297 4.28027C9.98077 4.1071 10.0449 3.84802 9.96831 3.61192C9.89176 3.37583 9.68783 3.20365 9.44225 3.16775L6.77677 2.77815L5.58488 0.363509Z" fill="#FFE202"/>
</svg>
