<svg width="9" height="9" viewBox="0 0 9 9" fill="none" xmlns="http://www.w3.org/2000/svg">
<path d="M5.29415 0.794122C5.29415 0.355541 4.93861 0 4.50003 0C4.06145 0 3.70591 0.355541 3.70591 0.794122V3.70592H0.794122C0.355541 3.70592 0 4.06146 0 4.50004C0 4.93862 0.355541 5.29417 0.794122 5.29417H3.70591V8.20593C3.70591 8.64451 4.06145 9.00006 4.50003 9.00006C4.93861 9.00006 5.29415 8.64451 5.29415 8.20593V5.29417H8.20593C8.64451 5.29417 9.00006 4.93862 9.00006 4.50004C9.00006 4.06146 8.64451 3.70592 8.20593 3.70592H5.29415V0.794122Z" fill="#3A3A3A"/>
</svg>
