<svg width="20" height="15" viewBox="0 0 20 15" fill="none" xmlns="http://www.w3.org/2000/svg">
<path fill-rule="evenodd" clip-rule="evenodd" d="M10.0006 3.05413C12.9025 3.05426 15.6934 4.19612 17.7965 6.24372C17.9548 6.4018 18.208 6.39981 18.3639 6.23925L19.8778 4.67463C19.9568 4.59319 20.0008 4.48289 20.0001 4.36811C19.9995 4.25334 19.9542 4.14357 19.8743 4.06309C14.3544 -1.35436 5.64602 -1.35436 0.126075 4.06309C0.0461149 4.14351 0.000746452 4.25325 9.12868e-06 4.36802C-0.000728194 4.48279 0.0432264 4.59313 0.122146 4.67463L1.63644 6.23925C1.79231 6.40005 2.04564 6.40204 2.20392 6.24372C4.30728 4.19599 7.09849 3.05412 10.0006 3.05413ZM10.0006 8.14437C11.595 8.14427 13.1325 8.75116 14.3143 9.84712C14.4742 10.0027 14.726 9.99929 14.8818 9.83952L16.3939 8.2749C16.4735 8.19283 16.5177 8.0815 16.5166 7.96581C16.5154 7.85012 16.469 7.73973 16.3878 7.65933C12.7888 4.23096 7.21542 4.23096 3.61648 7.65933C3.53519 7.73973 3.4888 7.85017 3.48774 7.9659C3.48667 8.08163 3.53101 8.19295 3.61081 8.2749L5.12248 9.83952C5.2783 9.99929 5.53011 10.0027 5.68996 9.84712C6.87102 8.75188 8.40728 8.14504 10.0006 8.14437ZM13.0296 11.5695C13.0319 11.6855 12.9874 11.7973 12.9065 11.8786L10.2909 14.5818C10.2142 14.6613 10.1097 14.706 10.0006 14.706C9.89153 14.706 9.78699 14.6613 9.71031 14.5818L7.09424 11.8786C7.01343 11.7973 6.96897 11.6854 6.97137 11.5694C6.97376 11.4534 7.0228 11.3435 7.1069 11.2657C8.77734 9.81884 11.2239 9.81884 12.8943 11.2657C12.9783 11.3436 13.0273 11.4535 13.0296 11.5695Z" fill="black"/>
</svg>
