<svg width="34" height="83" viewBox="0 0 34 83" fill="none" xmlns="http://www.w3.org/2000/svg">
<g opacity="0.25">
<path d="M17.0026 78.4188C24.5864 78.4188 30.7438 79.445 30.7438 80.709C30.7438 81.973 24.5864 82.9992 17.0026 82.9992C9.41881 82.9992 3.26137 81.973 3.26137 80.709C3.26137 79.445 9.41881 78.4188 17.0026 78.4188Z" fill="#363636"/>
</g>
<path d="M12.6742 0.0453584C12.6742 0.0453584 15.4668 30.5865 15.4285 30.1681C15.3903 29.7497 12.6742 0.0453584 12.6742 0.0453584Z" stroke="#C7302B"/>
<path d="M15.2755 28.4951C24.5115 27.6506 32.696 34.4639 33.5405 43.6998C34.385 52.9358 27.5718 61.1203 18.3358 61.9648C9.09987 62.8093 0.91531 55.9961 0.07081 46.7602C-0.77369 37.5242 6.03953 29.3396 15.2755 28.4951Z" fill="#C7302B"/>
<path d="M13.4547 45.034C13.5103 45.6416 12.839 46.2004 11.9567 46.2811L10.1337 46.4478C9.25134 46.5284 8.48985 46.1006 8.43429 45.493C8.37873 44.8854 9.05002 44.3266 9.93235 44.2459L11.7554 44.0792C12.6377 43.9985 13.3992 44.4264 13.4547 45.034Z" fill="#2A2A2A"/>
<path d="M21.8248 44.295C21.8817 44.917 21.2115 45.4876 20.3291 45.5683L18.5061 45.735C17.6238 45.8157 16.8612 45.3761 16.8043 44.754C16.7474 44.132 17.4177 43.5614 18.3 43.4807L20.123 43.314C21.0053 43.2334 21.7679 43.6729 21.8248 44.295Z" fill="#2A2A2A"/>
<path d="M12.023 51.2551C12.023 51.2551 14.6566 48.3832 18.7604 50.6391" stroke="white" stroke-linecap="round"/>
<path d="M12.5845 59.5221C10.6858 62.363 11.9583 67.9869 6.88845 68.0447" stroke="#C7302B" stroke-linecap="round"/>
<path d="M4.83801 65.5439L6.95423 68.1822" stroke="#C7302B" stroke-linecap="round"/>
<path d="M23.7703 58.607C21.835 61.4232 17.8085 63.527 17.9646 67.0554" stroke="#C7302B" stroke-linecap="round"/>
<path d="M19.4726 70.0551L17.9291 67.0457" stroke="#C7302B" stroke-linecap="round"/>
<path d="M21.764 45.5839L21.8142 46.2948L21.764 45.5839Z" fill="#363636"/>
<path d="M21.764 45.5839L21.8142 46.2948" stroke="black" stroke-linecap="round"/>
<path d="M9.15129 46.5555L9.18409 46.5575" stroke="black" stroke-linecap="round"/>
</svg>
