<svg width="30" height="23" viewBox="0 0 30 23" fill="none" xmlns="http://www.w3.org/2000/svg">
<path fill-rule="evenodd" clip-rule="evenodd" d="M0 3.75C0 1.67893 1.67893 0 3.75 0H26.25C28.3211 0 30 1.67893 30 3.75V18.75C30 20.8211 28.3211 22.5 26.25 22.5H3.75C1.67893 22.5 0 20.8211 0 18.75V3.75ZM2.5 3.75C2.5 3.05964 3.05964 2.5 3.75 2.5H26.25C26.9404 2.5 27.5 3.05964 27.5 3.75V7.5H2.5V3.75ZM27.5 10V18.75C27.5 19.4404 26.9404 20 26.25 20H3.75C3.05964 20 2.5 19.4404 2.5 18.75V10H27.5Z" fill="#28A745"/>
</svg>
