<svg width="240" height="121" viewBox="0 0 240 121" fill="none" xmlns="http://www.w3.org/2000/svg">
<g opacity="0.1">
<path d="M84.4884 6.90675C103.685 12.8333 122.422 20.157 140.549 28.8191C134.229 30.9899 128.114 33.1577 121.994 35.5272C103.384 26.6175 84.1125 19.1606 64.3524 13.2233C70.8677 11.0496 77.5787 8.87884 84.4884 6.90675Z" fill="white"/>
<path d="M112.91 0C132.453 5.32908 151.602 12.0401 169.961 20.1331C163.642 21.7137 157.126 23.6858 150.813 25.6608C132.649 16.9748 113.702 9.86933 94.3577 4.14287C100.476 2.5652 106.594 1.18325 112.91 0Z" fill="white"/>
<path d="M88.2368 101.659C127.515 73.8242 170.943 51.5204 217.333 35.9246C224.852 39.8674 232.226 44.0802 239.441 48.5548C195.473 67.0112 154.231 91.3848 116.857 121C107.581 114.093 98.1062 107.777 88.2368 101.659Z" fill="white"/>
<path d="M51.1261 81.324C91.9883 54.0855 137.189 33.5551 185.355 20.9219C193.842 24.2786 201.937 28.2254 210.027 32.1693L210.029 32.1702C162.657 46.384 118.242 68.0977 78.1689 95.7336C69.2871 90.6032 60.2066 85.8643 51.1261 81.324Z" fill="white"/>
<path d="M113.702 38.8842C106.792 35.5301 99.6867 32.5676 92.5812 29.8037C70.4731 38.294 49.1538 48.5578 28.6264 60.3992C35.7318 63.5605 42.8372 67.1102 49.747 70.6659C70.1865 58.3888 91.5726 47.7612 113.702 38.8842Z" fill="white"/>
<path d="M0 48.7535C21.1088 37.2915 43.2492 27.8412 66.1286 20.5275C72.2495 22.3038 78.1687 24.4746 84.0909 26.6484C61.7838 34.5444 40.298 44.5926 19.9373 56.6507C13.4918 53.9164 6.85465 51.3766 0.215481 48.836L0 48.7535Z" fill="white"/>
</g>
</svg>
