<svg width="16" height="16" viewBox="0 0 16 16" fill="none" xmlns="http://www.w3.org/2000/svg">
<path fill-rule="evenodd" clip-rule="evenodd" d="M8.00004 0C3.58174 0 0 3.58174 0 8.00004C0 12.4183 3.58174 16.0001 8.00004 16.0001C12.4183 16.0001 16.0001 12.4183 16.0001 8.00004C16.0001 3.58174 12.4183 0 8.00004 0ZM11.5318 5.18662C11.933 5.60034 11.9228 6.26096 11.5091 6.66215L7.20469 10.8361C6.79994 11.2286 6.15661 11.2286 5.75186 10.8361L3.79533 8.93884C3.3816 8.53765 3.37144 7.87703 3.77263 7.46331C4.17381 7.04958 4.83443 7.03942 5.24816 7.44061L6.47828 8.63345L10.0562 5.16392C10.47 4.76273 11.1306 4.77289 11.5318 5.18662Z" fill="#51B960"/>
</svg>
