<svg width="16" height="15" viewBox="0 0 16 15" fill="none" xmlns="http://www.w3.org/2000/svg">
<path fill-rule="evenodd" clip-rule="evenodd" d="M2.70711 0.292893C2.31658 -0.0976311 1.68342 -0.0976311 1.29289 0.292893C0.902369 0.683418 0.902369 1.31658 1.29289 1.70711L2.77012 3.18433C1.70411 4.13849 0.807893 5.26595 0.122437 6.52055C0.0126785 6.72144 -0.0234231 6.95092 0.0146882 7.17084C0.0315419 7.26809 0.0629089 7.36348 0.108837 7.45369L0.0146882 7.17084L0.109583 7.45515L0.110568 7.45708L0.113253 7.4623L0.12148 7.47812C0.128231 7.49101 0.137518 7.50857 0.149324 7.53048C0.172928 7.57429 0.20664 7.63558 0.250319 7.71184C0.3376 7.86424 0.465124 8.07723 0.631791 8.33069C0.963896 8.83573 1.45788 9.5113 2.10619 10.1905C3.38586 11.5311 5.38025 13 8 13L8.01606 12.9999C9.28198 12.9795 10.5172 12.6403 11.6058 12.02L14.2929 14.7071C14.6834 15.0976 15.3166 15.0976 15.7071 14.7071C16.0976 14.3166 16.0976 13.6834 15.7071 13.2929L12.6692 10.255C12.6209 10.1612 12.5576 10.0746 12.4807 9.99905L8.7044 6.29018L2.70711 0.292893ZM9.22019 9.6344L10.1186 10.5328C9.4538 10.8262 8.73079 10.9871 7.992 11C6.16083 10.997 4.65798 9.96723 3.5529 8.80953C3.00803 8.23871 2.58724 7.66428 2.30287 7.23183C2.24846 7.14908 2.19928 7.0719 2.15542 7.00136C2.70037 6.11811 3.37483 5.3182 4.15708 4.62736L5.33755 5.78675C5.32389 5.81443 5.31067 5.84236 5.29789 5.87052C5.13735 6.22439 5.05073 6.60712 5.04375 6.99574C5.03676 7.38436 5.10958 7.76996 5.25739 8.12935C5.40518 8.4887 5.62464 8.8139 5.90174 9.08605C6.17879 9.35816 6.50779 9.57169 6.86864 9.71484C7.22945 9.85798 7.61531 9.92806 8.00338 9.92133C8.39146 9.91461 8.77466 9.8312 9.13027 9.67558C9.1605 9.66235 9.19047 9.64862 9.22019 9.6344Z" fill="#3A3A3A"/>
<path fill-rule="evenodd" clip-rule="evenodd" d="M15.8783 7.47805C16.0359 7.18856 16.0407 6.84004 15.8912 6.54632L15.8894 6.54294L15.8867 6.53772L15.8785 6.5219C15.8718 6.509 15.8625 6.49144 15.8507 6.46953C15.8271 6.42572 15.7934 6.36444 15.7497 6.28818C15.6624 6.13578 15.5349 5.92278 15.3682 5.66933C15.0361 5.16428 14.5421 4.48872 13.8938 3.80954C12.65 2.50645 10.7308 1.08215 8.21852 1.00343C8.14655 1.00118 8.07409 1.00003 8.00115 1.00002L8.00231 1.00002L8.21852 1.00343L8 1.00002L8.00115 1.00002C7.47557 0.998891 6.95155 1.05774 6.43959 1.17544C6.08366 1.25726 5.80065 1.52661 5.70133 1.87805C5.602 2.22949 5.70216 2.60712 5.9626 2.86314L12.9244 9.70688C13.122 9.90114 13.3914 10.0047 13.6682 9.99284C13.9451 9.98099 14.2046 9.8548 14.3849 9.64438C14.9579 8.97557 15.4584 8.24955 15.8783 7.47805ZM13.5237 7.4915L9.07695 3.12012C10.4301 3.42427 11.5652 4.26664 12.4471 5.19049C12.992 5.7613 13.4128 6.33574 13.6971 6.76819C13.7518 6.85131 13.8012 6.92882 13.8452 6.99963C13.7427 7.16647 13.6355 7.33049 13.5237 7.4915Z" fill="#3A3A3A"/>
</svg>
