<svg width="154" height="201" viewBox="0 0 154 201" fill="none" xmlns="http://www.w3.org/2000/svg">
<path d="M108.559 122.843C119.728 128.299 126.639 135.831 126.639 144.144C126.639 160.779 98.9657 174.285 64.8817 174.285C50.4806 174.285 37.2233 171.874 26.7151 167.834" stroke="#FFAFA4" stroke-opacity="0.64" stroke-width="2" stroke-linecap="round" stroke-linejoin="round" stroke-dasharray="26.88 26.88"/>
<g filter="url(#filter0_f_20214_4769)">
<path d="M108.559 122.843C119.728 128.299 126.639 135.831 126.639 144.144C126.639 160.779 98.9657 174.285 64.8817 174.285C50.4806 174.285 37.2233 171.874 26.7151 167.834" stroke="#FFAFA4" stroke-opacity="0.64" stroke-width="2" stroke-linecap="round" stroke-linejoin="round" stroke-dasharray="26.88 26.88"/>
</g>
<path d="M38.4535 161.572C28.1771 157.71 21.5508 151.646 21.5508 144.832C21.5508 133.178 40.9388 123.715 64.8178 123.715C72.9914 123.715 80.6389 124.824 87.1628 126.75" stroke="#FFAFA4" stroke-opacity="0.64" stroke-width="2" stroke-linecap="round" stroke-linejoin="round" stroke-dasharray="18.83 18.83"/>
<g filter="url(#filter1_f_20214_4769)">
<path d="M38.4535 161.572C28.1771 157.71 21.5508 151.646 21.5508 144.832C21.5508 133.178 40.9388 123.715 64.8178 123.715C72.9914 123.715 80.6389 124.824 87.1628 126.75" stroke="#FFAFA4" stroke-opacity="0.64" stroke-width="2" stroke-linecap="round" stroke-linejoin="round" stroke-dasharray="18.83 18.83"/>
</g>
<path d="M72.2224 133.354C72.2224 144.484 63.9887 153.219 63.9887 153.219C63.9887 153.219 55.7551 144.484 55.7551 133.354C55.7551 128.209 59.4413 124.039 63.9887 124.039C68.5357 124.039 72.2224 128.209 72.2224 133.354Z" fill="#FFC805"/>
<path d="M83.8354 98.8508L101.558 107.321V96.5992C101.558 95.0964 101.24 93.7755 100.627 92.7291L92.9719 79.6654C91.3242 76.8538 87.7584 76.355 83.8354 78.3867V98.8508Z" fill="#35BB78"/>
<path d="M43.7566 98.8508L26.0341 107.321V96.5992C26.0341 95.0964 26.3519 93.7755 26.9651 92.7291L34.62 79.6654C36.2675 76.8538 39.8335 76.355 43.7566 78.3867V98.8508Z" fill="#35BB78"/>
<path d="M72.2342 120.597H55.3568V122.733H55.3598C55.3592 122.753 55.3568 122.774 55.3568 122.794C55.3568 125.229 59.1348 127.203 63.7952 127.203C68.456 127.203 72.2342 125.229 72.2342 122.794C72.2342 122.774 72.2315 122.753 72.2312 122.733H72.2342V120.597Z" fill="#35BB78"/>
<path d="M83.9512 101.663H43.6407V112.407H43.6479C43.6467 112.456 43.6407 112.504 43.6407 112.552C43.6407 118.367 52.6647 123.081 63.7959 123.081C74.9274 123.081 83.9512 118.367 83.9512 112.552C83.9512 112.504 83.9452 112.456 83.9443 112.407H83.9512V101.663Z" fill="#35BB78"/>
<path d="M95.3089 68.0282C97.3511 52.7035 93.3948 37.1142 83.6243 24.4108C83.2143 23.8773 82.796 23.3487 82.3695 22.8247L63.7959 0L45.2219 22.8247C44.7952 23.3487 44.3771 23.8773 43.9668 24.4108C34.1964 37.1142 30.2401 52.7035 32.2826 68.0282L37.026 103.616H37.0355C37.0337 103.681 37.026 103.745 37.026 103.809C37.026 111.533 49.0112 117.794 63.7959 117.794C78.5805 117.794 90.5652 111.533 90.5652 103.809C90.5652 103.745 90.5577 103.681 90.5556 103.616H90.5652L95.3089 68.0282Z" fill="#E0FFF0"/>
<path d="M59.7626 61.6527C58.8172 40.4919 60.1358 19.0356 63.6581 0.169087L45.2215 22.8249C44.7951 23.349 44.3767 23.8778 43.9667 24.411C34.1963 37.1144 30.2403 52.7037 32.2825 68.0287L37.0258 103.617H37.0354C37.0336 103.681 37.0258 103.745 37.0258 103.81C37.0258 111.265 48.1947 117.357 62.2683 117.77L59.7626 61.6527Z" fill="#E0FFF0"/>
<path d="M59.7412 77.4826C59.7412 80.8019 58.4642 83.153 56.3885 84.2911C56.3259 84.3254 54.3939 85.425 54.3301 85.4573C52.1703 86.5405 53.5514 84.0822 50.2715 82.3834C43.67 78.9642 38.3185 70.684 38.3185 63.8887C38.3185 60.5284 34.8557 60.5012 36.9766 59.3793C37.0359 59.3479 39.3842 58.1898 39.4444 58.1602C41.5985 57.1138 44.542 57.3065 47.7882 58.9879C54.3897 62.4071 59.7412 70.6872 59.7412 77.4826Z" fill="#35BB78"/>
<path d="M57.3823 78.7348C57.3823 85.5301 52.0309 88.2674 45.4297 84.8482C38.8279 81.4294 33.4764 73.1486 33.4764 66.3533C33.4764 59.5577 38.8279 56.8207 45.4297 60.2399C52.0309 63.659 57.3823 71.9395 57.3823 78.7348Z" fill="#35BB78"/>
<path d="M55.1354 77.5707C55.1354 83.089 50.7898 85.3113 45.429 82.5351C40.0686 79.7587 35.7227 73.0348 35.7227 67.5165C35.7227 61.9983 40.0686 59.7757 45.429 62.5521C50.7898 65.3286 55.1354 72.0527 55.1354 77.5707Z" fill="#00FFE2"/>
<path d="M47.3384 81.8172C41.9776 79.0407 37.6317 72.3166 37.6317 66.7986C37.6317 64.2549 38.5567 62.4138 40.0776 61.4374C37.4539 61.8669 35.7227 64.035 35.7227 67.5167C35.7227 73.035 40.0683 79.7589 45.429 82.5353C48.3185 84.032 50.9119 84.0736 52.6898 82.9321C51.1555 83.1834 49.3165 82.8416 47.3384 81.8172Z" fill="#35BB78"/>
<path d="M45.7799 59.9683C42.6155 58.3296 39.3409 58.4391 37.8245 59.0823C39.8176 58.5822 42.6352 58.8845 45.3142 60.2722C51.9158 63.6913 57.2672 71.9715 57.2672 78.7671C57.2672 82.3052 55.4701 84.8105 53.1478 85.8524C55.5845 85.044 57.7329 82.5009 57.7329 78.4632C57.7329 71.6679 52.3814 63.3874 45.7799 59.9683Z" fill="#E04820"/>
<path d="M43.9531 113.55L29.8466 137.782L26.9934 136.271V126.011C26.9934 124.573 27.2974 122.994 27.8843 121.385L35.2097 101.295C36.7866 96.9716 40.1988 92.9595 43.9531 91.015L46.6941 92.5017L43.9531 113.55Z" fill="#35BB78"/>
<path d="M46.8068 115.06L29.8474 137.781V127.521C29.8474 126.083 30.1514 124.504 30.738 122.895L38.0637 102.806C39.6402 98.482 43.0525 94.4695 46.8068 92.525V115.06Z" fill="#35BB78"/>
<path d="M30.0967 127.8C30.0967 126.362 30.4008 124.784 30.9876 123.174L38.313 103.085C39.8195 98.9535 43.0025 95.1115 46.5575 93.0812V92.4693C42.8035 94.4135 39.3913 98.4254 37.8145 102.749L30.4887 122.839C29.9022 124.448 29.5981 126.027 29.5981 127.465V137.725L30.0967 137.057V127.8Z" fill="#E04820"/>
<path d="M83.6398 113.549L97.746 137.781L100.599 136.271V126.011C100.599 124.573 100.295 122.994 99.7083 121.385L92.3829 101.295C90.8061 96.9714 87.3938 92.9592 83.6398 91.015L80.8986 92.5017L83.6398 113.549Z" fill="#35BB78"/>
<path d="M80.7859 115.059L97.7453 137.78V127.521C97.7453 126.082 97.4413 124.504 96.8544 122.895L89.529 102.805C87.9521 98.4812 84.5399 94.4692 80.7859 92.525V115.059Z" fill="#35BB78"/>
<path d="M97.2283 122.895L89.9025 102.805C88.3263 98.4814 84.9141 94.4692 81.1598 92.525V92.6547C84.5561 94.7372 87.5635 98.4484 89.0149 102.428L96.3403 122.517C96.9269 124.127 97.2312 125.705 97.2312 127.144V136.591L98.1192 137.781V127.521C98.1192 126.082 97.8151 124.504 97.2283 122.895Z" fill="#E04820"/>
<path d="M82.3697 22.8247L63.7957 0L45.2218 22.8247C45.1177 22.9528 45.0195 23.0835 44.9171 23.2118C48.1304 26.9899 55.3717 29.6259 63.7957 29.6259C72.2198 29.6259 79.4611 26.9899 82.6749 23.2118C82.572 23.0835 82.4738 22.9528 82.3697 22.8247Z" fill="#35BB78"/>
<path d="M45.2173 22.8308C45.1153 22.957 45.0183 23.0859 44.9171 23.212C47.6459 26.4202 53.2831 28.7979 60.078 29.4444C60.7384 19.2906 61.9322 9.41789 63.659 0.169087L45.2221 22.8249C45.2203 22.8268 45.2188 22.8289 45.2173 22.8308Z" fill="#35BB78"/>
<defs>
<filter id="filter0_f_20214_4769" x="-9.92656e-05" y="96.1286" width="153.354" height="104.872" filterUnits="userSpaceOnUse" color-interpolation-filters="sRGB">
<feFlood flood-opacity="0" result="BackgroundImageFix"/>
<feBlend mode="normal" in="SourceGraphic" in2="BackgroundImageFix" result="shape"/>
<feGaussianBlur stdDeviation="12.8462" result="effect1_foregroundBlur_20214_4769"/>
</filter>
<filter id="filter1_f_20214_4769" x="2.53485" y="104.699" width="103.644" height="75.889" filterUnits="userSpaceOnUse" color-interpolation-filters="sRGB">
<feFlood flood-opacity="0" result="BackgroundImageFix"/>
<feBlend mode="normal" in="SourceGraphic" in2="BackgroundImageFix" result="shape"/>
<feGaussianBlur stdDeviation="9" result="effect1_foregroundBlur_20214_4769"/>
</filter>
</defs>
</svg>
