<svg width="16" height="15" viewBox="0 0 16 15" fill="none" xmlns="http://www.w3.org/2000/svg">
<path fill-rule="evenodd" clip-rule="evenodd" d="M4.67702 0C3.4366 0 2.24698 0.492756 1.36987 1.36987C0.492756 2.24698 0 3.4366 0 4.67702C0 5.91744 0.492756 7.10706 1.36987 7.98417L7.27518 13.8895C7.47498 14.0893 7.73816 14.1871 8 14.1828C8.26184 14.1871 8.52502 14.0893 8.72482 13.8895L14.6301 7.98417C15.5072 7.10706 16 5.91744 16 4.67702C16 3.4366 15.5072 2.24698 14.6301 1.36987C13.753 0.492756 12.5634 0 11.323 0C10.0826 0 8.89294 0.492756 8.01583 1.36987L8 1.3857L7.98417 1.36987C7.10706 0.492756 5.91744 0 4.67702 0ZM8 3.78842C7.73816 3.79264 7.47498 3.69486 7.27518 3.49506L6.56708 2.78696C6.0658 2.28568 5.38593 2.00407 4.67702 2.00407C3.96811 2.00407 3.28823 2.28568 2.78696 2.78696C2.28568 3.28823 2.00407 3.96811 2.00407 4.67702C2.00407 5.38593 2.28568 6.0658 2.78696 6.56708L8 11.7801L13.213 6.56708C13.7143 6.0658 13.9959 5.38593 13.9959 4.67702C13.9959 3.96811 13.7143 3.28823 13.213 2.78696C12.7118 2.28568 12.0319 2.00407 11.323 2.00407C10.6141 2.00407 9.93419 2.28568 9.43292 2.78696L8.72482 3.49506C8.52502 3.69486 8.26184 3.79264 8 3.78842Z" fill="#3A3A3A"/>
</svg>
