<svg width="32" height="24" viewBox="0 0 32 24" fill="none" xmlns="http://www.w3.org/2000/svg">
<path fill-rule="evenodd" clip-rule="evenodd" d="M0 4C0 1.79086 1.79086 0 4 0H28C30.2091 0 32 1.79086 32 4V20C32 22.2091 30.2091 24 28 24H4C1.79086 24 0 22.2091 0 20V4ZM2.66667 4C2.66667 3.26362 3.26362 2.66667 4 2.66667H28C28.7364 2.66667 29.3333 3.26362 29.3333 4V8H2.66667V4ZM29.3333 10.6667V20C29.3333 20.7364 28.7364 21.3333 28 21.3333H4C3.26362 21.3333 2.66667 20.7364 2.66667 20V10.6667H29.3333Z" fill="black"/>
</svg>
