<svg width="34" height="83" viewBox="0 0 34 83" fill="none" xmlns="http://www.w3.org/2000/svg">
<g opacity="0.25">
<path d="M17.0026 78.4198C24.5864 78.4198 30.7438 79.446 30.7438 80.71C30.7438 81.974 24.5864 83.0002 17.0026 83.0002C9.41881 83.0002 3.26137 81.974 3.26137 80.71C3.26137 79.446 9.41881 78.4198 17.0026 78.4198Z" fill="#363636"/>
</g>
<path d="M12.6742 0.0453584C12.6742 0.0453584 15.4668 30.5865 15.4285 30.1681C15.3903 29.7497 12.6742 0.0453584 12.6742 0.0453584Z" stroke="#C7302B"/>
<path d="M15.2755 28.4951C24.5115 27.6506 32.696 34.4639 33.5405 43.6998C34.385 52.9358 27.5718 61.1203 18.3358 61.9648C9.09987 62.8093 0.91531 55.9961 0.07081 46.7602C-0.77369 37.5242 6.03953 29.3396 15.2755 28.4951Z" fill="#C7302B"/>
<path d="M13.455 45.033C13.5105 45.6406 12.8393 46.1994 11.9569 46.2801L10.1339 46.4468C9.25159 46.5275 8.49009 46.0996 8.43454 45.492C8.37898 44.8844 9.05026 44.3256 9.9326 44.2449L11.7556 44.0782C12.6379 43.9976 13.3994 44.4254 13.455 45.033Z" fill="#2A2A2A"/>
<path d="M21.8248 44.295C21.8817 44.917 21.2115 45.4876 20.3291 45.5683L18.5061 45.735C17.6238 45.8157 16.8612 45.3761 16.8043 44.754C16.7474 44.132 17.4177 43.5614 18.3 43.4807L20.123 43.314C21.0053 43.2334 21.7679 43.6729 21.8248 44.295Z" fill="#2A2A2A"/>
<path d="M12.0232 51.2541C12.0232 51.2541 14.6568 48.3822 18.7607 50.6381" stroke="white" stroke-linecap="round"/>
<path d="M12.5843 59.5221C10.6856 62.363 11.958 67.9869 6.8882 68.0447" stroke="#C7302B" stroke-linecap="round"/>
<path d="M4.83776 65.5449L6.95399 68.1831" stroke="#C7302B" stroke-linecap="round"/>
<path d="M23.7703 58.607C21.835 61.4232 17.8085 63.527 17.9646 67.0554" stroke="#C7302B" stroke-linecap="round"/>
<path d="M19.4723 70.0542L17.9289 67.0447" stroke="#C7302B" stroke-linecap="round"/>
<path d="M21.764 45.5829L21.8142 46.2938L21.764 45.5829Z" fill="#363636"/>
<path d="M21.764 45.5829L21.8142 46.2938" stroke="black" stroke-linecap="round"/>
<path d="M9.15104 46.5565L9.18385 46.5585" stroke="black" stroke-linecap="round"/>
</svg>
