<svg width="11" height="14" viewBox="0 0 11 14" fill="none" xmlns="http://www.w3.org/2000/svg">
<path d="M10.5692 7.41075C9.49725 4.62508 5.6806 4.47487 6.60233 0.426077C6.67061 0.12566 6.34971 -0.106479 6.09026 0.0505564C3.61182 1.51167 1.82981 4.44073 3.32506 8.27787C3.44796 8.59194 3.07927 8.88553 2.81299 8.6807C1.57719 7.74531 1.44746 6.40026 1.5567 5.43757C1.59767 5.08253 1.13339 4.91184 0.935387 5.20543C0.471107 5.9155 0 7.06254 0 8.78994C0.25945 12.6134 3.48893 13.7878 4.64962 13.938C6.30874 14.1496 8.10441 13.8424 9.39484 12.6612C10.815 11.3435 11.3339 9.24056 10.5692 7.41075ZM4.23314 10.8451C5.21632 10.6061 5.72156 9.89602 5.85812 9.26787C6.08343 8.29152 5.20266 7.33565 5.79667 5.7926C6.02198 7.06937 8.02931 7.86821 8.02931 9.26105C8.08393 10.9884 6.21315 12.47 4.23314 10.8451Z" fill="#35BB78"/>
</svg>
