<svg width="16" height="14" viewBox="0 0 16 14" fill="none" xmlns="http://www.w3.org/2000/svg">
<path fill-rule="evenodd" clip-rule="evenodd" d="M4.49886 0C3.30569 0 2.16139 0.473986 1.31769 1.31769C0.473986 2.16139 0 3.30569 0 4.49886C0 5.69203 0.473986 6.83634 1.31769 7.68004L7.43492 13.7973C7.4687 13.8311 7.50511 13.8606 7.54348 13.8859C7.81208 14.0633 8.17709 14.0337 8.41355 13.7973L14.5308 7.68004C15.3745 6.83634 15.8485 5.69203 15.8485 4.49886C15.8485 3.30569 15.3745 2.16139 14.5308 1.31769C13.6871 0.473986 12.5428 0 11.3496 0C10.1564 0 9.01215 0.473986 8.16845 1.31769L7.92424 1.56189L7.68004 1.31769C6.83634 0.473986 5.69203 0 4.49886 0ZM8.41355 3.02983C8.17709 3.26629 7.81208 3.29585 7.54348 3.1185C7.50511 3.09317 7.4687 3.06361 7.43492 3.02983L6.70141 2.29632C6.11726 1.71216 5.32498 1.38399 4.49886 1.38399C3.67275 1.38399 2.88047 1.71216 2.29631 2.29632C1.71216 2.88047 1.38399 3.67275 1.38399 4.49886C1.38399 5.32498 1.71216 6.11726 2.29631 6.70141L7.92424 12.3293L13.5522 6.70141C14.1363 6.11726 14.4645 5.32498 14.4645 4.49886C14.4645 3.67275 14.1363 2.88047 13.5522 2.29632C12.968 1.71216 12.1757 1.38399 11.3496 1.38399C10.5235 1.38399 9.73123 1.71216 9.14707 2.29632L8.41355 3.02983Z" fill="#3A3A3A"/>
</svg>
