<svg width="10" height="14" viewBox="0 0 10 14" fill="none" xmlns="http://www.w3.org/2000/svg">
<path d="M6.18547 0.978485C6.22323 0.589875 6.04575 0.217802 5.75084 0.0673238C5.45592 -0.0831544 5.1153 0.0245599 4.9167 0.331103L0.1548 7.68104C-0.0155805 7.94403 -0.0480993 8.30324 0.071106 8.60556C0.190311 8.90788 0.440217 9.09998 0.714291 9.09998H4.19564L3.81453 13.0215C3.77677 13.4101 3.95425 13.7822 4.24916 13.9327C4.54408 14.0832 4.8847 13.9754 5.0833 13.6689L9.8452 6.31896C10.0156 6.05598 10.0481 5.69676 9.92889 5.39444C9.80969 5.09212 9.55978 4.90002 9.28571 4.90002H5.80436L6.18547 0.978485Z" fill="#FFE202"/>
</svg>
