<svg width="30" height="30" viewBox="0 0 30 30" fill="none" xmlns="http://www.w3.org/2000/svg">
<path d="M28.8149 20.8401C27.8607 23.0973 26.3681 25.0864 24.4678 26.6334C22.5675 28.1804 20.3173 29.2382 17.9138 29.7143C15.5104 30.1905 13.0269 30.0704 10.6806 29.3648C8.33421 28.6591 6.19639 27.3892 4.45403 25.6662C2.71166 23.9432 1.41779 21.8195 0.685541 19.4807C-0.0467102 17.142 -0.195048 14.6594 0.253495 12.2501C0.702039 9.84075 1.73381 7.578 3.25859 5.65966C4.78338 3.74133 6.75476 2.22581 9.00039 1.24561" fill="#28A745" fill-opacity="0.2"/>
<path d="M30.0001 15.0034C30.0001 13.0332 29.6121 11.0822 28.8583 9.26188C28.1045 7.44157 26.9997 5.78761 25.6068 4.39441C24.214 3.00121 22.5604 1.89606 20.7406 1.14207C18.9208 0.388076 16.9703 0 15.0005 0V15.0034H30.0001Z" fill="#51B960"/>
</svg>
