<svg width="31" height="34" viewBox="0 0 31 34" fill="none" xmlns="http://www.w3.org/2000/svg">
<path fill-rule="evenodd" clip-rule="evenodd" d="M15.5 0C24.0605 0 31.0001 7.58466 31.0001 16.9408C31.0001 26.297 24.0605 33.8816 15.5 33.8816C6.93961 33.8816 0 26.297 0 16.9408C0 7.58466 6.93961 0 15.5 0ZM15.5 1.9736C23.063 1.97454 29.1933 8.676 29.1928 16.9419C29.1922 25.2079 23.0609 31.9083 15.498 31.908C7.93503 31.9077 1.8042 25.2067 1.8042 16.9408C1.80431 12.971 3.24734 9.16384 5.81583 6.35692C8.38432 3.55 11.8679 1.97327 15.5 1.9736ZM10.5966 9.59275C10.1175 9.58651 9.65615 9.79051 9.31579 10.1591C8.97544 10.5276 8.78453 11.03 8.78581 11.5536C8.78581 12.6467 9.59653 13.5328 10.5966 13.5328C11.5967 13.5328 12.4074 12.6467 12.4074 11.5536C12.4087 11.03 12.2178 10.5276 11.8774 10.1591C11.5371 9.79051 11.0757 9.58651 10.5966 9.59275ZM25.8297 19.8589C25.0043 24.7336 20.6995 28.8036 15.4981 28.8036C10.3381 28.8036 6.05858 24.7929 5.18476 19.9732C5.00768 18.7704 5.909 18.4866 6.75802 18.7111C9.59823 19.6087 12.5437 20.0453 15.5 20.0071C18.4497 20.0445 21.3885 19.6093 24.2227 18.7153C25.0481 18.4866 25.932 18.745 25.8297 19.8589ZM23.0276 20.5365C22.947 20.5704 22.8653 20.5958 22.7827 20.6254C22.7742 20.6297 23.047 20.5322 23.0389 20.5365C20.588 21.2739 18.0547 21.6317 15.5128 21.5995C12.4795 21.5995 9.76658 21.2311 7.8996 20.4984C6.54605 20.0579 6.80568 21.7986 7.757 22.3322C10.1907 23.5431 12.8386 24.1533 15.5124 24.1195C18.6931 24.1195 21.5272 23.3105 23.3992 22.2644C24.2851 21.6419 24.4602 19.9732 23.0276 20.5365ZM20.4136 9.59275C19.9344 9.58651 19.473 9.7905 19.1326 10.1591C18.7922 10.5276 18.6012 11.0299 18.6024 11.5536C18.5928 12.2677 18.9359 12.932 19.5001 13.2921C20.0644 13.6521 20.7623 13.6521 21.3266 13.2921C21.8908 12.932 22.2339 12.2677 22.2243 11.5536C22.2255 11.03 22.0346 10.5277 21.6942 10.1592C21.3539 9.79066 20.8926 9.58662 20.4136 9.59275Z" fill="#50555C"/>
</svg>
