<svg width="33" height="14" viewBox="0 0 33 14" fill="none" xmlns="http://www.w3.org/2000/svg">
<path fill-rule="evenodd" clip-rule="evenodd" d="M0 0H33.0001V1.04698H0V0ZM0 2.09394H33.0001V3.14092H0V2.09394ZM0 4.18521H33.0001V5.23483H0V4.18521ZM0 6.27915H33.0001V7.32613H0V6.27915ZM0 8.37309H33.0001V9.42007H0V8.37309ZM0 10.4644H33.0001V11.5113H0V10.4644ZM0 12.5583H33.0001V13.6053H0V12.5583Z" fill="#BD3D44"/>
<path fill-rule="evenodd" clip-rule="evenodd" d="M0 1.04698H33.0001V2.09394H0V1.04698ZM0 3.14089H33.0001V4.18521H0V3.14089ZM0 5.23219H33.0001V6.27915H0V5.23219ZM0 7.32613H33.0001V8.37309H0V7.32613ZM0 9.42007H33.0001V10.467H0V9.42007ZM0 11.5113H33.0001V12.5583H0V11.5113Z" fill="white"/>
<path fill-rule="evenodd" clip-rule="evenodd" d="M0 0H13.1993V7.32613H0V0Z" fill="#192F5D"/>
<path fill-rule="evenodd" clip-rule="evenodd" d="M1.09933 0.313584L1.22145 0.603178H1.60819L1.29606 0.781237L1.41482 1.07352L1.09933 0.892829L0.787241 1.07086L0.905962 0.781237L0.590507 0.603178H0.984011L1.09933 0.313584ZM3.30093 0.313584L3.41965 0.603178H3.80975L3.49426 0.781237L3.61302 1.07352L3.30093 0.892829L2.98544 1.07086L3.10416 0.781237L2.79207 0.603178H3.1788L3.30093 0.313584ZM5.49912 0.313584L5.62124 0.603206H6.00458L5.69249 0.781266L5.81117 1.07355L5.49572 0.892857L5.18363 1.07089L5.30235 0.781266L4.98686 0.603206H5.377L5.49912 0.313584ZM7.70072 0.313584L7.8194 0.603206H8.20954L7.89405 0.781266L8.01617 1.07355L7.70068 0.892857L7.38522 1.07089L7.50735 0.781266L7.19186 0.603206H7.57859L7.70072 0.313584ZM9.89891 0.313584L10.021 0.603206H10.4077L10.0956 0.781266L10.2144 1.07355L9.89887 0.892857L9.58678 1.07089L9.70554 0.781266L9.39345 0.603206H9.78015L9.89891 0.313584ZM12.1005 0.313584L12.2192 0.603206H12.6093L12.2938 0.781266L12.416 1.07355L12.1005 0.892857L11.785 1.07089L11.9071 0.781266L11.5916 0.603206H11.9817L12.1005 0.313584ZM2.20183 1.04694L2.32055 1.33662H2.71065L2.39516 1.51462L2.51052 1.8043L2.20519 1.62624L1.88974 1.80427L2.00166 1.51465L1.69637 1.33659H2.08311L2.20183 1.04694ZM4.40002 1.04694L4.52215 1.33662H4.90885L4.59336 1.51462L4.71551 1.8043L4.39999 1.62624L4.08453 1.80427L4.20665 1.51465L3.89116 1.33659H4.28127L4.40002 1.04694ZM6.60162 1.04694L6.7203 1.33662H7.11044L6.79495 1.51462L6.91367 1.8043L6.60158 1.62624L6.28613 1.80427L6.40485 1.51468L6.09276 1.33662H6.4795L6.60162 1.04694ZM8.79981 1.04694L8.92193 1.33662H9.30864L8.99315 1.51462L9.11527 1.8043L8.79978 1.62624L8.48769 1.80427L8.60644 1.51465L8.29095 1.33659H8.68446L8.79981 1.04694ZM11.0014 1.04694L11.1201 1.33662H11.5102L11.1947 1.51462L11.3135 1.8043L11.0014 1.62624L10.6859 1.80427L10.8046 1.51465L10.4925 1.33659H10.8793L11.0014 1.04694ZM1.09933 1.77777L1.22145 2.07272H1.60819L1.29606 2.25075L1.41482 2.5404L1.09933 2.35971L0.787241 2.5404L0.905962 2.24809L0.590507 2.07008H0.984011L1.09933 1.77777ZM3.30093 1.77777L3.41965 2.07H3.80975L3.49426 2.24803L3.61302 2.53771L3.30093 2.35698L2.98544 2.53768L3.10416 2.24539L2.79207 2.06736H3.1788L3.30093 1.77777ZM5.49912 1.77777L5.62124 2.07005H6.00458L5.69249 2.24809L5.81117 2.53776L5.49572 2.35704L5.18363 2.53774L5.30235 2.24545L4.98686 2.06742H5.377L5.49912 1.77777ZM7.70072 1.77777L7.8194 2.07005H8.20954L7.89405 2.24809L8.01617 2.53776L7.70068 2.35704L7.38522 2.53774L7.50735 2.24545L7.19186 2.06742H7.57859L7.70072 1.77777ZM9.89891 1.77777L10.021 2.07005H10.4077L10.0956 2.24806L10.2144 2.53774L9.89887 2.35701L9.58678 2.53771L9.70554 2.24542L9.39345 2.06739H9.78015L9.89891 1.77777ZM12.1005 1.77777L12.2192 2.07005H12.6093L12.2938 2.24809L12.416 2.53776L12.1005 2.35704L11.785 2.53774L11.9071 2.24545L11.5916 2.06742H11.9817L12.1005 1.77777ZM2.20183 2.51115L2.32055 2.8008H2.71065L2.39516 2.9788L2.51392 3.27112L2.20183 3.09042L1.88634 3.26845L2.00506 2.97883L1.69297 2.8008H2.07974L2.20183 2.51115ZM4.40002 2.51115L4.52215 2.8008H4.90885L4.59336 2.9788L4.71551 3.27112L4.39999 3.09042L4.08453 3.26845L4.20665 2.97883L3.89116 2.8008H4.28127L4.40002 2.51115ZM6.60162 2.51115L6.7203 2.8008H7.11044L6.79495 2.9788L6.91367 3.27112L6.60158 3.09042L6.28613 3.26845L6.40485 2.97883L6.09276 2.8008H6.4795L6.60162 2.51115ZM8.79981 2.51115L8.92193 2.8008H9.30864L8.99655 2.9788L9.11527 3.27112L8.79978 3.09042L8.48769 3.26845L8.60644 2.97883L8.29095 2.8008H8.68446L8.79981 2.51115ZM11.0014 2.51115L11.1201 2.8008H11.5102L11.1947 2.9788L11.3135 3.27112L11.0014 3.09042L10.6859 3.26845L10.8046 2.97883L10.4925 2.8008H10.8793L11.0014 2.51115ZM1.09933 3.24456L1.22145 3.53421H1.60819L1.29606 3.71221L1.41482 4.00453L1.09933 3.82383L0.787241 4.00186L0.905962 3.71224L0.590507 3.53421H0.984011L1.09933 3.24456ZM3.30093 3.24456L3.41965 3.53421H3.80975L3.49426 3.71221L3.61302 4.00189L3.30093 3.82383L2.98544 4.00186L3.10416 3.71224L2.79207 3.53421H3.1788L3.30093 3.24456ZM5.49912 3.24456L5.62124 3.53421H6.00458L5.69249 3.71221L5.81117 4.00453L5.49572 3.82383L5.18363 4.00186L5.30235 3.71224L4.98686 3.53421H5.377L5.49912 3.24456ZM7.70072 3.24456L7.8194 3.53421H8.20954L7.89405 3.71221L8.01617 4.00453L7.70068 3.82383L7.38522 4.00186L7.50735 3.71224L7.19186 3.53421H7.57859L7.70072 3.24456ZM9.89891 3.24456L10.021 3.53421H10.4077L10.0956 3.71221L10.2144 4.00453L9.89887 3.82383L9.58678 4.00186L9.70554 3.71224L9.39345 3.53421H9.78015L9.89891 3.24456ZM12.1005 3.24456L12.2192 3.53421H12.6093L12.2938 3.71221L12.416 4.00453L12.1005 3.82383L11.785 4.00186L11.9071 3.71224L11.5916 3.53421H11.9817L12.1005 3.24456ZM2.20183 3.97797L2.32055 4.26762H2.71065L2.39516 4.44562L2.51392 4.7353L2.20183 4.55461L1.88634 4.7353L2.00506 4.44299L1.69297 4.26495H2.07974L2.20183 3.97797ZM4.40002 3.97797L4.52215 4.26762H4.90885L4.59336 4.44562L4.71551 4.7353L4.39999 4.55461L4.08453 4.7353L4.20665 4.44299L3.89116 4.26495H4.28127L4.40002 3.97797ZM6.60162 3.97797L6.7203 4.26762H7.11044L6.79495 4.44562L6.91367 4.7353L6.60158 4.55461L6.28613 4.7353L6.40485 4.44299L6.09276 4.26495H6.4795L6.60162 3.97797ZM8.79981 3.97797L8.92193 4.26762H9.30864L8.99655 4.44562L9.11527 4.7353L8.79978 4.55461L8.48769 4.7353L8.60644 4.44299L8.29095 4.26495H8.68446L8.79981 3.97797ZM11.0014 3.97797L11.1201 4.26762H11.5102L11.1947 4.44562L11.3135 4.7353L11.0014 4.55461L10.6859 4.7353L10.8046 4.44299L10.4925 4.26495H10.8793L11.0014 3.97797ZM1.09933 4.70871L1.22145 5.00103H1.60819L1.29606 5.17903L1.41482 5.46605L1.09933 5.28802L0.787241 5.46602L0.905962 5.1764L0.590507 4.99836H0.984011L1.09933 4.70871ZM3.30093 4.70871L3.41965 5.00103H3.80975L3.49426 5.17903L3.61642 5.46605L3.30089 5.28802L2.98544 5.46602L3.10756 5.1764L2.79207 4.99836H3.1788L3.30093 4.70871ZM5.49912 4.70871L5.62124 5.00103H6.00458L5.69249 5.17903L5.81117 5.46605L5.49572 5.28802L5.18363 5.46602L5.30235 5.1764L4.98686 4.99836H5.377L5.49912 4.70871ZM7.70072 4.70871L7.8194 5.00103H8.20954L7.89405 5.17903L8.01617 5.46605L7.70068 5.28802L7.38522 5.46602L7.50735 5.1764L7.19186 4.99836H7.57859L7.70072 4.70871ZM9.89891 4.70871L10.021 5.00103H10.4077L10.0956 5.17903L10.2144 5.46605L9.89887 5.28802L9.58678 5.46602L9.70554 5.1764L9.39345 4.99836H9.78015L9.89891 4.70871ZM12.1005 4.70871L12.2192 5.00103H12.6093L12.2938 5.17903L12.416 5.46605L12.1005 5.28802L11.785 5.46602L11.9071 5.1764L11.5916 4.99836H11.9817L12.1005 4.70871ZM2.20183 5.44212L2.32055 5.73177H2.71065L2.39516 5.90981L2.51392 6.20212L2.20183 6.02143L1.88634 6.19943L2.00506 5.90981L1.69297 5.73177H2.07974L2.20183 5.44212ZM4.40002 5.44212L4.52215 5.73177H4.90885L4.59336 5.90981L4.71551 6.20212L4.39999 6.02143L4.08453 6.19943L4.20665 5.90981L3.89116 5.73177H4.28127L4.40002 5.44212ZM6.60162 5.44212L6.7203 5.73177H7.11044L6.79495 5.90981L6.91367 6.20212L6.60158 6.02143L6.28613 6.19943L6.40485 5.90981L6.09276 5.73177H6.4795L6.60162 5.44212ZM8.79981 5.44212L8.92193 5.73177H9.30864L8.99655 5.90981L9.11527 6.20212L8.79978 6.02143L8.48769 6.19943L8.60644 5.90981L8.29095 5.73177H8.68446L8.79981 5.44212ZM11.0014 5.44212L11.1201 5.73177H11.5102L11.1947 5.90981L11.3135 6.20212L11.0014 6.02143L10.6859 6.19943L10.8046 5.90981L10.4925 5.73177H10.8793L11.0014 5.44212ZM1.09933 6.17553L1.22145 6.46518H1.60819L1.29606 6.64322L1.41482 6.93287L1.09933 6.75484L0.787241 6.93284L0.905962 6.64055L0.590507 6.46252H0.984011L1.09933 6.17553ZM3.30093 6.17553L3.41965 6.46518H3.80975L3.49426 6.64322L3.61642 6.93287L3.30089 6.75484L2.98544 6.93284L3.10756 6.64055L2.79207 6.46252H3.1788L3.30093 6.17553ZM5.49912 6.17553L5.62124 6.46518H6.00458L5.69926 6.64322L5.81798 6.93287L5.50248 6.75484L5.1904 6.93284L5.30915 6.64055L4.99366 6.46252H5.38376L5.49912 6.17553ZM7.70072 6.17553L7.8194 6.46518H8.20954L7.89405 6.64322L8.01617 6.93287L7.70068 6.75484L7.38522 6.93284L7.50735 6.64055L7.19186 6.46252H7.57859L7.70072 6.17553ZM9.89891 6.17553L10.021 6.46518H10.4077L10.0956 6.64322L10.2144 6.93287L9.89887 6.75484L9.58678 6.93284L9.70554 6.64055L9.39345 6.46252H9.78015L9.89891 6.17553ZM12.1005 6.17553L12.2192 6.46518H12.6093L12.2938 6.64322L12.416 6.93287L12.1005 6.75484L11.785 6.93284L11.9071 6.64055L11.5916 6.46252H11.9817L12.1005 6.17553Z" fill="white"/>
</svg>
