<svg width="26" height="22" viewBox="0 0 26 22" fill="none" xmlns="http://www.w3.org/2000/svg">
<path fill-rule="evenodd" clip-rule="evenodd" d="M4.07644 5.16438C4.05932 5.18149 4.02573 5.21699 3.98867 5.25689C3.9618 5.28581 3.94033 5.30919 3.89589 5.35776L1.43686 8.04537C1.37246 8.11908 1.32773 8.16858 1.22381 8.28216C1.16583 8.34554 1.12325 8.39422 1.03165 8.5006C0.861314 8.68076 0.681705 8.89584 0.513393 9.12288C0.354696 9.30637 0.227898 9.52008 0.139338 9.75356C-0.0429828 10.3607 -0.0429828 10.9507 0.119423 11.4988L0.141178 11.5627C0.230452 11.7937 0.356495 12.0055 0.513367 12.1883C0.681824 12.4136 0.861414 12.6288 1.05134 12.8328C1.12325 12.9172 1.16583 12.9659 1.22381 13.0292L1.43686 13.2621L3.67883 15.7164C3.78367 15.831 3.83515 15.8867 3.89479 15.9489C3.95836 16.0221 4.02512 16.0947 4.09214 16.1637C4.10412 16.1754 6.96156 19.2964 6.96156 19.2964C7.04981 19.3928 7.121 19.4686 7.28113 19.6376C7.29813 19.6558 7.32393 19.6845 7.33186 19.6935C7.37308 19.7409 7.39698 19.7683 7.41292 19.7858C7.74615 20.1504 8.12925 20.4569 8.54836 20.6942C8.97779 20.9278 9.42464 21.0885 9.88556 21.1771C10.321 21.2549 10.7523 21.2966 11.1847 21.3034C11.2591 21.3051 11.3209 21.3059 11.4587 21.3074C11.5917 21.3089 11.6503 21.3097 11.7223 21.3113L20.2368 21.3114C20.3246 21.3097 20.3839 21.3089 20.5184 21.3074C20.6575 21.3059 20.72 21.3051 20.7998 21.3034C21.234 21.295 21.6683 21.2519 22.0981 21.1746C22.5692 21.0875 23.0224 20.924 23.4455 20.689C23.8717 20.4524 24.2608 20.143 24.5981 19.7724C24.9335 19.4044 25.2151 18.9814 25.4325 18.5188C25.6472 18.0492 25.7947 17.5562 25.874 17.0476C25.9461 16.5722 25.9843 16.0951 25.989 15.617C25.9928 15.5186 25.9945 15.4245 25.997 15.2164C25.9981 15.1175 25.9987 15.0739 25.9997 15.0203L25.9998 6.25529C25.9987 6.187 25.9981 6.14363 25.997 6.04651L25.9957 5.94561C25.994 5.81837 25.9919 5.7229 25.9884 5.62782C25.9837 5.17773 25.9469 4.70675 25.8789 4.24058C25.7959 3.72436 25.6488 3.23598 25.4404 2.77802C25.2212 2.31033 24.9415 1.89051 24.6074 1.52556C24.2745 1.15887 23.8879 0.850661 23.4641 0.614794C23.0431 0.384272 22.5983 0.223278 22.1393 0.134437C21.6991 0.0578212 21.2671 0.0176349 20.8341 0.0118979C20.691 0.00533248 20.5642 0.00394615 20.2837 0.00394615C20.1918 0.0021629 20.0844 0.00105461 19.9636 0.000500459C19.8727 8.24511e-05 19.8004 0 19.6374 0H12.3831C12.0577 0 11.9104 0.000673031 11.7247 0.00405544C11.4563 0.00394615 11.3295 0.00533248 11.1662 0.0124712C10.7546 0.0172706 10.3233 0.0575144 9.8964 0.132292C9.42464 0.222913 8.97779 0.383624 8.55878 0.611473C8.12925 0.854485 7.74615 1.16101 7.41261 1.52599C7.39698 1.54307 7.37308 1.57047 7.33348 1.61603C7.32393 1.62696 7.28113 1.67381 7.28113 1.67381C7.121 1.8428 7.04981 1.91857 6.96156 2.01503L6.59325 2.41758L4.14362 5.09878C4.12216 5.1175 4.09919 5.13951 4.07644 5.16438ZM19.6374 1.57862C19.7984 1.57862 19.8693 1.5787 19.9575 1.57911C20.0727 1.57964 20.1743 1.58069 20.2717 1.58246C20.5449 1.58257 20.6589 1.58382 20.7965 1.58983C21.1795 1.59521 21.5416 1.62889 21.9 1.69118C22.2091 1.75114 22.5209 1.86398 22.8129 2.02388C23.0956 2.18123 23.3574 2.38993 23.5843 2.63976C23.8138 2.89058 24.0044 3.17652 24.151 3.48945C24.2939 3.80348 24.3974 4.14716 24.4544 4.50166C24.5095 4.87948 24.5403 5.27378 24.5447 5.66897C24.5481 5.77028 24.5499 5.8539 24.5515 5.96905L24.5527 6.06737C24.5539 6.16806 24.5546 6.21381 24.5556 6.27108L24.5555 15.0048C24.5546 15.0475 24.5539 15.0934 24.5527 15.1958C24.5504 15.3902 24.5489 15.475 24.5452 15.5777C24.5408 15.9976 24.5091 16.394 24.4496 16.7859C24.3947 17.1379 24.2916 17.4827 24.1441 17.8054C23.9985 18.1151 23.805 18.4057 23.5744 18.6588C23.345 18.9108 23.0808 19.1209 22.7913 19.2816C22.4982 19.4444 22.1844 19.5576 21.8604 19.6176C21.5029 19.6818 21.1384 19.718 20.7729 19.725C20.6979 19.7266 20.6385 19.7274 20.5041 19.7289C20.365 19.7304 20.3025 19.7312 20.2227 19.7329L11.7367 19.7328C11.6727 19.7312 11.6109 19.7304 11.4731 19.7289C11.3401 19.7274 11.2815 19.7266 11.2095 19.725C10.8442 19.7193 10.4838 19.6845 10.1271 19.6208C9.81147 19.56 9.49703 19.4469 9.20217 19.2866C8.92548 19.1299 8.66304 18.9199 8.43455 18.6698L8.37816 18.6053C8.32211 18.5411 8.29785 18.5138 8.26996 18.4867C8.12608 18.3348 8.06059 18.2651 7.98288 18.1801L5.11942 15.0505C5.09328 15.0245 5.07745 15.0088 5.06653 14.9982C5.01478 14.9438 4.97246 14.8971 4.93245 14.8506C4.84977 14.7631 4.80448 14.7142 4.70056 14.6006L2.45859 12.1463L2.24513 11.913C2.20081 11.8645 2.16515 11.8238 2.08343 11.7289C1.90558 11.537 1.75635 11.3575 1.61677 11.1692L1.57309 11.1154C1.53669 11.0746 1.50647 11.0277 1.4835 10.9766C1.42794 10.7662 1.42814 10.5428 1.48413 10.3324C1.50578 10.2834 1.53469 10.2385 1.56976 10.1997L1.61898 10.1392C1.75628 9.95216 1.90397 9.77448 2.06122 9.60721C2.16515 9.48763 2.20081 9.44686 2.24513 9.39842C2.35787 9.2752 2.40823 9.21946 2.4711 9.14713L4.70056 6.71081L4.91721 6.47402C4.96034 6.42688 4.97884 6.40674 5.00228 6.38151L5.04993 6.3347L5.05014 6.33449C5.08475 6.30057 5.10397 6.28174 5.12303 6.2609L7.61494 3.53343L7.98288 3.13128C8.06059 3.04635 8.12608 2.97657 8.26996 2.8247C8.29785 2.79761 8.32211 2.77028 8.37629 2.7083L8.43424 2.64191C8.66304 2.39154 8.92548 2.18156 9.21259 2.01905C9.49703 1.86449 9.81147 1.7514 10.1358 1.68903C10.4817 1.62854 10.8421 1.59491 11.2033 1.59041C11.3616 1.58382 11.4755 1.58257 11.7367 1.58257C11.9237 1.57927 12.0657 1.57862 12.3831 1.57862H19.6374ZM12.7967 14.8334C12.7383 14.896 12.6685 14.9471 12.5898 14.9826C12.3466 15.0924 12.0668 15.031 11.8811 14.8272C11.6287 14.55 11.6287 14.102 11.8811 13.8248C11.9179 13.7844 11.9584 13.7496 12.0016 13.7206L14.806 10.6523L11.8812 7.45898L11.89 7.44932C11.8327 7.38544 11.7859 7.30915 11.7534 7.22322C11.653 6.95738 11.7091 6.65159 11.8956 6.44867C12.1492 6.17272 12.5592 6.17272 12.8128 6.44867C12.8497 6.48884 12.8815 6.53305 12.908 6.58017L15.7217 9.65044L18.5618 6.54304C18.5828 6.50992 18.6068 6.47833 18.6336 6.44867C18.8185 6.24563 19.0972 6.18451 19.3395 6.29385C19.5818 6.40319 19.7398 6.66141 19.7398 6.94791C19.7398 7.13888 19.6696 7.31729 19.551 7.44741L19.558 7.45504L16.6378 10.6501L19.4878 13.76C19.5135 13.7806 19.5382 13.8035 19.5616 13.8287C19.7473 14.0309 19.8033 14.3355 19.7032 14.6003C19.6032 14.8651 19.3669 15.0378 19.1048 15.0378C18.9301 15.0378 18.7668 14.9611 18.6478 14.8314L18.6408 14.8391L15.7219 11.6522L12.8055 14.843L12.7967 14.8334Z" fill="black"/>
</svg>
